<svg width="210" height="260" viewBox="0 0 210 260" fill="none" xmlns="http://www.w3.org/2000/svg">
<rect x="0.5" y="0.5" width="209" height="259" rx="9.5" fill="#F9F9F9" stroke="#F9F9F9"/>
<path d="M77.2212 37V26.92H83.6192V28.103H78.4672V30.784H81.2042C81.3022 30.784 81.4189 30.7887 81.5542 30.798C81.6895 30.8027 81.8202 30.8143 81.9462 30.833C82.4782 30.8983 82.9285 31.0757 83.2972 31.365C83.6705 31.6497 83.9529 32.0113 84.1442 32.45C84.3402 32.8887 84.4382 33.3693 84.4382 33.892C84.4382 34.41 84.3425 34.8883 84.1512 35.327C83.9599 35.7657 83.6775 36.1297 83.3042 36.419C82.9355 36.7037 82.4829 36.881 81.9462 36.951C81.8202 36.965 81.6895 36.9767 81.5542 36.986C81.4189 36.9953 81.3022 37 81.2042 37H77.2212ZM78.4672 35.817H81.1622C81.2509 35.817 81.3512 35.8123 81.4632 35.803C81.5799 35.7937 81.6895 35.7797 81.7922 35.761C82.2775 35.663 82.6275 35.432 82.8422 35.068C83.0569 34.6993 83.1642 34.3073 83.1642 33.892C83.1642 33.4673 83.0569 33.0753 82.8422 32.716C82.6275 32.352 82.2775 32.121 81.7922 32.023C81.6895 31.9997 81.5799 31.9857 81.4632 31.981C81.3512 31.9717 81.2509 31.967 81.1622 31.967H78.4672V35.817ZM87.9835 37.21C87.4188 37.21 86.9452 37.1073 86.5625 36.902C86.1845 36.692 85.8975 36.4167 85.7015 36.076C85.5102 35.7353 85.4145 35.362 85.4145 34.956C85.4145 34.5593 85.4892 34.2163 85.6385 33.927C85.7925 33.633 86.0072 33.3903 86.2825 33.199C86.5578 33.003 86.8868 32.849 87.2695 32.737C87.6288 32.639 88.0302 32.555 88.4735 32.485C88.9215 32.4103 89.3742 32.3427 89.8315 32.282C90.2888 32.2213 90.7158 32.163 91.1125 32.107L90.6645 32.366C90.6785 31.694 90.5432 31.197 90.2585 30.875C89.9785 30.553 89.4932 30.392 88.8025 30.392C88.3452 30.392 87.9438 30.497 87.5985 30.707C87.2578 30.9123 87.0175 31.2483 86.8775 31.715L85.6945 31.358C85.8765 30.6953 86.2288 30.175 86.7515 29.797C87.2742 29.419 87.9625 29.23 88.8165 29.23C89.5025 29.23 90.0905 29.3537 90.5805 29.601C91.0752 29.8437 91.4298 30.2123 91.6445 30.707C91.7518 30.9403 91.8195 31.1947 91.8475 31.47C91.8755 31.7407 91.8895 32.0253 91.8895 32.324V37H90.7835V35.187L91.0425 35.355C90.7578 35.9663 90.3588 36.4283 89.8455 36.741C89.3368 37.0537 88.7162 37.21 87.9835 37.21ZM88.1725 36.167C88.6205 36.167 89.0078 36.0877 89.3345 35.929C89.6658 35.7657 89.9318 35.5533 90.1325 35.292C90.3332 35.026 90.4638 34.7367 90.5245 34.424C90.5945 34.1907 90.6318 33.9317 90.6365 33.647C90.6458 33.3577 90.6505 33.136 90.6505 32.982L91.0845 33.171C90.6785 33.227 90.2795 33.2807 89.8875 33.332C89.4955 33.3833 89.1245 33.4393 88.7745 33.5C88.4245 33.556 88.1095 33.6237 87.8295 33.703C87.6242 33.7683 87.4305 33.8523 87.2485 33.955C87.0712 34.0577 86.9265 34.1907 86.8145 34.354C86.7072 34.5127 86.6535 34.711 86.6535 34.949C86.6535 35.1543 86.7048 35.3503 86.8075 35.537C86.9148 35.7237 87.0782 35.8753 87.2975 35.992C87.5215 36.1087 87.8132 36.167 88.1725 36.167ZM96.4185 37.21C95.6718 37.21 95.0115 37.049 94.4375 36.727C93.8635 36.4003 93.4108 35.9523 93.0795 35.383L94.0735 34.739C94.3488 35.1543 94.6778 35.474 95.0605 35.698C95.4432 35.9173 95.8795 36.027 96.3695 36.027C96.8828 36.027 97.2912 35.9103 97.5945 35.677C97.8978 35.439 98.0495 35.1193 98.0495 34.718C98.0495 34.4193 97.9748 34.1907 97.8255 34.032C97.6762 33.8733 97.4615 33.7637 97.1815 33.703C96.9015 33.6423 96.5678 33.612 96.1805 33.612H95.3965V32.583H96.1735C96.6635 32.583 97.0625 32.5037 97.3705 32.345C97.6785 32.1863 97.8325 31.9157 97.8325 31.533C97.8325 31.141 97.6878 30.8563 97.3985 30.679C97.1138 30.497 96.7732 30.406 96.3765 30.406C95.9565 30.406 95.5552 30.4947 95.1725 30.672C94.7898 30.8447 94.4608 31.064 94.1855 31.33L93.4295 30.483C93.8215 30.0817 94.2718 29.7737 94.7805 29.559C95.2938 29.3397 95.8515 29.23 96.4535 29.23C96.9388 29.23 97.3822 29.3163 97.7835 29.489C98.1895 29.657 98.5115 29.9067 98.7495 30.238C98.9922 30.5647 99.1135 30.9637 99.1135 31.435C99.1135 31.8363 99.0202 32.1933 98.8335 32.506C98.6468 32.8187 98.3715 33.0917 98.0075 33.325L97.9585 32.884C98.2665 32.9587 98.5208 33.0963 98.7215 33.297C98.9268 33.493 99.0785 33.7263 99.1765 33.997C99.2745 34.2677 99.3235 34.55 99.3235 34.844C99.3235 35.3387 99.1928 35.7633 98.9315 36.118C98.6748 36.468 98.3272 36.7387 97.8885 36.93C97.4498 37.1167 96.9598 37.21 96.4185 37.21ZM104.08 37.21C103.329 37.21 102.68 37.0397 102.134 36.699C101.593 36.3583 101.175 35.887 100.881 35.285C100.587 34.683 100.44 33.9923 100.44 33.213C100.44 32.4197 100.589 31.7243 100.888 31.127C101.187 30.5297 101.609 30.0653 102.155 29.734C102.701 29.398 103.343 29.23 104.08 29.23C104.836 29.23 105.487 29.4003 106.033 29.741C106.579 30.077 106.997 30.546 107.286 31.148C107.58 31.7453 107.727 32.4337 107.727 33.213C107.727 34.0017 107.58 34.697 107.286 35.299C106.992 35.8963 106.572 36.3653 106.026 36.706C105.48 37.042 104.831 37.21 104.08 37.21ZM104.08 36.027C104.864 36.027 105.447 35.7657 105.83 35.243C106.213 34.7203 106.404 34.0437 106.404 33.213C106.404 32.359 106.21 31.68 105.823 31.176C105.436 30.6673 104.855 30.413 104.08 30.413C103.553 30.413 103.119 30.532 102.778 30.77C102.437 31.008 102.183 31.337 102.015 31.757C101.847 32.177 101.763 32.6623 101.763 33.213C101.763 34.0623 101.959 34.7437 102.351 35.257C102.743 35.7703 103.319 36.027 104.08 36.027ZM109.261 37V29.44H112.481C112.672 29.44 112.878 29.4517 113.097 29.475C113.321 29.4937 113.524 29.5287 113.706 29.58C114.112 29.6873 114.446 29.909 114.707 30.245C114.973 30.5763 115.106 30.9963 115.106 31.505C115.106 31.7897 115.062 32.037 114.973 32.247C114.889 32.457 114.768 32.639 114.609 32.793C114.539 32.863 114.462 32.926 114.378 32.982C114.294 33.038 114.21 33.0823 114.126 33.115C114.289 33.143 114.455 33.206 114.623 33.304C114.889 33.4487 115.097 33.6517 115.246 33.913C115.4 34.1743 115.477 34.508 115.477 34.914C115.477 35.4273 115.353 35.852 115.106 36.188C114.859 36.5193 114.518 36.748 114.084 36.874C113.902 36.9253 113.701 36.9603 113.482 36.979C113.263 36.993 113.05 37 112.845 37H109.261ZM110.521 35.985H112.775C112.873 35.985 112.99 35.9757 113.125 35.957C113.265 35.9383 113.389 35.915 113.496 35.887C113.739 35.817 113.914 35.6863 114.021 35.495C114.133 35.3037 114.189 35.096 114.189 34.872C114.189 34.5733 114.105 34.3307 113.937 34.144C113.774 33.9573 113.557 33.8407 113.286 33.794C113.188 33.766 113.081 33.7497 112.964 33.745C112.852 33.7403 112.752 33.738 112.663 33.738H110.521V35.985ZM110.521 32.709H112.397C112.528 32.709 112.665 32.702 112.81 32.688C112.955 32.6693 113.081 32.639 113.188 32.597C113.403 32.5177 113.559 32.387 113.657 32.205C113.76 32.0183 113.811 31.8153 113.811 31.596C113.811 31.3533 113.755 31.141 113.643 30.959C113.536 30.7723 113.37 30.644 113.146 30.574C112.997 30.518 112.829 30.4877 112.642 30.483C112.46 30.4737 112.343 30.469 112.292 30.469H110.521V32.709ZM116.883 37L116.876 29.44H118.129V32.177H119.284C119.504 32.177 119.728 32.1817 119.956 32.191C120.185 32.2003 120.383 32.2213 120.551 32.254C120.943 32.3333 121.286 32.4663 121.58 32.653C121.874 32.8397 122.103 33.0917 122.266 33.409C122.43 33.7263 122.511 34.1207 122.511 34.592C122.511 35.2453 122.341 35.7633 122 36.146C121.664 36.524 121.223 36.776 120.677 36.902C120.491 36.944 120.276 36.972 120.033 36.986C119.795 36.9953 119.569 37 119.354 37H116.883ZM118.129 35.971H119.375C119.515 35.971 119.672 35.9663 119.844 35.957C120.017 35.9477 120.171 35.9243 120.306 35.887C120.544 35.817 120.757 35.6793 120.943 35.474C121.135 35.2687 121.23 34.9747 121.23 34.592C121.23 34.2047 121.137 33.906 120.95 33.696C120.768 33.486 120.528 33.3483 120.229 33.283C120.094 33.2503 119.952 33.2293 119.802 33.22C119.653 33.2107 119.511 33.206 119.375 33.206H118.129V35.971ZM123.379 37V29.44H124.625V37H123.379ZM129.845 28.558C129.495 28.558 129.176 28.4717 128.886 28.299C128.597 28.1263 128.366 27.8977 128.193 27.613C128.021 27.3237 127.934 27.0017 127.934 26.647H128.942C128.942 26.8943 129.031 27.1067 129.208 27.284C129.386 27.4613 129.598 27.55 129.845 27.55C130.097 27.55 130.31 27.4613 130.482 27.284C130.66 27.1067 130.748 26.8943 130.748 26.647H131.756C131.756 27.0017 131.67 27.3237 131.497 27.613C131.329 27.8977 131.098 28.1263 130.804 28.299C130.515 28.4717 130.195 28.558 129.845 28.558ZM132.778 29.44V37H131.574V31.428L127.612 37H126.583V29.44H127.787V34.935L131.756 29.44H132.778Z" fill="#131313"/>
<path d="M85.078 74.9249C84.86 72.7049 84.3366 70.518 84.2256 68.2898C84.1146 66.0616 84.4833 63.6969 85.8115 61.9648C87.1397 60.2327 89.693 59.3852 91.5405 60.5096L92.0599 62.3658C92.1075 71.0017 92.944 79.7038 92.9916 88.3355C92.9916 89.4724 92.1987 90.572 91.8022 91.6427C91.4057 92.7134 90.4819 93.6146 89.3956 93.6477C87.9723 93.689 86.9137 92.2794 86.3547 90.9151C84.3485 85.9544 85.5974 80.2743 85.078 74.9249Z" fill="#263238"/>
<path d="M89.2177 62.9237C89.451 62.3245 89.772 61.7667 90.1692 61.2701C90.3694 61.0262 90.6201 60.8329 90.9023 60.7047C91.1846 60.5765 91.4911 60.5168 91.7987 60.5301C91.9434 60.5342 92.0847 60.5771 92.209 60.6546C92.3333 60.732 92.4364 60.8415 92.5084 60.9725C92.6273 61.2495 92.4569 61.6463 92.1674 61.6463L92.1119 61.7083C91.5212 62.3574 90.9225 62.9899 90.3119 63.6141C90.1678 63.7858 89.9927 63.9263 89.7965 64.0275C89.6989 64.0758 89.5902 64.0944 89.483 64.0812C89.3757 64.0681 89.2741 64.0237 89.1899 63.9531C88.9322 63.6885 89.067 63.2751 89.2177 62.9237Z" fill="#FF7D1F"/>
<path d="M88.2099 65.2185C89.0871 63.8012 90.2581 62.6071 91.6366 61.7242C93.0151 60.8414 94.5659 60.2922 96.175 60.1171C98.0622 59.9104 98.8829 60.2494 100.278 60.5057C101.671 60.7191 102.948 61.4378 103.882 62.5355C104.973 63.8749 105.92 65.4004 106.261 67.1201C106.581 68.7652 106.634 70.4545 106.42 72.1181C106.06 74.2588 105.365 76.3231 104.362 78.2281L101.492 78.8689C99.0851 79.179 96.6428 79.489 94.2442 79.1335C91.8455 78.778 89.4469 77.67 88.0037 75.6361C85.9738 72.8167 86.3068 68.1205 88.2099 65.2185Z" fill="#263238"/>
<path d="M92.0839 64.8254L97.7257 61.8696L99.264 61.911C102.67 61.6216 105.366 65.3422 105.655 68.236C105.956 71.4481 106.198 75.3795 105.913 77.7938C105.334 82.6471 101.472 83.4036 101.472 83.4036C101.472 83.4036 101.77 85.9336 101.932 87.5376L92.9561 87.6947L90.7042 66.6113C90.6796 66.188 90.8074 65.7703 91.0626 65.44C91.3177 65.1097 91.6819 64.8905 92.0839 64.8254Z" fill="#FFBF9D"/>
<path d="M98.9455 77.2938C98.9588 77.1198 99.0139 76.9521 99.1056 76.8061C99.1972 76.66 99.3227 76.5404 99.4703 76.4581C99.6179 76.3758 99.783 76.3334 99.9504 76.335C100.118 76.3366 100.282 76.382 100.428 76.467C100.627 76.5982 100.789 76.7822 100.897 77.0002C101.005 77.2182 101.055 77.4622 101.043 77.7072C100.956 77.8637 100.837 77.9989 100.696 78.1037C100.554 78.2085 100.393 78.2805 100.222 78.3149L100.06 78.3356C99.7879 78.3569 99.5183 78.273 99.3023 78.0999C99.1883 78.0025 99.0969 77.8793 99.0351 77.7396C98.9733 77.6 98.9426 77.4476 98.9455 77.2938Z" fill="#FF9A6C"/>
<path d="M104.743 72.2543C104.75 72.4157 104.697 72.5737 104.594 72.6944C104.491 72.815 104.346 72.8886 104.192 72.8992C104.116 72.9078 104.04 72.9006 103.967 72.8781C103.895 72.8556 103.827 72.8183 103.768 72.7683C103.71 72.7183 103.661 72.6565 103.626 72.5868C103.59 72.517 103.568 72.4405 103.561 72.3618C103.554 72.2004 103.607 72.0424 103.71 71.9217C103.813 71.8011 103.958 71.7275 104.112 71.7169C104.188 71.7083 104.264 71.7155 104.337 71.738C104.409 71.7604 104.477 71.7978 104.536 71.8478C104.594 71.8978 104.643 71.9595 104.678 72.0293C104.714 72.0991 104.736 72.1756 104.743 72.2543Z" fill="#263238"/>
<path d="M104.731 69.9183C104.66 70.001 104.196 69.6703 103.542 69.6951C102.888 69.7199 102.447 70.0671 102.376 69.9886C102.305 69.91 102.408 69.8067 102.61 69.6455C102.879 69.4343 103.205 69.3158 103.542 69.3065C103.874 69.2956 104.202 69.3939 104.477 69.5876C104.692 69.7364 104.763 69.8894 104.731 69.9183Z" fill="#263238"/>
<path d="M101.088 75.4957C101.422 75.3766 101.768 75.2989 102.119 75.2641C102.282 75.2641 102.436 75.2021 102.46 75.0864C102.47 74.9098 102.426 74.7345 102.333 74.5862L101.81 73.3088C101.08 71.4857 100.545 70.0016 100.62 69.9561C100.696 69.9106 101.338 71.3782 102.067 73.1972L102.575 74.487C102.682 74.6881 102.72 74.9216 102.682 75.1484C102.66 75.2095 102.625 75.2647 102.58 75.3098C102.534 75.3549 102.48 75.3888 102.42 75.4088C102.33 75.4377 102.237 75.4544 102.143 75.4584C101.794 75.5198 101.44 75.5323 101.088 75.4957Z" fill="#263238"/>
<path d="M101.46 83.3791C99.2799 83.4913 97.113 82.9719 95.1992 81.8784C95.1992 81.8784 96.9635 85.1649 101.582 84.549L101.46 83.3791Z" fill="#FF9A6C"/>
<path d="M99.2257 76.0245C99.3288 76.0245 99.3526 76.7397 99.9632 77.2316C100.574 77.7236 101.311 77.6161 101.319 77.7194C101.319 77.7608 101.157 77.8641 100.847 77.8848C100.441 77.9043 100.041 77.774 99.7173 77.5169C99.4061 77.2706 99.1998 76.907 99.1425 76.504C99.1068 76.2022 99.1781 76.0203 99.2257 76.0245Z" fill="#263238"/>
<path d="M104.315 67.6161C104.212 67.7814 103.72 67.6905 103.149 67.7607C102.578 67.831 102.111 68.0047 101.96 67.8641C101.904 67.7938 101.96 67.6326 102.154 67.4507C102.419 67.2398 102.735 67.1095 103.067 67.0745C103.399 67.0395 103.733 67.101 104.033 67.2523C104.271 67.4094 104.359 67.5375 104.315 67.6161Z" fill="#263238"/>
<path d="M97.7579 72.6181C97.7681 72.7789 97.838 72.9293 97.9527 73.0373C98.0674 73.1454 98.218 73.2026 98.3725 73.1969C98.4484 73.1974 98.5238 73.1822 98.594 73.152C98.6643 73.1218 98.728 73.0773 98.7816 73.0211C98.8351 72.9649 98.8774 72.8981 98.9058 72.8246C98.9343 72.7512 98.9484 72.6725 98.9474 72.5933C98.9371 72.4325 98.8673 72.2821 98.7526 72.1741C98.6379 72.066 98.4873 72.0088 98.3328 72.0146C98.2567 72.0134 98.1811 72.0283 98.1106 72.0583C98.0401 72.0883 97.9761 72.1327 97.9225 72.1891C97.8688 72.2454 97.8266 72.3124 97.7983 72.3861C97.7701 72.4599 97.7563 72.5387 97.7579 72.6181Z" fill="#263238"/>
<path d="M96.1041 70.4601C96.1834 70.5345 96.6076 70.1583 97.246 70.1087C97.8843 70.0591 98.3719 70.3609 98.4354 70.2741C98.4988 70.1872 98.3838 70.0963 98.1697 69.9599C97.8796 69.7796 97.5431 69.6973 97.2063 69.7242C96.8756 69.7498 96.5608 69.8828 96.3063 70.1046C96.1398 70.2782 96.0645 70.427 96.1041 70.4601Z" fill="#263238"/>
<path d="M96.3019 68.3028C96.4406 68.4434 96.9203 68.2491 97.4913 68.1995C98.0622 68.1499 98.5895 68.1995 98.6807 68.0507C98.7243 67.9721 98.6371 67.8274 98.4071 67.6993C98.096 67.5459 97.75 67.4858 97.408 67.5256C97.0654 67.5541 96.7378 67.6847 96.4644 67.9018C96.3019 68.0713 96.2424 68.2367 96.3019 68.3028Z" fill="#263238"/>
<path d="M92.1732 74.5987C92.1732 74.2391 91.7331 73.404 91.3803 73.3585C90.4644 73.2428 88.8309 73.3585 88.8944 75.7852C88.9776 79.0924 92.1296 78.3069 92.1335 78.2119C92.1375 78.1168 92.2089 75.8389 92.1732 74.5987Z" fill="#FFBF9D"/>
<path d="M91.2402 77.0375C91.2402 77.0375 91.1847 77.083 91.0935 77.1285C90.9681 77.1853 90.8272 77.1927 90.697 77.1491C90.36 77.0293 90.0666 76.4877 90.0349 75.9089C90.0185 75.6266 90.0632 75.344 90.1658 75.0821C90.1919 74.9787 90.2416 74.8834 90.3106 74.8042C90.3797 74.725 90.466 74.6644 90.5622 74.6274C90.6251 74.6092 90.6921 74.6141 90.752 74.6412C90.8119 74.6683 90.861 74.7159 90.8913 74.7762C90.9349 74.8672 90.9151 74.9333 90.9309 74.9375C90.9468 74.9416 90.9983 74.8837 90.9706 74.7473C90.9498 74.6665 90.9038 74.5952 90.8398 74.5447C90.7964 74.5113 90.747 74.4875 90.6945 74.4747C90.642 74.4619 90.5875 74.4604 90.5345 74.4703C90.4062 74.5021 90.2875 74.5668 90.1892 74.6584C90.0909 74.7501 90.0161 74.8659 89.9715 74.9953C89.8474 75.2848 89.7904 75.6006 89.805 75.9172C89.8446 76.5828 90.2014 77.1946 90.6455 77.3186C90.7308 77.3426 90.8202 77.3457 90.9068 77.3278C90.9935 77.3099 91.075 77.2714 91.145 77.2153C91.2362 77.1202 91.2481 77.0458 91.2402 77.0375Z" fill="#FF9A6C"/>
<path d="M91.259 73.3827L92.1312 74.1723C95.2792 70.4145 101.278 61.1792 100.945 61.7249C99.3229 61.2597 97.6154 61.2242 95.977 61.6215C93.4515 62.316 88.7097 64.1019 89.0506 67.2479C89.3916 70.3938 91.259 73.3827 91.259 73.3827Z" fill="#263238"/>
<path d="M86.625 73.0853C86.6308 73.0197 86.6414 72.9548 86.6567 72.891C86.6993 72.7072 86.7563 72.5275 86.8272 72.3535C87.1051 71.7196 87.5108 71.1556 88.0166 70.6999C88.7681 70.0302 89.6235 69.499 90.5461 69.129C91.565 68.6743 92.7267 68.3022 93.8448 67.6615C94.9007 67.0817 95.8892 66.377 96.7905 65.5614C97.5251 64.8929 98.2005 64.1568 98.8086 63.3621C99.218 62.8236 99.5966 62.2604 99.9425 61.6754C100.054 61.4811 100.145 61.3199 100.22 61.1959C100.249 61.1385 100.283 61.0845 100.323 61.0347C100.304 61.0965 100.279 61.156 100.248 61.2124C100.192 61.3282 100.113 61.4977 99.998 61.7085C99.674 62.3061 99.3125 62.8806 98.9156 63.4282C98.3153 64.2399 97.6422 64.9902 96.9055 65.6689C95.9963 66.5083 94.994 67.2314 93.9201 67.8227C92.8391 68.3704 91.7315 68.8589 90.6016 69.2861C89.69 69.6429 88.8418 70.1556 88.0919 70.8033C87.5935 71.2449 87.1884 71.7897 86.9025 72.4031C86.7003 72.8207 86.6528 73.0894 86.625 73.0853Z" fill="#455A64"/>
<path d="M87.5917 73.5153C87.5615 73.2711 87.5818 73.023 87.6512 72.7877C87.8332 72.1385 88.1995 71.562 88.7019 71.1341C89.451 70.5243 90.3097 70.0773 91.2274 69.8195C92.3302 69.4824 93.3939 69.0193 94.3992 68.4387C95.3962 67.8494 96.318 67.1313 97.1427 66.3015C97.817 65.6244 98.4252 64.8794 98.9586 64.0774C99.3181 63.5347 99.6439 62.9686 99.9339 62.3824L100.16 61.8988C100.185 61.8404 100.215 61.785 100.251 61.7334C100.238 61.7948 100.218 61.8545 100.192 61.9112C100.136 62.0434 100.073 62.2088 99.9894 62.4114C99.7198 63.0125 99.4071 63.5915 99.0537 64.1435C98.5274 64.9627 97.9216 65.7233 97.2458 66.4131C96.4132 67.2569 95.4806 67.9863 94.4705 68.5834C93.4582 69.1697 92.3846 69.633 91.271 69.9642C90.3681 70.2052 89.5185 70.6264 88.7693 71.2044C88.2768 71.6124 87.909 72.1612 87.7107 72.7836C87.6456 73.0222 87.6058 73.2676 87.5917 73.5153Z" fill="#455A64"/>
<path d="M91.8337 78.918C91.8337 78.8932 91.5641 78.8849 91.0884 78.7981C90.419 78.6617 89.7885 78.3675 89.2448 77.9382C88.4475 77.2872 87.8113 76.4466 87.3893 75.4868C86.8559 74.3145 86.5167 73.0565 86.3862 71.7662C86.3144 71.103 86.3077 70.434 86.3664 69.7695C86.538 68.0894 87.1513 66.4915 88.1386 65.1518C88.7209 64.3867 89.3714 63.6807 90.0813 63.0435C90.0813 63.0435 90.0179 63.0724 89.9148 63.1509C89.8117 63.2295 89.6531 63.3411 89.4668 63.5106C88.9334 63.9727 88.4483 64.4924 88.0197 65.0608C87.3788 65.9072 86.8826 66.8623 86.5527 67.8844C86.151 69.1414 86.0237 70.4761 86.18 71.791C86.3123 73.104 86.6639 74.3828 87.2188 75.5695C87.6588 76.5504 88.3249 77.4026 89.1576 78.0498C89.724 78.4825 90.3823 78.7661 91.0765 78.8766C91.2627 78.9072 91.451 78.921 91.6395 78.918C91.7039 78.9279 91.7693 78.9279 91.8337 78.918Z" fill="#455A64"/>
<path d="M115.624 101.308C115.672 101.308 122.364 103.751 123.859 111.126C125.354 118.501 125.445 137.129 122.689 137.902C119.934 138.675 113.654 137.902 113.654 137.902L108.654 116.356L115.624 101.308Z" fill="#455A64"/>
<g opacity="0.3">
<path d="M117.683 102.383L109.928 114.148C109.447 114.798 109.078 115.529 108.837 116.31C108.508 117.654 108.96 119.051 109.404 120.353L115.114 137.055L117.687 138.295C118.005 138.11 118.277 137.848 118.479 137.532C118.681 137.216 118.807 136.854 118.848 136.476C118.923 135.72 118.864 134.956 118.674 134.223C118.262 132.211 117.693 130.238 116.973 128.324C116.533 127.154 116.053 125.769 116.715 124.723C117.223 123.921 118.202 123.652 118.979 123.14C120.712 121.999 121.358 119.679 121.457 117.546C121.735 112.296 119.689 107.232 117.683 102.383Z" fill="black"/>
</g>
<path d="M121.794 133.041C121.791 132.946 121.801 132.852 121.821 132.76L121.94 131.966C122 131.623 122.063 131.201 122.127 130.726C122.19 130.25 122.281 129.676 122.349 129.072C122.507 127.832 122.642 126.36 122.745 124.715C122.848 123.069 122.9 121.259 122.88 119.341C122.86 117.422 122.745 115.62 122.602 113.991C122.46 112.362 122.265 110.878 122.067 109.646C121.98 109.03 121.873 108.481 121.786 107.993C121.698 107.505 121.623 107.087 121.552 106.753L121.397 105.967C121.375 105.875 121.361 105.781 121.357 105.686C121.394 105.772 121.42 105.862 121.437 105.955C121.487 106.153 121.55 106.414 121.627 106.736C121.704 107.059 121.795 107.472 121.901 107.976C121.996 108.46 122.115 109.014 122.21 109.63C122.428 110.87 122.626 112.333 122.793 113.979C122.959 115.624 123.058 117.439 123.086 119.353C123.114 121.267 123.042 123.074 122.935 124.727C122.828 126.381 122.666 127.857 122.487 129.093C122.412 129.713 122.317 130.271 122.238 130.746C122.158 131.222 122.087 131.656 122.016 131.986C121.944 132.317 121.897 132.574 121.857 132.772C121.841 132.863 121.82 132.953 121.794 133.041Z" fill="#263238"/>
<path d="M123.934 135.157C123.679 135.249 123.411 135.295 123.141 135.293C121.862 135.38 120.582 135.152 119.403 134.628C119.152 134.531 118.919 134.392 118.713 134.214C119.549 134.52 120.403 134.769 121.27 134.958C122.153 135.082 123.043 135.148 123.934 135.157Z" fill="#263238"/>
<path d="M87.5059 89.2156L93.5996 85.8423L101.692 86.1482L106.628 87.9589L99.0868 92.9403L94.9714 93.7506L87.5059 89.4678" fill="#FFBF9D"/>
<path d="M86.9339 120.68C86.9339 120.68 82.6481 130.75 82.3071 135.562C81.9661 140.374 85.0824 148.828 86.6921 159.32C87.9965 167.779 88.4841 183.273 89.3921 188.316C90.3 193.36 93.6066 206.365 93.6066 206.365L100.858 206.832C100.858 206.832 100.882 172.268 100.882 168.163C100.882 164.058 100.715 143.963 100.715 143.963L110.885 176.547L115.67 207.676L124.103 207.262C124.103 207.262 122.945 180.805 122.517 175.869C121.879 168.572 118.973 141.776 117.609 137.084C116.245 132.392 110.94 120.63 110.94 120.63L86.9339 120.68Z" fill="#263238"/>
<path d="M123.65 200.846L123.837 209.503C123.837 209.503 132.163 212.744 132.262 214.348L116.145 214.319L116.102 200.813L123.65 200.846Z" fill="#263238"/>
<path d="M118.858 208.767C118.703 208.816 118.571 208.923 118.487 209.067C118.402 209.211 118.372 209.383 118.402 209.549C118.441 209.712 118.539 209.853 118.676 209.943C118.812 210.033 118.977 210.065 119.135 210.032C119.299 209.98 119.438 209.867 119.527 209.715C119.615 209.562 119.647 209.381 119.615 209.205C119.556 209.039 119.438 208.902 119.285 208.825C119.132 208.748 118.956 208.736 118.794 208.792" fill="#E0E0E0"/>
<path d="M116.145 214.319L116.192 212.955L131.627 213.492C131.627 213.492 132.344 213.823 132.261 214.348L116.145 214.319Z" fill="#455A64"/>
<path d="M124.099 209.42C124.099 209.503 123.702 209.536 123.306 209.801C122.909 210.065 122.711 210.408 122.636 210.375C122.56 210.342 122.683 209.871 123.159 209.548C123.635 209.226 124.119 209.346 124.099 209.42Z" fill="white"/>
<path d="M125.787 210.151C125.807 210.23 125.466 210.37 125.196 210.714C124.927 211.057 124.851 211.429 124.772 211.425C124.693 211.421 124.645 210.957 124.986 210.532C125.327 210.106 125.787 210.073 125.787 210.151Z" fill="white"/>
<path d="M126.748 212.264C126.676 212.264 126.565 211.851 126.768 211.437C126.97 211.024 127.338 210.809 127.374 210.879C127.41 210.95 127.18 211.185 127.017 211.557C126.855 211.929 126.823 212.256 126.748 212.264Z" fill="white"/>
<path d="M123.959 207.439C123.928 207.514 123.563 207.398 123.123 207.439C122.683 207.481 122.33 207.613 122.29 207.543C122.251 207.472 122.584 207.179 123.107 207.154C123.63 207.129 123.999 207.373 123.959 207.439Z" fill="white"/>
<path d="M93.5724 199.812L93.7984 210.288L91.6892 218.63C91.6528 218.772 91.6448 218.92 91.6655 219.065C91.6862 219.21 91.7353 219.349 91.8096 219.473C91.884 219.598 91.982 219.705 92.0977 219.788C92.2133 219.871 92.3442 219.929 92.4821 219.957C92.643 219.991 92.8094 219.984 92.9669 219.935C93.1244 219.887 93.2683 219.8 93.3861 219.68C94.9204 218.147 100.523 212.479 100.479 211.714C100.412 210.825 100.943 200.648 100.943 200.648L93.5724 199.812Z" fill="#263238"/>
<path d="M92.4924 219.953L100.501 211.007V211.45C100.498 211.842 100.357 212.22 100.105 212.512C99.4664 213.298 97.6585 215.406 93.4122 219.697C93.2908 219.821 93.1416 219.911 92.9781 219.959C92.8147 220.008 92.6423 220.013 92.4766 219.974L92.4924 219.953Z" fill="#455A64"/>
<g opacity="0.6">
<path d="M98.4257 207.626C98.3023 207.721 98.2166 207.859 98.1851 208.016C98.1537 208.172 98.1786 208.335 98.2552 208.474C98.3413 208.602 98.4707 208.692 98.6176 208.726C98.7646 208.76 98.9183 208.735 99.0482 208.655C99.1795 208.556 99.2702 208.408 99.3025 208.242C99.3348 208.076 99.3063 207.904 99.2226 207.758C99.1192 207.63 98.9723 207.549 98.8128 207.531C98.6532 207.514 98.4932 207.561 98.3663 207.663" fill="white"/>
</g>
<path d="M94.7898 215.381C94.7303 215.41 94.5044 214.86 93.9057 214.554C93.5391 214.4 93.1473 214.322 92.752 214.323C92.752 214.298 92.8669 214.215 93.1048 214.182C93.4139 214.144 93.7269 214.202 94.0048 214.348C94.2839 214.489 94.5179 214.712 94.6788 214.988C94.7977 215.216 94.8136 215.373 94.7898 215.381Z" fill="white"/>
<path d="M94.0745 216.783C93.7868 216.616 93.4903 216.465 93.1864 216.333C92.8611 216.27 92.5329 216.226 92.2031 216.2C92.3578 216.101 92.5331 216.041 92.7144 216.026C92.8957 216.011 93.0779 216.041 93.2458 216.114C93.8406 216.296 94.126 216.754 94.0745 216.783Z" fill="white"/>
<path d="M96.1373 213.583C95.7141 213.284 95.2701 213.019 94.8091 212.789C94.321 212.631 93.8229 212.51 93.3184 212.425C93.8452 212.318 94.3904 212.37 94.8899 212.575C95.3894 212.78 95.8222 213.13 96.1373 213.583Z" fill="white"/>
<path d="M96.3121 210.391C96.2843 210.453 95.7293 210.213 95.0077 210.185C94.2861 210.156 93.7112 210.337 93.6914 210.275C94.0825 210.009 94.5516 209.894 95.0156 209.953C95.4839 209.935 95.9432 210.09 96.3121 210.391Z" fill="white"/>
<path d="M96.3189 207.316C95.8806 207.166 95.4241 207.082 94.963 207.064C94.5058 207.116 94.0575 207.233 93.6309 207.412C93.6309 207.391 93.726 207.259 93.956 207.118C94.2637 206.943 94.6065 206.845 94.957 206.833C95.3074 206.821 95.6558 206.894 95.974 207.048C96.2159 207.168 96.3308 207.292 96.3189 207.316Z" fill="white"/>
<path d="M94.9801 206.476C94.9495 206.34 94.9495 206.199 94.9801 206.063C95.0118 205.699 95.1144 205.346 95.2814 205.025C95.3818 204.779 95.5574 204.574 95.7809 204.442C95.8589 204.406 95.9455 204.396 96.0292 204.413C96.1129 204.43 96.1895 204.474 96.2488 204.538C96.3555 204.671 96.4119 204.84 96.4074 205.013C96.384 205.365 96.2438 205.697 96.0108 205.953C95.7778 206.209 95.4666 206.372 95.1307 206.414C94.7985 206.449 94.4639 206.38 94.169 206.217C93.8741 206.054 93.6321 205.803 93.4735 205.497C93.4346 205.419 93.412 205.333 93.4072 205.246C93.4024 205.158 93.4155 205.07 93.4457 204.988C93.4832 204.907 93.5448 204.842 93.6214 204.801C93.6979 204.76 93.7851 204.746 93.8699 204.761C94.1169 204.819 94.3451 204.943 94.532 205.12C94.807 205.35 95.0395 205.63 95.2179 205.947C95.2952 206.055 95.3481 206.179 95.3726 206.311C95.1131 205.915 94.7976 205.563 94.4369 205.265C94.2697 205.116 94.0694 205.012 93.8541 204.963C93.8075 204.955 93.7597 204.963 93.7177 204.985C93.6756 205.008 93.6415 205.043 93.6202 205.087C93.6044 205.142 93.5998 205.2 93.6066 205.257C93.6134 205.314 93.6315 205.369 93.6598 205.418C93.8038 205.679 94.0167 205.892 94.2733 206.03C94.5299 206.169 94.8193 206.228 95.1069 206.199C95.3902 206.162 95.653 206.025 95.8524 205.812C96.0518 205.599 96.1761 205.322 96.2052 205.025C96.2112 204.905 96.1761 204.786 96.106 204.691C96.0757 204.653 96.0344 204.627 95.9885 204.617C95.9427 204.606 95.8948 204.612 95.8523 204.633C95.6624 204.743 95.5101 204.912 95.4162 205.116C95.1938 205.539 95.0461 205.999 94.9801 206.476Z" fill="white"/>
<path d="M89.0625 169.626C91.9449 170.97 97.7651 170.929 100.243 168.614C97.3884 167.192 91.592 167.655 89.0625 169.626Z" fill="#FFBF9D"/>
<path d="M81.3438 94.1234C81.3438 94.1234 83.8058 91.0063 85.4314 89.9563C86.9546 89.055 88.5244 88.2422 90.1335 87.5214C90.1335 87.5214 94.3916 91.18 98.0313 90.0018C100.143 89.3565 102.05 88.1298 103.55 86.4507L111.694 87.4304C111.694 87.4304 113.038 106.819 112.487 109.212C111.936 111.606 111.797 121.867 111.797 121.867L86.1886 121.362L86.9618 100.424L81.3438 94.1234Z" fill="#FF7D1F"/>
<path d="M90.1543 97.2356L90.7014 125.132H109.455L109.435 97.186L90.1543 97.2356Z" fill="#E0E0E0"/>
<path d="M109.044 107.811C108.849 107.794 108.656 107.757 108.469 107.699L107.803 107.534C107.507 107.463 107.217 107.369 106.935 107.253C105.255 106.683 103.703 105.763 102.375 104.549L101.804 104.016C101.622 103.834 101.459 103.64 101.293 103.454C100.948 103.094 100.674 102.693 100.389 102.333C99.9179 101.67 99.5027 100.966 99.1479 100.229C98.9045 99.7342 98.699 99.22 98.5334 98.6913C98.4604 98.5018 98.4123 98.303 98.3906 98.1001C98.3906 98.1001 98.466 98.3027 98.6087 98.6665C98.8046 99.1768 99.0283 99.6751 99.2787 100.159C99.6463 100.882 100.069 101.573 100.543 102.226C100.825 102.577 101.099 102.974 101.439 103.325C101.606 103.503 101.769 103.693 101.947 103.871L102.51 104.396C103.823 105.583 105.341 106.499 106.982 107.096C107.259 107.219 107.544 107.323 107.835 107.406L108.489 107.604C108.679 107.656 108.865 107.725 109.044 107.811Z" fill="#263238"/>
<path d="M88.7051 104.07L89.1452 123.79H104.576L103.93 103.855L88.7051 104.07Z" fill="#455A64"/>
<path d="M90.3031 123.714C90.2853 123.652 90.2773 123.588 90.2793 123.524V122.97C90.2793 122.457 90.2436 121.771 90.2159 120.936C90.1525 119.191 90.0652 116.835 89.9661 114.235C89.867 111.635 89.7877 109.241 89.7758 107.525C89.7758 106.665 89.7758 105.967 89.7758 105.487C89.7758 105.268 89.7758 105.074 89.7758 104.933C89.77 104.87 89.77 104.806 89.7758 104.743C89.7936 104.805 89.8016 104.869 89.7996 104.933C89.7996 105.086 89.7996 105.268 89.7996 105.487C89.7996 106.004 89.8353 106.69 89.863 107.521C89.9265 109.27 90.0137 111.622 90.1128 114.227C90.2119 116.831 90.2912 119.216 90.3031 120.936C90.3031 121.796 90.3031 122.49 90.3031 122.97C90.3031 123.189 90.3031 123.383 90.3031 123.524C90.3114 123.587 90.3114 123.651 90.3031 123.714Z" fill="#263238"/>
<path d="M100.316 107.261H92.6836V109.927H100.316V107.261Z" fill="white"/>
<path d="M116.666 94.2803C116.829 94.2431 119.87 111.374 119.87 114.173C119.87 116.972 119.541 120.374 116.337 121.176C113.134 121.978 92.6836 120.114 92.6836 120.114L99.5465 115.475L103.606 115.112L113.36 113.582L111.532 99.4644C111.532 99.4644 114.68 94.7268 116.666 94.2803Z" fill="#FFBF9D"/>
<path d="M115.911 115.971C115.828 115.79 115.757 115.604 115.697 115.413C115.509 114.984 115.226 114.607 114.87 114.315C114.514 114.023 114.096 113.824 113.651 113.735C113.459 113.718 113.269 113.689 113.08 113.648C113.267 113.569 113.472 113.546 113.671 113.582C114.155 113.633 114.614 113.828 114.995 114.144C115.381 114.458 115.672 114.879 115.836 115.36C115.919 115.551 115.945 115.764 115.911 115.971Z" fill="#FF9A6C"/>
<path d="M110.018 87.2521C110.018 87.2521 112.9 87.2025 114.89 89.038C116.881 90.8735 117.606 95.5201 117.606 95.5201L111.31 100.262L110.018 87.2521Z" fill="#FF7D1F"/>
<path d="M79 99.3898L87.3021 102.135L85.4347 89.9561C85.4347 89.9561 79.8841 92.1347 79 99.3898Z" fill="#FF7D1F"/>
<path d="M85.0742 95.3311C85.2212 95.6496 85.3393 95.9818 85.4271 96.3232C85.6451 97.0136 85.9068 97.8321 86.1962 98.7375L86.9892 101.143C87.1175 101.47 87.2183 101.807 87.2905 102.152C87.1083 101.853 86.9606 101.532 86.8504 101.197C86.6086 100.594 86.2954 99.7503 85.9901 98.8077C85.6848 97.8652 85.435 96.9971 85.2764 96.3646C85.1727 96.0289 85.1049 95.6823 85.0742 95.3311Z" fill="#263238"/>
<path d="M108.229 87.0247L112.11 113.788L113.359 113.565L111.714 87.2521C111.714 87.2521 108.569 86.293 108.229 87.0247Z" fill="#455A64"/>
<path d="M105.802 108.716L87.5642 112.193L87.2272 101.982L79.6942 99.5757C79.2065 104.272 80.1422 119.08 82.0294 120.097C83.9166 121.114 89.3919 121.11 92.6787 120.097C95.9654 119.084 105.473 114.123 105.473 114.123L105.802 108.716Z" fill="#FFBF9D"/>
<path d="M103.607 109.539L105.804 108.712C106.302 107.882 106.87 107.099 107.501 106.372C108.294 105.546 112.952 103.557 112.952 103.557C112.952 103.557 114.114 103.702 113.238 104.839C112.79 105.451 112.255 105.987 111.652 106.43C111.652 106.43 112.909 106.546 113.147 106.902C113.384 107.257 113.214 108.497 113.111 108.886C113.351 109.561 113.351 110.303 113.111 110.978L113.079 111.3C113.079 111.3 113.214 112.077 112.365 112.892C112.365 112.892 112.702 113.619 111.818 113.929C110.934 114.239 105.396 114.136 105.396 114.136L103.607 109.539Z" fill="#FFBF9D"/>
<path d="M105.393 114.124C105.393 114.124 105.44 114.124 105.535 114.124H105.952H107.537C108.215 114.124 109.04 114.103 109.98 114.062C110.448 114.037 110.947 114.016 111.463 113.942C111.716 113.923 111.957 113.825 112.156 113.661C112.245 113.574 112.306 113.46 112.328 113.335C112.351 113.21 112.335 113.081 112.283 112.966L112.256 112.9L112.303 112.851C112.507 112.658 112.677 112.43 112.807 112.177C112.941 111.925 113.001 111.637 112.981 111.35V111.321C112.981 111.222 113.005 111.11 113.017 111.003V110.974C113.247 110.325 113.247 109.613 113.017 108.965V108.927V108.894C113.1 108.529 113.149 108.157 113.163 107.782C113.175 107.593 113.168 107.403 113.14 107.216C113.128 107.135 113.1 107.057 113.056 106.989C113.002 106.928 112.935 106.88 112.862 106.848C112.471 106.696 112.061 106.601 111.645 106.567L111.367 106.534L111.601 106.373C112.134 105.975 112.614 105.505 113.029 104.975C113.245 104.758 113.397 104.481 113.469 104.177C113.504 103.9 113.211 103.727 112.945 103.69H112.993C111.804 104.21 110.678 104.715 109.702 105.194C109.215 105.434 108.763 105.67 108.35 105.905C107.965 106.1 107.62 106.37 107.331 106.699C106.926 107.176 106.547 107.677 106.197 108.2L105.912 108.613C105.882 108.663 105.847 108.71 105.809 108.754C105.809 108.754 105.809 108.696 105.884 108.597C105.96 108.497 106.027 108.349 106.146 108.183C106.476 107.641 106.843 107.125 107.244 106.637C107.536 106.296 107.887 106.016 108.279 105.81C108.675 105.566 109.147 105.323 109.631 105.074C110.606 104.583 111.712 104.066 112.922 103.537H112.945H112.969C113.138 103.562 113.298 103.629 113.437 103.731C113.514 103.789 113.575 103.866 113.616 103.956C113.656 104.046 113.674 104.145 113.667 104.244C113.593 104.591 113.425 104.91 113.183 105.161C112.756 105.709 112.26 106.194 111.708 106.604L111.665 106.406C112.104 106.441 112.537 106.541 112.949 106.703C113.053 106.748 113.146 106.817 113.219 106.906C113.283 107.002 113.325 107.112 113.342 107.228C113.373 107.431 113.382 107.636 113.37 107.84C113.354 108.23 113.302 108.618 113.215 108.998V108.927C113.467 109.627 113.467 110.398 113.215 111.098V111.073C113.215 111.185 113.191 111.292 113.179 111.391V111.362C113.187 111.684 113.123 112.003 112.993 112.295C112.863 112.586 112.67 112.843 112.43 113.045L112.45 112.933C112.52 113.085 112.541 113.256 112.511 113.422C112.48 113.587 112.399 113.738 112.279 113.851C112.052 114.04 111.776 114.152 111.486 114.173C110.955 114.244 110.456 114.256 109.984 114.277C109.04 114.302 108.215 114.277 107.537 114.277C106.86 114.277 106.32 114.256 105.952 114.244H105.535C105.483 114.21 105.436 114.169 105.393 114.124Z" fill="#FF9A6C"/>
<path d="M85.7267 115.946C85.6526 115.741 85.6281 115.519 85.6554 115.301C85.6806 114.77 85.8155 114.251 86.0509 113.78C86.2863 113.308 86.6166 112.895 87.0192 112.569C87.3285 112.325 87.5545 112.234 87.5663 112.259C87.0101 112.686 86.5556 113.24 86.2379 113.88C85.9203 114.519 85.7481 115.226 85.7347 115.946H85.7267Z" fill="#FF9A6C"/>
<path d="M105.364 114.177C105.181 114.319 104.986 114.442 104.781 114.545C104.385 114.772 103.838 115.082 103.14 115.45C101.74 116.194 99.7737 117.149 97.5455 118.075C95.3173 119.001 93.2596 119.704 91.7531 120.167C90.9998 120.398 90.3892 120.58 89.961 120.684C89.7429 120.752 89.5202 120.803 89.2949 120.837C89.5032 120.738 89.7194 120.659 89.9412 120.601L91.7094 120.022C93.2002 119.522 95.2499 118.782 97.4702 117.873C99.6904 116.963 101.661 116.021 103.072 115.314L104.745 114.487C104.945 114.369 105.151 114.266 105.364 114.177Z" fill="#FF9A6C"/>
</svg>
