<svg width="33" height="32" viewBox="0 0 33 32" fill="none" xmlns="http://www.w3.org/2000/svg">
<path d="M32.002 16.0002C32.002 7.17739 24.8239 -3.13762e-07 16.0012 -6.99417e-07C7.17807 0.000637274 0.000358268 7.17835 0.000357882 16.0008C0.000357496 24.8229 7.17807 32 16.0012 32C24.8239 32 32.002 24.8226 32.002 16.0002ZM1.27708 16.0008C1.27708 7.88278 7.88186 1.27736 16.0012 1.27672C24.1201 1.27672 30.7252 7.8815 30.7252 16.0002C30.7252 24.1185 24.1201 30.7233 16.0012 30.7233C7.88186 30.7233 1.27708 24.1188 1.27708 16.0008ZM14.4314 20.6305L10.9919 16.6392L22.4033 16.6392C22.7556 16.6392 23.0416 16.3532 23.0416 16.0008C23.0416 15.6484 22.7556 15.3624 22.4033 15.3624L10.9919 15.3624L14.4314 11.3705C14.6616 11.1033 14.6316 10.6999 14.3644 10.4701C14.0972 10.2402 13.6938 10.2699 13.464 10.5371L8.75673 16.0008L13.464 21.4639C13.6944 21.731 14.0972 21.761 14.3644 21.5306C14.6316 21.3008 14.6616 20.8977 14.4314 20.6305Z" fill="#FF7D1F"/>
</svg>
