<svg width="20" height="20" viewBox="0 0 20 20" fill="none" xmlns="http://www.w3.org/2000/svg">
<path d="M0.428571 19.5714C0.714286 19.8571 1 20 1.42857 20C1.85714 20 2.14286 19.8571 2.42857 19.5714L10 12L17.5714 19.5714C17.8571 19.8571 18.2857 20 18.5714 20C18.8571 20 19.2857 19.8571 19.5714 19.5714C20.1429 19 20.1429 18.1429 19.5714 17.5714L12 10L19.5714 2.42857C20.1429 1.85714 20.1429 1 19.5714 0.428571C19 -0.142857 18.1429 -0.142857 17.5714 0.428571L10 8L2.42857 0.428571C1.85714 -0.142857 1 -0.142857 0.428571 0.428571C-0.142857 1 -0.142857 1.85714 0.428571 2.42857L8 10L0.428571 17.5714C-0.142857 18.1429 -0.142857 19 0.428571 19.5714Z" fill="#ff3300"/>
</svg>
