<svg width="504" height="128" viewBox="0 0 504 128" fill="none" xmlns="http://www.w3.org/2000/svg">
<path d="M68.7629 96L50.6962 74L65.5629 56H73.8963L59.2963 73.4667L77.8962 96H68.7629ZM42.6962 96V32H49.8962V96H42.6962ZM103.803 96.8C101.003 96.8 98.3807 96.1111 95.9362 94.7333C93.4918 93.3111 91.514 91.2667 90.0029 88.6C88.4918 85.9333 87.7362 82.7333 87.7362 79V56H94.9363V78C94.9363 81.1556 95.8696 83.9556 97.7363 86.4C99.6474 88.8 102.314 90 105.736 90C108.536 90 111.025 89 113.203 87C115.425 84.9556 116.536 82.0222 116.536 78.2V56H123.736V96H117.07V89.5333C115.603 91.8889 113.692 93.6889 111.336 94.9333C109.025 96.1778 106.514 96.8 103.803 96.8Z" fill="#FF7D1F"/>
<path d="M135.976 79.2V72.8H155.976V79.2H135.976ZM168.216 116V56H174.883V61.2667C176.705 59.4444 178.816 58.0222 181.216 57C183.616 55.9778 186.194 55.4667 188.95 55.4667C192.638 55.4667 195.972 56.4 198.95 58.2667C201.972 60.0889 204.372 62.5556 206.15 65.6667C207.972 68.7778 208.883 72.2222 208.883 76C208.883 79.7778 207.972 83.2222 206.15 86.3333C204.372 89.4444 201.972 91.9333 198.95 93.8C195.972 95.6222 192.638 96.5333 188.95 96.5333C186.327 96.5333 183.861 96.0667 181.55 95.1333C179.238 94.2 177.194 92.9111 175.416 91.2667V116H168.216ZM188.016 90C190.55 90 192.838 89.3778 194.883 88.1333C196.972 86.8444 198.616 85.1556 199.816 83.0667C201.061 80.9333 201.683 78.5778 201.683 76C201.683 73.4222 201.061 71.0889 199.816 69C198.616 66.8667 196.972 65.1778 194.883 63.9333C192.838 62.6444 190.55 62 188.016 62C185.483 62 183.172 62.6444 181.083 63.9333C179.038 65.1778 177.394 66.8667 176.15 69C174.95 71.0889 174.35 73.4222 174.35 76C174.35 78.5778 174.95 80.9333 176.15 83.0667C177.394 85.1556 179.038 86.8444 181.083 88.1333C183.172 89.3778 185.483 90 188.016 90ZM240.948 96.8C237.081 96.8 233.548 95.8667 230.348 94C227.148 92.1333 224.592 89.6222 222.681 86.4667C220.815 83.3111 219.881 79.8222 219.881 76C219.881 72.1333 220.815 68.6444 222.681 65.5333C224.592 62.3778 227.148 59.8667 230.348 58C233.548 56.1333 237.081 55.2 240.948 55.2C244.859 55.2 248.392 56.1333 251.548 58C254.748 59.8667 257.281 62.3778 259.148 65.5333C261.059 68.6444 262.015 72.1333 262.015 76C262.015 79.8222 261.059 83.3111 259.148 86.4667C257.281 89.6222 254.748 92.1333 251.548 94C248.392 95.8667 244.859 96.8 240.948 96.8ZM240.948 90C243.526 90 245.859 89.3778 247.948 88.1333C250.037 86.8444 251.703 85.1556 252.948 83.0667C254.192 80.9333 254.815 78.5778 254.815 76C254.815 73.4222 254.192 71.0889 252.948 69C251.703 66.8667 250.037 65.1778 247.948 63.9333C245.859 62.6444 243.526 62 240.948 62C238.37 62 236.037 62.6444 233.948 63.9333C231.859 65.1778 230.192 66.8667 228.948 69C227.703 71.0889 227.081 73.4222 227.081 76C227.081 78.5778 227.703 80.9333 228.948 83.0667C230.192 85.1556 231.859 86.8444 233.948 88.1333C236.037 89.3778 238.37 90 240.948 90ZM275.834 96V56H282.5V61.7333C283.967 59.5556 285.812 57.9333 288.034 56.8667C290.3 55.7556 292.678 55.2 295.167 55.2C297.878 55.2 300.367 55.8444 302.634 57.1333C304.9 58.3778 306.723 60.1333 308.1 62.4C309.656 60 311.656 58.2 314.1 57C316.589 55.8 319.212 55.2 321.967 55.2C324.989 55.2 327.745 55.9111 330.234 57.3333C332.767 58.7556 334.767 60.7556 336.234 63.3333C337.745 65.8667 338.5 68.8667 338.5 72.3333V96H331.3V73.2C331.3 69.5556 330.256 66.8 328.167 64.9333C326.123 63.0222 323.745 62.0667 321.034 62.0667C319.345 62.0667 317.7 62.4444 316.1 63.2C314.545 63.9556 313.256 65.1333 312.234 66.7333C311.256 68.3333 310.767 70.4222 310.767 73V96H303.567V73.2C303.567 70.6667 303.056 68.5778 302.034 66.9333C301.056 65.2889 299.767 64.0667 298.167 63.2667C296.612 62.4222 294.989 62 293.3 62C291.656 62 290.034 62.3778 288.434 63.1333C286.878 63.8889 285.589 65.0667 284.567 66.6667C283.545 68.2667 283.034 70.3778 283.034 73V96H275.834ZM372.565 96.8C368.699 96.8 365.165 95.8667 361.965 94C358.765 92.1333 356.21 89.6222 354.299 86.4667C352.432 83.3111 351.499 79.8222 351.499 76C351.499 72.1333 352.432 68.6444 354.299 65.5333C356.21 62.3778 358.765 59.8667 361.965 58C365.165 56.1333 368.699 55.2 372.565 55.2C376.477 55.2 380.01 56.1333 383.165 58C386.365 59.8667 388.899 62.3778 390.765 65.5333C392.677 68.6444 393.632 72.1333 393.632 76C393.632 79.8222 392.677 83.3111 390.765 86.4667C388.899 89.6222 386.365 92.1333 383.165 94C380.01 95.8667 376.477 96.8 372.565 96.8ZM372.565 90C375.143 90 377.477 89.3778 379.565 88.1333C381.654 86.8444 383.321 85.1556 384.565 83.0667C385.81 80.9333 386.432 78.5778 386.432 76C386.432 73.4222 385.81 71.0889 384.565 69C383.321 66.8667 381.654 65.1778 379.565 63.9333C377.477 62.6444 375.143 62 372.565 62C369.988 62 367.654 62.6444 365.565 63.9333C363.477 65.1778 361.81 66.8667 360.565 69C359.321 71.0889 358.699 73.4222 358.699 76C358.699 78.5778 359.321 80.9333 360.565 83.0667C361.81 85.1556 363.477 86.8444 365.565 88.1333C367.654 89.3778 369.988 90 372.565 90ZM423.651 116.8C420.585 116.8 417.785 116.356 415.251 115.467C412.762 114.578 410.54 113.356 408.585 111.8L410.585 103.667C411.918 105.578 413.696 107.133 415.918 108.333C418.14 109.533 420.696 110.133 423.585 110.133C428.073 110.133 431.696 108.778 434.451 106.067C437.251 103.356 438.651 99.8667 438.651 95.6V90.7333C436.873 92.5111 434.762 93.9333 432.318 95C429.918 96.0222 427.34 96.5333 424.585 96.5333C420.94 96.5333 417.607 95.6222 414.585 93.8C411.562 91.9333 409.14 89.4444 407.318 86.3333C405.54 83.2222 404.651 79.7778 404.651 76C404.651 72.2222 405.54 68.7778 407.318 65.6667C409.14 62.5556 411.562 60.0889 414.585 58.2667C417.607 56.4 420.94 55.4667 424.585 55.4667C427.34 55.4667 429.918 55.9778 432.318 57C434.762 58.0222 436.873 59.4444 438.651 61.2667V56H445.318V96C445.318 100.356 444.296 104.089 442.251 107.2C440.251 110.311 437.607 112.689 434.318 114.333C431.029 115.978 427.473 116.8 423.651 116.8ZM425.518 90C428.051 90 430.34 89.3778 432.385 88.1333C434.473 86.8444 436.118 85.1556 437.318 83.0667C438.562 80.9333 439.185 78.5778 439.185 76C439.185 73.4222 438.562 71.0889 437.318 69C436.118 66.8667 434.473 65.1778 432.385 63.9333C430.34 62.6444 428.051 62 425.518 62C422.985 62 420.673 62.6444 418.585 63.9333C416.54 65.1778 414.896 66.8667 413.651 69C412.451 71.0889 411.851 73.4222 411.851 76C411.851 78.5778 412.451 80.9333 413.651 83.0667C414.896 85.1556 416.54 86.8444 418.585 88.1333C420.673 89.3778 422.985 90 425.518 90ZM477.183 96.8C474.383 96.8 471.761 96.1111 469.316 94.7333C466.872 93.3111 464.894 91.2667 463.383 88.6C461.872 85.9333 461.116 82.7333 461.116 79V56H468.316V78C468.316 81.1556 469.25 83.9556 471.116 86.4C473.027 88.8 475.694 90 479.116 90C481.916 90 484.405 89 486.583 87C488.805 84.9556 489.916 82.0222 489.916 78.2V56H497.116V96H490.45V89.5333C488.983 91.8889 487.072 93.6889 484.716 94.9333C482.405 96.1778 479.894 96.8 477.183 96.8Z" fill="#363636"/>
<path d="M26.7129 82.6906L26.7129 44.8254C26.7129 37.4742 20.7545 31.5159 13.4033 31.5159C6.0521 31.5159 0.0937493 37.4742 0.093749 44.8254L0.0937473 82.6906C0.093747 90.0419 6.0521 96.0002 13.4033 96.0002C20.7545 96.0002 26.7129 90.0161 26.7129 82.6906ZM1.87351 45.0318C1.87351 38.6865 7.03227 33.502 13.4033 33.502C19.7486 33.502 24.9331 38.6607 24.9331 45.0318C24.9331 51.4028 19.7744 56.5616 13.4033 56.5616C7.05806 56.5616 1.87351 51.4028 1.87351 45.0318Z" fill="#FF7D1F"/>
</svg>
