<svg width="360" height="71" viewBox="0 0 360 71" fill="none" xmlns="http://www.w3.org/2000/svg">
<path d="M0 69.9376V24.1602H5.65859V45.6502L25.6862 24.1602H32.8071L12.0166 46.3813L34.4284 69.9376H27.1167L5.65859 47.5576V69.9376H0Z" fill="#FF7D1F"/>
<path d="M46.0207 69.9376L51.4886 58.5886L43.4299 41.3744L35.3712 24.1602H41.6973L48.0712 38.3544L54.4451 52.5486L67.4789 24.1602H73.519L52.1562 69.9376H46.0207Z" fill="#FF7D1F"/>
<path d="M70.9301 69.9376V63.7068H77.1609V69.9376H70.9301Z" fill="#FF7D1F"/>
<path d="M99.7779 69.9376V24.1602H135.51V69.9376H129.851V29.5327H105.436V69.9376H99.7779Z" fill="#131313"/>
<path d="M163.24 70.8913C158.683 70.8913 154.815 69.8846 151.637 67.8713C148.458 65.8579 146.031 63.0604 144.357 59.4787C142.704 55.8971 141.877 51.7538 141.877 47.0489C141.877 42.344 142.704 38.2007 144.357 34.6191C146.031 31.0374 148.458 28.2399 151.637 26.2266C154.815 24.2132 158.683 23.2065 163.24 23.2065C167.818 23.2065 171.696 24.2132 174.875 26.2266C178.054 28.2399 180.47 31.0374 182.123 34.6191C183.776 38.2007 184.603 42.344 184.603 47.0489C184.603 51.7538 183.776 55.8971 182.123 59.4787C180.47 63.0604 178.054 65.8579 174.875 67.8713C171.696 69.8846 167.818 70.8913 163.24 70.8913ZM163.24 65.487C166.652 65.5082 169.492 64.7453 171.759 63.1981C174.048 61.6298 175.754 59.4575 176.878 56.6812C178.022 53.9049 178.594 50.6942 178.594 47.0489C178.594 43.3825 178.022 40.1717 176.878 37.4166C175.754 34.6615 174.048 32.5104 171.759 30.9633C169.492 29.4162 166.652 28.632 163.24 28.6108C159.828 28.5896 156.988 29.3526 154.72 30.8997C152.474 32.4468 150.778 34.6085 149.634 37.3848C148.489 40.1611 147.906 43.3825 147.885 47.0489C147.864 50.6942 148.426 53.8943 149.57 56.6494C150.715 59.4046 152.421 61.5663 154.688 63.1346C156.977 64.6817 159.828 65.4658 163.24 65.487Z" fill="#131313"/>
<path d="M190.987 69.9376V24.1602H196.137L213.431 60.6232L230.629 24.1602H235.843V69.9058H230.47V36.5901L214.925 69.9376H211.905L196.36 36.5901V69.9376H190.987Z" fill="#131313"/>
<path d="M263.576 70.8913C259.02 70.8913 255.152 69.8846 251.973 67.8713C248.794 65.8579 246.368 63.0604 244.693 59.4787C243.04 55.8971 242.214 51.7538 242.214 47.0489C242.214 42.344 243.04 38.2007 244.693 34.6191C246.368 31.0374 248.794 28.2399 251.973 26.2266C255.152 24.2132 259.02 23.2065 263.576 23.2065C268.154 23.2065 272.033 24.2132 275.212 26.2266C278.391 28.2399 280.807 31.0374 282.46 34.6191C284.113 38.2007 284.939 42.344 284.939 47.0489C284.939 51.7538 284.113 55.8971 282.46 59.4787C280.807 63.0604 278.391 65.8579 275.212 67.8713C272.033 69.8846 268.154 70.8913 263.576 70.8913ZM263.576 65.487C266.989 65.5082 269.828 64.7453 272.096 63.1981C274.385 61.6298 276.091 59.4575 277.214 56.6812C278.359 53.9049 278.931 50.6942 278.931 47.0489C278.931 43.3825 278.359 40.1717 277.214 37.4166C276.091 34.6615 274.385 32.5104 272.096 30.9633C269.828 29.4162 266.989 28.632 263.576 28.6108C260.164 28.5896 257.324 29.3526 255.057 30.8997C252.81 32.4468 251.115 34.6085 249.97 37.3848C248.826 40.1611 248.243 43.3825 248.222 47.0489C248.201 50.6942 248.762 53.8943 249.907 56.6494C251.051 59.4046 252.757 61.5663 255.025 63.1346C257.314 64.6817 260.164 65.4658 263.576 65.487Z" fill="#131313"/>
<path d="M291.324 69.9376V24.1602H320.253V29.5327H296.983V69.9376H291.324Z" fill="#131313"/>
<path d="M332.502 69.9376L337.97 58.5886L321.852 24.1602H328.178L340.926 52.5486L353.96 24.1602H360L338.637 69.9376H332.502Z" fill="#131313"/>
<rect x="63.1094" width="4.18624" height="12.4122" transform="rotate(24.7525 63.1094 0)" fill="#FF7D1F"/>
</svg>
