<svg width="465" height="80" viewBox="0 0 465 80" fill="none" xmlns="http://www.w3.org/2000/svg">
<path d="M61.9289 66V24H66.7289V43.8L84.4289 24H90.4289L71.8289 44.7L91.6289 66H85.6289L66.7289 45.6V66H61.9289ZM97.6406 66V61.5H103.341C104.261 61.5 104.961 61.36 105.441 61.08C105.921 60.76 106.321 60.2 106.641 59.4L107.841 56.7L92.2406 24H97.3406L109.641 50.1H110.841L122.541 24H127.641L110.541 61.8C109.221 64.6 106.921 66 103.641 66H97.6406ZM127.057 66V60.6H132.457V66H127.057Z" fill="#FF7D1F"/>
<path d="M154.683 66V24H187.683V66H182.883V28.5H159.483V66H154.683ZM229.86 60.54C225.98 64.58 221.22 66.6 215.58 66.6C209.94 66.6 205.18 64.58 201.3 60.54C197.42 56.5 195.48 51.32 195.48 45C195.48 38.68 197.42 33.5 201.3 29.46C205.18 25.42 209.94 23.4 215.58 23.4C221.22 23.4 225.98 25.42 229.86 29.46C233.74 33.5 235.68 38.68 235.68 45C235.68 51.32 233.74 56.5 229.86 60.54ZM204.72 57.36C207.68 60.52 211.3 62.1 215.58 62.1C219.86 62.1 223.48 60.52 226.44 57.36C229.4 54.16 230.88 50.04 230.88 45C230.88 39.96 229.4 35.86 226.44 32.7C223.48 29.5 219.86 27.9 215.58 27.9C211.3 27.9 207.68 29.5 204.72 32.7C201.76 35.86 200.28 39.96 200.28 45C200.28 50.04 201.76 54.16 204.72 57.36ZM243.452 66V24H252.152L265.052 60.6H266.252L279.152 24H287.852V66H283.052V30.3H281.852L269.252 66H262.052L249.452 30.3H248.252V66H243.452ZM330.056 60.54C326.176 64.58 321.416 66.6 315.776 66.6C310.136 66.6 305.376 64.58 301.496 60.54C297.616 56.5 295.676 51.32 295.676 45C295.676 38.68 297.616 33.5 301.496 29.46C305.376 25.42 310.136 23.4 315.776 23.4C321.416 23.4 326.176 25.42 330.056 29.46C333.936 33.5 335.876 38.68 335.876 45C335.876 51.32 333.936 56.5 330.056 60.54ZM304.916 57.36C307.876 60.52 311.496 62.1 315.776 62.1C320.056 62.1 323.676 60.52 326.636 57.36C329.596 54.16 331.076 50.04 331.076 45C331.076 39.96 329.596 35.86 326.636 32.7C323.676 29.5 320.056 27.9 315.776 27.9C311.496 27.9 307.876 29.5 304.916 32.7C301.956 35.86 300.476 39.96 300.476 45C300.476 50.04 301.956 54.16 304.916 57.36ZM343.648 66V24H370.048V28.5H348.448V66H343.648ZM377.25 66V61.5H382.95C383.87 61.5 384.57 61.36 385.05 61.08C385.53 60.76 385.93 60.2 386.25 59.4L387.45 56.7L371.85 24H376.95L389.25 50.1H390.45L402.15 24H407.25L390.15 61.8C388.83 64.6 386.53 66 383.25 66H377.25Z" fill="#131313"/>
<rect x="114.906" width="3.95055" height="11.7133" transform="rotate(24.7525 114.906 0)" fill="#FF7D1F"/>
</svg>
