<svg width="347" height="44" viewBox="0 0 347 44" fill="none" xmlns="http://www.w3.org/2000/svg">
<path d="M0.928907 43V0.999997H5.72891V20.8L23.4289 0.999997H29.4289L10.8289 21.7L30.6289 43H24.6289L5.72891 22.6V43H0.928907ZM36.6406 43V38.5H42.3406C43.2606 38.5 43.9606 38.36 44.4406 38.08C44.9206 37.76 45.3206 37.2 45.6406 36.4L46.8406 33.7L31.2406 0.999997H36.3406L48.6406 27.1H49.8406L61.5406 0.999997H66.6406L49.5406 38.8C48.2206 41.6 45.9206 43 42.6406 43H36.6406ZM66.057 43V37.6H71.457V43H66.057Z" fill="#FF674D"/>
<path d="M93.6828 43V0.999997H126.683V43H121.883V5.5H98.4828V43H93.6828ZM168.86 37.54C164.98 41.58 160.22 43.6 154.58 43.6C148.94 43.6 144.18 41.58 140.3 37.54C136.42 33.5 134.48 28.32 134.48 22C134.48 15.68 136.42 10.5 140.3 6.46C144.18 2.42 148.94 0.399998 154.58 0.399998C160.22 0.399998 164.98 2.42 168.86 6.46C172.74 10.5 174.68 15.68 174.68 22C174.68 28.32 172.74 33.5 168.86 37.54ZM143.72 34.36C146.68 37.52 150.3 39.1 154.58 39.1C158.86 39.1 162.48 37.52 165.44 34.36C168.4 31.16 169.88 27.04 169.88 22C169.88 16.96 168.4 12.86 165.44 9.7C162.48 6.5 158.86 4.9 154.58 4.9C150.3 4.9 146.68 6.5 143.72 9.7C140.76 12.86 139.28 16.96 139.28 22C139.28 27.04 140.76 31.16 143.72 34.36ZM182.452 43V0.999997H191.152L204.052 37.6H205.252L218.152 0.999997H226.852V43H222.052V7.3H220.852L208.252 43H201.052L188.452 7.3H187.252V43H182.452ZM269.056 37.54C265.176 41.58 260.416 43.6 254.776 43.6C249.136 43.6 244.376 41.58 240.496 37.54C236.616 33.5 234.676 28.32 234.676 22C234.676 15.68 236.616 10.5 240.496 6.46C244.376 2.42 249.136 0.399998 254.776 0.399998C260.416 0.399998 265.176 2.42 269.056 6.46C272.936 10.5 274.876 15.68 274.876 22C274.876 28.32 272.936 33.5 269.056 37.54ZM243.916 34.36C246.876 37.52 250.496 39.1 254.776 39.1C259.056 39.1 262.676 37.52 265.636 34.36C268.596 31.16 270.076 27.04 270.076 22C270.076 16.96 268.596 12.86 265.636 9.7C262.676 6.5 259.056 4.9 254.776 4.9C250.496 4.9 246.876 6.5 243.916 9.7C240.956 12.86 239.476 16.96 239.476 22C239.476 27.04 240.956 31.16 243.916 34.36ZM282.648 43V0.999997H309.048V5.5H287.448V43H282.648ZM316.25 43V38.5H321.95C322.87 38.5 323.57 38.36 324.05 38.08C324.53 37.76 324.93 37.2 325.25 36.4L326.45 33.7L310.85 0.999997H315.95L328.25 27.1H329.45L341.15 0.999997H346.25L329.15 38.8C327.83 41.6 325.53 43 322.25 43H316.25Z" fill="#131313"/>
</svg>
