<svg width="216" height="90" viewBox="0 0 216 90" fill="none" xmlns="http://www.w3.org/2000/svg">
<path d="M90 48.0325V33.8472H93.8143V44.9117L92.7959 44.0984L100.665 33.8472H104.72L93.4625 48.0325H90ZM96.6288 41.2614L99.4432 38.8782L104.905 48.0325H100.554L96.6288 41.2614Z" fill="#131313"/>
<path d="M108.664 51.4559C107.886 51.4559 107.195 51.355 106.59 51.1533C105.985 50.9641 105.399 50.6678 104.831 50.2643V47.5786C105.411 47.9569 105.954 48.228 106.461 48.3919C106.967 48.5558 107.522 48.6378 108.127 48.6378C108.633 48.6378 109.084 48.5243 109.479 48.2973C109.874 48.0703 110.195 47.6542 110.441 47.049L114.497 37.2327H118.514L113.441 48.2406C113.083 49.0349 112.645 49.6654 112.126 50.1319C111.62 50.6111 111.071 50.9515 110.479 51.1533C109.886 51.355 109.281 51.4559 108.664 51.4559ZM108.794 47.0301L104.294 37.2327H108.46L112.441 47.0301H108.794Z" fill="#131313"/>
<path d="M119.123 39.8996H123.993V42.9447H119.123V39.8996Z" fill="#131313"/>
<path d="M140.993 33.8472V48.0325H137.16V35.5494L138.882 37.3273H128.402L130.124 35.5494V48.0325H126.291V33.8472H140.993Z" fill="#131313"/>
<path d="M149.433 48.3351C148.075 48.3351 146.89 48.1019 145.878 47.6353C144.865 47.1562 144.075 46.4879 143.508 45.6305C142.94 44.7604 142.656 43.7643 142.656 42.6421C142.656 41.4946 142.94 40.4922 143.508 39.6348C144.075 38.7774 144.865 38.1091 145.878 37.6299C146.89 37.1508 148.075 36.9112 149.433 36.9112C150.778 36.9112 151.957 37.1508 152.969 37.6299C153.994 38.1091 154.79 38.7774 155.358 39.6348C155.926 40.4922 156.21 41.4946 156.21 42.6421C156.21 43.7643 155.926 44.7604 155.358 45.6305C154.79 46.4879 153.994 47.1562 152.969 47.6353C151.957 48.1019 150.778 48.3351 149.433 48.3351ZM149.433 45.4792C150.05 45.4792 150.575 45.3657 151.007 45.1387C151.451 44.9117 151.79 44.5839 152.025 44.1552C152.26 43.7265 152.377 43.2221 152.377 42.6421C152.377 42.0368 152.26 41.5262 152.025 41.1101C151.79 40.6814 151.451 40.3535 151.007 40.1265C150.575 39.8996 150.05 39.7861 149.433 39.7861C148.816 39.7861 148.285 39.8996 147.84 40.1265C147.396 40.3535 147.057 40.6814 146.822 41.1101C146.587 41.5262 146.47 42.0305 146.47 42.6232C146.47 43.2158 146.587 43.7265 146.822 44.1552C147.057 44.5839 147.396 44.9117 147.84 45.1387C148.285 45.3657 148.816 45.4792 149.433 45.4792Z" fill="#131313"/>
<path d="M157.802 48.0325V37.2327H163.486L166.764 45.9331H165.708L168.93 37.2327H174.615V48.0325H171.078V38.6891H171.689L167.949 48.0325H164.486L160.746 38.7269L161.357 38.6891V48.0325H157.802Z" fill="#131313"/>
<path d="M183.011 48.3351C181.653 48.3351 180.468 48.1019 179.456 47.6353C178.444 47.1562 177.654 46.4879 177.086 45.6305C176.518 44.7604 176.234 43.7643 176.234 42.6421C176.234 41.4946 176.518 40.4922 177.086 39.6348C177.654 38.7774 178.444 38.1091 179.456 37.6299C180.468 37.1508 181.653 36.9112 183.011 36.9112C184.357 36.9112 185.536 37.1508 186.548 37.6299C187.572 38.1091 188.369 38.7774 188.936 39.6348C189.504 40.4922 189.788 41.4946 189.788 42.6421C189.788 43.7643 189.504 44.7604 188.936 45.6305C188.369 46.4879 187.572 47.1562 186.548 47.6353C185.536 48.1019 184.357 48.3351 183.011 48.3351ZM183.011 45.4792C183.628 45.4792 184.153 45.3657 184.585 45.1387C185.03 44.9117 185.369 44.5839 185.604 44.1552C185.838 43.7265 185.955 43.2221 185.955 42.6421C185.955 42.0368 185.838 41.5262 185.604 41.1101C185.369 40.6814 185.03 40.3535 184.585 40.1265C184.153 39.8996 183.628 39.7861 183.011 39.7861C182.394 39.7861 181.863 39.8996 181.419 40.1265C180.974 40.3535 180.635 40.6814 180.4 41.1101C180.166 41.5262 180.049 42.0305 180.049 42.6232C180.049 43.2158 180.166 43.7265 180.4 44.1552C180.635 44.5839 180.974 44.9117 181.419 45.1387C181.863 45.3657 182.394 45.4792 183.011 45.4792Z" fill="#131313"/>
<path d="M200.601 37.2327V40.1455H193.436L195.176 38.3676V48.0325H191.38V37.2327H200.601Z" fill="#131313"/>
<path d="M205.367 51.4559C204.589 51.4559 203.898 51.355 203.293 51.1533C202.688 50.9641 202.102 50.6678 201.534 50.2643V47.5786C202.114 47.9569 202.658 48.228 203.164 48.3919C203.67 48.5558 204.225 48.6378 204.83 48.6378C205.336 48.6378 205.787 48.5243 206.182 48.2973C206.577 48.0703 206.898 47.6542 207.145 47.049L211.2 37.2327H215.218L210.144 48.2406C209.786 49.0349 209.348 49.6654 208.83 50.1319C208.324 50.6111 207.774 50.9515 207.182 51.1533C206.589 51.355 205.984 51.4559 205.367 51.4559ZM205.497 47.0301L200.997 37.2327H205.163L209.144 47.0301H205.497Z" fill="#131313"/>
<path d="M93.117 62.9157C92.4966 62.9157 91.9515 62.797 91.4817 62.5595C91.0179 62.3157 90.6535 61.9788 90.3885 61.5488C90.1295 61.1189 90 60.6216 90 60.0569C90 59.4857 90.1295 58.9884 90.3885 58.5649C90.6535 58.1349 91.0179 57.8012 91.4817 57.5638C91.9515 57.3199 92.4966 57.198 93.117 57.198C93.7374 57.198 94.2795 57.3199 94.7433 57.5638C95.2131 57.8012 95.5775 58.1349 95.8365 58.5649C96.1015 58.9884 96.234 59.4857 96.234 60.0569C96.234 60.6216 96.1015 61.1189 95.8365 61.5488C95.5775 61.9788 95.2131 62.3157 94.7433 62.5595C94.2795 62.797 93.7374 62.9157 93.117 62.9157ZM93.117 61.9339C93.5145 61.9339 93.8548 61.8569 94.1379 61.7028C94.427 61.5488 94.6499 61.3339 94.8065 61.0579C94.9631 60.7756 95.0414 60.4419 95.0414 60.0569C95.0414 59.6718 94.9631 59.3413 94.8065 59.0654C94.6499 58.7831 94.427 58.5649 94.1379 58.4109C93.8548 58.2568 93.5145 58.1798 93.117 58.1798C92.7255 58.1798 92.3852 58.2568 92.0961 58.4109C91.807 58.5649 91.5841 58.7831 91.4275 59.0654C91.2709 59.3413 91.1926 59.6718 91.1926 60.0569C91.1926 60.4419 91.2709 60.7756 91.4275 61.0579C91.5841 61.3339 91.807 61.5488 92.0961 61.7028C92.3852 61.8569 92.7255 61.9339 93.117 61.9339Z" fill="#FF7D1F"/>
<path d="M101.715 64.3692V61.1349L101.824 60.6921V59.3638L101.715 58.9114V55.3691H102.872V58.921L102.763 59.3638V60.6825L102.872 61.1349V64.3692H101.715ZM102.42 60.0569C102.534 59.4793 102.718 58.9788 102.971 58.5552C103.224 58.1253 103.537 57.7916 103.911 57.5542C104.29 57.3167 104.715 57.198 105.185 57.198C105.678 57.198 106.112 57.3199 106.486 57.5638C106.859 57.8012 107.151 58.1349 107.362 58.5649C107.573 58.9884 107.678 59.4857 107.678 60.0569C107.678 60.6216 107.573 61.1189 107.362 61.5488C107.151 61.9788 106.859 62.3157 106.486 62.5595C106.112 62.797 105.678 62.9157 105.185 62.9157C104.715 62.9157 104.29 62.797 103.911 62.5595C103.537 62.3221 103.224 61.9884 102.971 61.5585C102.718 61.1285 102.534 60.628 102.42 60.0569ZM106.486 60.0569C106.486 59.6911 106.416 59.3702 106.278 59.0943C106.145 58.8119 105.961 58.5937 105.727 58.4397C105.492 58.2793 105.218 58.1991 104.904 58.1991C104.429 58.1991 104.01 58.3724 103.649 58.7189C103.287 59.059 103.01 59.505 102.817 60.0569C103.01 60.6023 103.287 61.0515 103.649 61.4044C104.01 61.751 104.429 61.9242 104.904 61.9242C105.218 61.9242 105.492 61.844 105.727 61.6836C105.961 61.5232 106.145 61.305 106.278 61.029C106.416 60.7467 106.486 60.4226 106.486 60.0569ZM102.167 60.0569C102.058 60.628 101.875 61.1285 101.616 61.5585C101.363 61.9884 101.05 62.3221 100.676 62.5595C100.303 62.797 99.8811 62.9157 99.4113 62.9157C98.9174 62.9157 98.4837 62.797 98.1103 62.5595C97.7368 62.3157 97.4447 61.9788 97.2339 61.5488C97.0231 61.1189 96.9177 60.6216 96.9177 60.0569C96.9177 59.4857 97.0231 58.9884 97.2339 58.5649C97.4447 58.1349 97.7368 57.8012 98.1103 57.5638C98.4837 57.3199 98.9174 57.198 99.4113 57.198C99.8811 57.198 100.303 57.3167 100.676 57.5542C101.05 57.7916 101.363 58.1253 101.616 58.5552C101.875 58.9788 102.058 59.4793 102.167 60.0569ZM98.1103 60.0569C98.1103 60.4226 98.1765 60.7467 98.309 61.029C98.4415 61.305 98.6253 61.5232 98.8602 61.6836C99.1011 61.844 99.3751 61.9242 99.6823 61.9242C100.164 61.9242 100.583 61.751 100.938 61.4044C101.3 61.0515 101.58 60.6023 101.778 60.0569C101.58 59.505 101.3 59.059 100.938 58.7189C100.583 58.3724 100.164 58.1991 99.6823 58.1991C99.3751 58.1991 99.1011 58.2793 98.8602 58.4397C98.6253 58.5937 98.4415 58.8119 98.309 59.0943C98.1765 59.3702 98.1103 59.6911 98.1103 60.0569Z" fill="#FF7D1F"/>
<path d="M108.65 62.7809V57.3328H109.806V62.1553L109.454 62.0686L112.95 57.3328H114.468V62.7809H113.312V57.8911L113.673 57.9873L110.132 62.7809H108.65Z" fill="#FF7D1F"/>
<path d="M121.364 60.6344C121.304 61.0836 121.138 61.4815 120.867 61.828C120.596 62.1681 120.25 62.4344 119.828 62.6269C119.406 62.8194 118.936 62.9157 118.418 62.9157C117.828 62.9157 117.307 62.797 116.855 62.5595C116.41 62.3157 116.06 61.9788 115.807 61.5488C115.554 61.1189 115.428 60.6216 115.428 60.0569C115.428 59.4921 115.554 58.9948 115.807 58.5649C116.06 58.1349 116.41 57.8012 116.855 57.5638C117.307 57.3199 117.828 57.198 118.418 57.198C118.936 57.198 119.406 57.2943 119.828 57.4868C120.25 57.6793 120.596 57.9488 120.867 58.2954C121.138 58.6355 121.304 59.0333 121.364 59.4889H120.18C120.096 59.0782 119.894 58.7574 119.575 58.5264C119.256 58.2954 118.87 58.1798 118.418 58.1798C118.057 58.1798 117.741 58.2568 117.47 58.4109C117.199 58.5585 116.988 58.7734 116.837 59.0558C116.693 59.3317 116.621 59.6654 116.621 60.0569C116.621 60.4419 116.693 60.7756 116.837 61.0579C116.988 61.3403 117.199 61.5585 117.47 61.7125C117.741 61.8601 118.057 61.9339 118.418 61.9339C118.876 61.9339 119.265 61.8151 119.584 61.5777C119.903 61.3403 120.102 61.0258 120.18 60.6344H121.364Z" fill="#FF7D1F"/>
<path d="M122.255 57.3328H123.42V62.7809H122.255V57.3328ZM126.601 57.3328H127.766V62.7809H126.601V57.3328ZM122.914 59.5371H127.089V60.4996H122.914V59.5371Z" fill="#FF7D1F"/>
<path d="M133.784 62.7809L133.585 60.7595L133.82 60.0569L133.585 59.3638L133.784 57.3328H134.994L134.723 60.0569L134.994 62.7809H133.784ZM134.145 60.0569C134.031 60.628 133.841 61.1285 133.576 61.5585C133.311 61.9884 132.983 62.3221 132.591 62.5595C132.206 62.797 131.775 62.9157 131.299 62.9157C130.799 62.9157 130.357 62.797 129.971 62.5595C129.586 62.3157 129.284 61.9788 129.068 61.5488C128.851 61.1189 128.742 60.6216 128.742 60.0569C128.742 59.4857 128.851 58.9884 129.068 58.5649C129.284 58.1349 129.586 57.8012 129.971 57.5638C130.357 57.3199 130.799 57.198 131.299 57.198C131.775 57.198 132.206 57.3167 132.591 57.5542C132.983 57.7916 133.311 58.1253 133.576 58.5552C133.847 58.9788 134.037 59.4793 134.145 60.0569ZM129.935 60.0569C129.935 60.4226 130.004 60.7467 130.143 61.029C130.287 61.305 130.483 61.5232 130.73 61.6836C130.977 61.8376 131.26 61.9146 131.579 61.9146C131.905 61.9146 132.206 61.8376 132.483 61.6836C132.76 61.5232 133.004 61.305 133.215 61.029C133.431 60.7467 133.603 60.4226 133.73 60.0569C133.603 59.6911 133.431 59.3702 133.215 59.0943C133.004 58.8119 132.76 58.5937 132.483 58.4397C132.206 58.2793 131.905 58.1991 131.579 58.1991C131.26 58.1991 130.977 58.2793 130.73 58.4397C130.483 58.5937 130.287 58.8119 130.143 59.0943C130.004 59.3702 129.935 59.6911 129.935 60.0569Z" fill="#FF7D1F"/>
<path d="M140.38 59.9028V60.7788H137.796L137.778 60.7499C137.405 60.7499 137.076 60.6793 136.793 60.5381C136.51 60.397 136.29 60.198 136.134 59.9413C135.977 59.6847 135.899 59.3863 135.899 59.0462C135.899 58.706 135.977 58.4077 136.134 58.151C136.29 57.8943 136.51 57.6953 136.793 57.5542C137.076 57.4066 137.405 57.3328 137.778 57.3328H141.211V62.7809H140.037V57.6889L140.425 58.228H138.031C137.736 58.228 137.504 58.3018 137.335 58.4494C137.173 58.597 137.091 58.7991 137.091 59.0558C137.091 59.3125 137.173 59.5178 137.335 59.6718C137.504 59.8258 137.736 59.9028 138.031 59.9028H140.38ZM139.052 60.2301L137.155 62.7809H135.79L137.742 60.2301H139.052Z" fill="#FF7D1F"/>
<path d="M144.218 62.7809L146.36 59.2964L147.182 60.0857L145.592 62.7809H144.218ZM152.801 62.7809L151.22 60.0857L152.033 59.2964L154.175 62.7809H152.801ZM149.775 61.7028L149.431 61.5681L152.675 57.3328H154.012L149.666 62.7809H148.727L144.381 57.3328H145.718L148.962 61.5681L148.618 61.7028V57.3328H149.775V61.7028Z" fill="#FF7D1F"/>
<path d="M154.785 62.7809V57.3328H155.942V62.1553L155.59 62.0686L159.086 57.3328H160.604V62.7809H159.447V57.8911L159.809 57.9873L156.267 62.7809H154.785Z" fill="#FF7D1F"/>
<path d="M164.238 62.9157C163.696 62.9157 163.22 62.8387 162.81 62.6847C162.407 62.5307 162.088 62.3093 161.853 62.0205C161.624 61.7317 161.497 61.3884 161.473 60.9905H162.612C162.66 61.305 162.822 61.5456 163.1 61.7125C163.383 61.8729 163.762 61.9531 164.238 61.9531C164.696 61.9531 165.054 61.8889 165.313 61.7606C165.572 61.6258 165.702 61.4205 165.702 61.1446C165.702 60.92 165.593 60.7531 165.376 60.644C165.165 60.5349 164.828 60.4804 164.364 60.4804H163.352V59.6141H164.337C164.753 59.6141 165.06 59.5467 165.259 59.4119C165.464 59.2772 165.566 59.1103 165.566 58.9114C165.566 58.6675 165.446 58.4814 165.205 58.3531C164.964 58.2248 164.647 58.1606 164.256 58.1606C163.822 58.1606 163.47 58.2344 163.199 58.382C162.928 58.5296 162.768 58.751 162.72 59.0462H161.582C161.612 58.6996 161.735 58.3884 161.952 58.1125C162.175 57.8301 162.485 57.6087 162.883 57.4483C163.28 57.2814 163.753 57.198 164.301 57.198C164.801 57.198 165.235 57.2654 165.602 57.4002C165.97 57.5349 166.253 57.721 166.451 57.9585C166.656 58.1895 166.759 58.4558 166.759 58.7574C166.759 59.0012 166.686 59.2258 166.542 59.4312C166.403 59.6365 166.183 59.8002 165.882 59.9221C165.587 60.044 165.205 60.105 164.735 60.105V59.9413C165.421 59.9157 165.954 60.0151 166.334 60.2397C166.713 60.4579 166.903 60.7852 166.903 61.2216C166.903 61.5488 166.798 61.8408 166.587 62.0975C166.382 62.3542 166.081 62.5563 165.683 62.7039C165.286 62.8451 164.804 62.9157 164.238 62.9157Z" fill="#FF7D1F"/>
<path d="M167.879 57.3328H169.044V62.7809H167.879V57.3328ZM172.225 57.3328H173.39V62.7809H172.225V57.3328ZM168.538 59.5371H172.712V60.4996H168.538V59.5371Z" fill="#FF7D1F"/>
<path d="M174.637 62.7809V57.3328H175.812V62.4344L175.396 61.8569H177.583C177.902 61.8569 178.152 61.7734 178.332 61.6066C178.513 61.4333 178.604 61.1991 178.604 60.9039C178.604 60.6023 178.513 60.3681 178.332 60.2012C178.152 60.028 177.902 59.9413 177.583 59.9413H175.432V59.0462H177.736C178.152 59.0462 178.513 59.1264 178.82 59.2868C179.128 59.4408 179.365 59.659 179.534 59.9413C179.709 60.2173 179.796 60.5413 179.796 60.9135C179.796 61.2857 179.709 61.613 179.534 61.8954C179.365 62.1777 179.128 62.3959 178.82 62.5499C178.513 62.7039 178.155 62.7809 177.745 62.7809H174.637Z" fill="#FF7D1F"/>
<path d="M23.4168 53.6265L11.8722 52.4034L6.98247 41.0449L3.18359 42.0576C3.18359 42.0576 5.99027 54.0614 9.13133 55.9212C12.2724 57.7811 23.003 58.115 23.003 58.115L23.4168 53.6265Z" fill="#FF7D1F"/>
<path d="M29.5513 59.4039C31.4297 57.2407 31.2392 53.9286 29.1256 52.006C27.0121 50.0833 23.7759 50.2784 21.8974 52.4416C20.0189 54.6048 20.2095 57.917 22.323 59.8396C24.4366 61.7622 27.6728 61.5671 29.5513 59.4039Z" fill="#131313"/>
<path d="M25.7298 61.1672C24.5433 61.1672 23.3936 60.7462 22.4765 59.9758C21.5593 59.2055 20.9316 58.1335 20.7001 56.9425C20.4686 55.7515 20.6478 54.5153 21.2071 53.4444C21.7664 52.3735 22.6712 51.5341 23.7673 51.0694C24.8634 50.6048 26.0831 50.5434 27.2184 50.8959C28.3538 51.2484 29.3346 51.9929 29.9937 53.0026C30.6529 54.0123 30.9496 55.2246 30.8333 56.433C30.717 57.6415 30.1949 58.7713 29.356 59.6299C28.8808 60.1188 28.3157 60.5064 27.6933 60.7703C27.0709 61.0342 26.4035 61.1691 25.7298 61.1672ZM25.7298 50.6868C24.5465 50.6855 23.3994 51.1042 22.484 51.8715C21.5686 52.6388 20.9414 53.7072 20.7093 54.8948C20.4773 56.0823 20.6547 57.3154 21.2114 58.3841C21.768 59.4527 22.6695 60.2908 23.7622 60.7554C24.8549 61.22 26.0712 61.2825 27.2039 60.9322C28.3365 60.5819 29.3155 59.8405 29.9739 58.8343C30.6324 57.8281 30.9296 56.6193 30.8149 55.414C30.7002 54.2087 30.1807 53.0813 29.345 52.224C28.8716 51.7359 28.3084 51.3487 27.6878 51.0848C27.0673 50.8209 26.4017 50.6856 25.7298 50.6868Z" fill="#131313"/>
<path d="M10.8353 56.8185C12.8975 56.3117 14.1679 54.19 13.6728 52.0794C13.1777 49.9688 11.1047 48.6686 9.04248 49.1753C6.98031 49.682 5.70994 51.8038 6.20502 53.9144C6.7001 56.025 8.77317 57.3252 10.8353 56.8185Z" fill="#131313"/>
<path d="M7.02457 41.9636C8.25016 40.7093 8.25016 38.6755 7.02457 37.4211C5.79898 36.1668 3.8119 36.1668 2.58631 37.4211C1.36072 38.6755 1.36072 40.7093 2.58631 41.9636C3.8119 43.218 5.79898 43.218 7.02457 41.9636Z" fill="#131313"/>
<path d="M9.6979 37.9542L7.1139 40.1875L6.18201 39.0581L8.76601 36.8247C8.90208 36.7071 9.07821 36.6497 9.25567 36.665C9.43313 36.6803 9.59737 36.7671 9.71227 36.9064L9.77593 36.9835C9.83325 37.0524 9.87671 37.1322 9.90382 37.2184C9.93092 37.3045 9.94115 37.3952 9.9339 37.4854C9.92665 37.5756 9.90207 37.6634 9.86157 37.7439C9.82107 37.8243 9.76545 37.8958 9.6979 37.9542Z" fill="#131313"/>
<path d="M6.41406 33.864V37.2304C6.41406 37.2564 6.40396 37.2814 6.38597 37.2998C6.36798 37.3182 6.34358 37.3285 6.31813 37.3285H5.06829C5.04285 37.3285 5.01844 37.3182 5.00045 37.2998C4.98246 37.2814 4.97236 37.2564 4.97236 37.2304V33.864C4.97236 33.6818 5.04311 33.507 5.16904 33.3781C5.29497 33.2492 5.46578 33.1768 5.64387 33.1768H5.74255C5.92064 33.1768 6.09145 33.2492 6.21738 33.3781C6.34332 33.507 6.41406 33.6818 6.41406 33.864Z" fill="#131313"/>
<path d="M4.08801 33.8763L4.80606 37.1614C4.81161 37.1868 4.80708 37.2134 4.79345 37.2354C4.77982 37.2574 4.75821 37.273 4.73338 37.2786L3.51368 37.5579C3.48885 37.5636 3.46284 37.559 3.44135 37.545C3.41987 37.5311 3.40468 37.5089 3.39912 37.4835L2.68108 34.1984C2.6422 34.0205 2.67395 33.8341 2.76935 33.6802C2.86476 33.5263 3.01599 33.4175 3.18979 33.3777L3.28609 33.3556C3.45989 33.3158 3.64202 33.3483 3.79241 33.446C3.94279 33.5436 4.04913 33.6984 4.08801 33.8763Z" fill="#131313"/>
<path d="M1.58576 34.6997L3.23029 37.615C3.24301 37.6376 3.24646 37.6644 3.23987 37.6895C3.23329 37.7147 3.21721 37.7361 3.19518 37.7491L2.11278 38.3887C2.09075 38.4018 2.06456 38.4053 2.03999 38.3986C2.01541 38.3918 1.99446 38.3754 1.98174 38.3528L0.337201 35.4375C0.248152 35.2796 0.224021 35.092 0.270117 34.916C0.316212 34.7399 0.428759 34.5898 0.582996 34.4986L0.668449 34.4481C0.822686 34.357 1.00598 34.3323 1.17801 34.3795C1.35004 34.4267 1.49671 34.5418 1.58576 34.6997Z" fill="#131313"/>
<path d="M73.5914 83.0515L77.0469 81.5474L67.076 57.5524L63.6205 59.0565L73.5914 83.0515Z" fill="#FF7D1F"/>
<path d="M67.5719 59.845C69.3997 57.6368 69.1324 54.3301 66.9748 52.4594C64.8173 50.5887 61.5865 50.8623 59.7587 53.0705C57.9309 55.2787 58.1983 58.5854 60.3558 60.4561C62.5133 62.3268 65.7441 62.0532 67.5719 59.845Z" fill="#131313"/>
<path d="M63.6765 61.7178C62.8732 61.7182 62.0811 61.5255 61.3638 61.1554C60.6466 60.7853 60.0243 60.2479 59.547 59.5867C59.0697 58.9254 58.7508 58.1587 58.6159 57.3483C58.4809 56.5378 58.5338 55.7063 58.7703 54.9206C59.0506 53.9939 59.5765 53.1648 60.2895 52.5257C61.0026 51.8865 61.8748 51.4622 62.8093 51.3C63.7438 51.1377 64.704 51.2439 65.5831 51.6066C66.4622 51.9694 67.2258 52.5746 67.789 53.3549C68.3522 54.1352 68.693 55.06 68.7735 56.0266C68.8539 56.9933 68.6709 57.9638 68.2448 58.8303C67.8186 59.6969 67.166 60.4255 66.3596 60.9353C65.5531 61.445 64.6243 61.7159 63.6765 61.7178ZM63.6765 51.2317C62.7302 51.2327 61.8028 51.5023 60.9973 52.0106C60.1919 52.5189 59.54 53.246 59.1142 54.1109C58.6884 54.9758 58.5054 55.9446 58.5855 56.9096C58.6657 57.8746 59.0058 58.7979 59.5681 59.5769C60.1304 60.3558 60.8928 60.9598 61.7705 61.3217C62.6482 61.6836 63.6068 61.7892 64.5397 61.6267C65.4725 61.4643 66.343 61.0401 67.0544 60.4014C67.7657 59.7628 68.29 58.9347 68.5689 58.0092C68.9671 56.683 68.8348 55.2493 68.2012 54.0228C67.5676 52.7963 66.4844 51.8773 65.1894 51.4673C64.6941 51.3103 64.1785 51.2309 63.66 51.2317H63.6765Z" fill="#131313"/>
<path d="M74.0293 72.126C74.5971 70.0346 73.4009 67.8682 71.3576 67.287C69.3143 66.7059 67.1975 67.9301 66.6297 70.0214C66.0619 72.1127 67.258 74.2792 69.3014 74.8604C71.3447 75.4415 73.4614 74.2173 74.0293 72.126Z" fill="#131313"/>
<path d="M76.1227 86.5183C77.8559 86.5183 79.261 85.0802 79.261 83.3063C79.261 81.5323 77.8559 80.0942 76.1227 80.0942C74.3895 80.0942 72.9844 81.5323 72.9844 83.3063C72.9844 85.0802 74.3895 86.5183 76.1227 86.5183Z" fill="#131313"/>
<path d="M72.0174 86.5415L73.7748 83.5903L75.0082 84.3597L73.2509 87.3109C73.1582 87.4665 73.0089 87.5781 72.8358 87.6211C72.6627 87.6641 72.4801 87.635 72.328 87.5401L72.2437 87.4875C72.168 87.4408 72.1021 87.3792 72.0498 87.3062C71.9974 87.2333 71.9596 87.1505 71.9386 87.0626C71.9176 86.9747 71.9137 86.8835 71.9272 86.794C71.9408 86.7046 71.9714 86.6188 72.0174 86.5415Z" fill="#131313"/>
<path d="M76.3915 89.356L75.3501 86.1629C75.342 86.1382 75.3439 86.1112 75.3552 86.0879C75.3666 86.0647 75.3865 86.0469 75.4107 86.0387L76.5962 85.6336C76.6203 85.6254 76.6467 85.6273 76.6695 85.6389C76.6922 85.6506 76.7095 85.671 76.7176 85.6957L77.759 88.8888C77.786 88.9747 77.796 89.0653 77.7888 89.1552C77.7815 89.2452 77.7569 89.3328 77.7166 89.4131C77.6762 89.4933 77.6208 89.5646 77.5535 89.623C77.4862 89.6813 77.4083 89.7255 77.3243 89.753L77.2307 89.785C77.0638 89.8397 76.8826 89.8255 76.7258 89.7453C76.569 89.6652 76.449 89.5255 76.3915 89.356Z" fill="#131313"/>
<path d="M78.5988 88.591L76.9013 85.7076C76.8948 85.6966 76.8905 85.6843 76.8886 85.6716C76.8867 85.6588 76.8873 85.6458 76.8904 85.6333C76.8934 85.6208 76.8988 85.609 76.9063 85.5987C76.9138 85.5883 76.9232 85.5795 76.934 85.5729L78.0045 84.9127C78.0153 84.906 78.0273 84.9016 78.0397 84.8997C78.0522 84.8978 78.0649 84.8984 78.0771 84.9015C78.0893 84.9046 78.1008 84.9101 78.111 84.9178C78.1211 84.9254 78.1297 84.9351 78.1362 84.9461L79.8336 87.8295C79.9255 87.9856 79.9531 88.1727 79.9102 88.3496C79.8673 88.5266 79.7576 88.6788 79.605 88.7729L79.5205 88.825C79.3679 88.9191 79.1851 88.9473 79.0123 88.9034C78.8394 88.8595 78.6907 88.7471 78.5988 88.591Z" fill="#131313"/>
<path d="M80.7161 87.0008L78.2544 84.7685C78.2354 84.7513 78.2238 84.727 78.2223 84.701C78.2207 84.675 78.2294 84.6494 78.2462 84.6299L79.0732 83.6746C79.0901 83.6551 79.1138 83.6433 79.1392 83.6417C79.1646 83.6402 79.1896 83.649 79.2086 83.6663L81.6703 85.8985C81.8036 86.0194 81.8846 86.1895 81.8953 86.3714C81.9061 86.5534 81.8457 86.7322 81.7276 86.8687L81.6622 86.9442C81.5439 87.0798 81.3779 87.1619 81.2006 87.1725C81.0233 87.1831 80.8491 87.1213 80.7161 87.0008Z" fill="#131313"/>
<path d="M24.207 50.4686C24.207 50.4686 24.5771 87.2568 44.7473 87.9749C64.9175 88.6931 65.7644 50.7322 65.7644 50.4686C65.7644 50.4686 63.3826 44.9843 44.9857 45.1975C26.5889 45.4107 24.207 50.4686 24.207 50.4686Z" fill="#FF7D1F"/>
<path d="M35.5309 43.9932H52.5792C53.6918 43.9932 54.5938 43.07 54.5938 41.9313V41.6311C54.5938 40.4924 53.6918 39.5693 52.5792 39.5693H35.5309C34.4183 39.5693 33.5163 40.4924 33.5163 41.6311V41.9313C33.5163 43.07 34.4183 43.9932 35.5309 43.9932Z" fill="#131313"/>
<path d="M43.3211 11.2817H44.793V3.66545H43.3211V11.2817Z" fill="#131313"/>
<path d="M66.5597 33.9556C68.8837 33.3902 70.3199 31.0037 69.7675 28.6252C69.2151 26.2467 66.8834 24.7768 64.5595 25.3421C62.2355 25.9074 60.7993 28.2939 61.3517 30.6725C61.9041 33.051 64.2358 34.5209 66.5597 33.9556Z" fill="#FF7D1F"/>
<path d="M22.858 33.6676C25.1876 33.1268 26.6477 30.7555 26.1193 28.3713C25.5909 25.9871 23.2741 24.4927 20.9445 25.0335C18.615 25.5743 17.1549 27.9455 17.6833 30.3297C18.2117 32.714 20.5285 34.2084 22.858 33.6676Z" fill="#FF7D1F"/>
<path d="M43.2006 9.6287C43.2006 9.6287 25.615 9.41269 22.8358 25.0128C20.0565 40.6128 34.9231 40.8934 39.2016 41.1879C41.1394 41.3226 45.2891 41.3366 48.951 41.2693C57.0585 41.1262 62.787 39.5216 64.7358 31.8239C64.9679 30.9214 65.1138 29.9978 65.1716 29.0664C65.6841 20.6169 60.1119 9.21352 43.2006 9.6287Z" fill="#FF7D1F"/>
<path d="M55.9548 33.3727L30.407 33.7795C29.7695 33.791 29.1361 33.6738 28.543 33.4344C27.9499 33.1951 27.4087 32.8384 26.9505 32.3848C26.4922 31.9311 26.1259 31.3894 25.8724 30.7907C25.619 30.192 25.4834 29.548 25.4734 28.8955C25.4625 28.243 25.5774 27.5947 25.8115 26.9876C26.0457 26.3805 26.3944 25.8267 26.8379 25.3577C27.2813 24.8887 27.8108 24.5138 28.3959 24.2545C28.981 23.9951 29.6104 23.8563 30.248 23.8461L55.7958 23.4393C56.4334 23.4274 57.0669 23.5444 57.6602 23.7836C58.2535 24.0228 58.7948 24.3795 59.2531 24.8332C59.7114 25.2869 60.0778 25.8288 60.3311 26.4276C60.5844 27.0265 60.7198 27.6707 60.7294 28.3233C60.7407 28.9759 60.626 29.6244 60.392 30.2316C60.158 30.8388 59.8092 31.3928 59.3657 31.8619C58.9222 32.331 58.3926 32.7058 57.8073 32.9651C57.222 33.2244 56.5925 33.3629 55.9548 33.3727Z" fill="#131313"/>
<path d="M35.7172 28.354C35.6578 28.6632 35.5101 28.9474 35.2929 29.1707C35.0757 29.394 34.7987 29.5464 34.4968 29.6086C34.195 29.6708 33.8819 29.6399 33.5972 29.52C33.3125 29.4001 33.0689 29.1965 32.8973 28.9349C32.7256 28.6734 32.6336 28.3656 32.6328 28.0505C32.6321 27.7353 32.7226 27.4271 32.893 27.1646C33.0634 26.9022 33.306 26.6974 33.5901 26.576C33.8743 26.4547 34.1872 26.4223 34.4893 26.4829C34.69 26.5232 34.8809 26.6036 35.0513 26.7194C35.2216 26.8353 35.368 26.9843 35.482 27.1581C35.596 27.3318 35.6755 27.5269 35.7159 27.7321C35.7562 27.9373 35.7567 28.1486 35.7172 28.354Z" fill="white"/>
<path d="M53.5576 28.0623C53.4986 28.3717 53.3514 28.6563 53.1344 28.88C52.9174 29.1037 52.6404 29.2566 52.3385 29.3191C52.0366 29.3817 51.7234 29.3512 51.4384 29.2316C51.1535 29.1119 50.9096 28.9084 50.7377 28.6468C50.5658 28.3852 50.4736 28.0773 50.4727 27.7621C50.4718 27.4468 50.5623 27.1384 50.7327 26.8758C50.9031 26.6132 51.1458 26.4083 51.4301 26.2869C51.7143 26.1655 52.0274 26.1332 52.3296 26.194C52.7344 26.2754 53.091 26.5178 53.3213 26.8681C53.5515 27.2184 53.6365 27.6479 53.5576 28.0623Z" fill="white"/>
<path d="M50.9904 65.078C50.8903 66.4818 50.3857 67.8237 49.5404 68.934C48.6952 70.0443 47.5472 70.8732 46.2418 71.3158C44.9363 71.7584 43.5319 71.7948 42.2061 71.4206C40.8804 71.0463 39.6929 70.278 38.7937 69.213C37.8946 68.148 37.3241 66.834 37.1546 65.4372C36.9851 64.0404 37.224 62.6235 37.8413 61.3656C38.4585 60.1078 39.4263 59.0656 40.6222 58.3707C41.8182 57.6758 43.1886 57.3594 44.5603 57.4617C46.3995 57.5995 48.1101 58.4792 49.3158 59.9074C50.5216 61.3356 51.1239 63.1954 50.9904 65.078Z" fill="#131313"/>
<path d="M49.1536 64.9371C49.0804 65.9602 48.7124 66.9382 48.0962 67.7473C47.48 68.5564 46.6432 69.1604 45.6916 69.4827C44.74 69.8051 43.7164 69.8314 42.7502 69.5583C41.784 69.2853 40.9187 68.7251 40.2635 67.9486C39.6084 67.1722 39.1929 66.2144 39.0697 65.1962C38.9465 64.1781 39.121 63.1455 39.5712 62.2289C40.0214 61.3123 40.727 60.5529 41.5989 60.0468C42.4708 59.5406 43.4697 59.3105 44.4694 59.3854C45.1332 59.4348 45.781 59.6177 46.3758 59.9235C46.9706 60.2293 47.5006 60.652 47.9357 61.1676C48.3707 61.6832 48.7022 62.2815 48.9111 62.9283C49.1201 63.5751 49.2025 64.2577 49.1536 64.9371Z" fill="white"/>
<path d="M45.7746 5.26625C46.7219 4.29671 46.7219 2.72478 45.7746 1.75524C44.8273 0.785699 43.2914 0.7857 42.3441 1.75524C41.3968 2.72478 41.3968 4.29671 42.3441 5.26625C43.2914 6.23579 44.8273 6.23579 45.7746 5.26625Z" fill="#FF7D1F"/>
<path d="M40.1817 27.619C40.2968 27.6331 40.2393 28.1801 40.5791 28.9291C40.7717 29.359 41.0521 29.7416 41.4014 30.0512C41.8109 30.4199 42.3206 30.6519 42.8623 30.7161C43.4069 30.752 43.9495 30.6191 44.4191 30.3345C44.8166 30.098 45.1604 29.7776 45.4278 29.3948C45.8937 28.7299 45.9348 28.1717 46.05 28.1801C46.0966 28.1801 46.1431 28.3204 46.1431 28.5841C46.1327 28.9597 46.039 29.3281 45.8691 29.6613C45.6137 30.1648 45.2362 30.5928 44.7727 30.904C44.1997 31.3172 43.5018 31.5083 42.8038 31.443C42.1057 31.3778 41.4532 31.0604 40.9629 30.5477C40.5627 30.156 40.2681 29.6651 40.1077 29.1227C39.9934 28.7607 39.9634 28.3765 40.02 28.0006C40.0666 27.7397 40.1379 27.6106 40.1817 27.619Z" fill="white"/>
<path d="M63.5954 34.8881C63.568 34.8881 63.8832 34.3832 64.1875 33.4995C64.5658 32.3422 64.8051 31.1421 64.9001 29.9256C65.0099 28.7134 65.0373 27.4948 64.9823 26.2787C64.9631 25.8103 64.9412 25.4372 64.9193 25.1566C64.9008 25.021 64.8962 24.8837 64.9056 24.7471C64.9407 24.8792 64.9636 25.0145 64.9741 25.151C65.0125 25.4119 65.0508 25.7906 65.0837 26.2731C65.1697 27.499 65.1559 28.7301 65.0426 29.9536C64.9462 31.1815 64.6909 32.3909 64.2834 33.55C64.1544 33.8996 63.9986 34.2382 63.8174 34.5627C63.7527 34.6775 63.6784 34.7863 63.5954 34.8881Z" fill="#131313"/>
<path d="M22.8667 24.4912C22.8512 24.6274 22.8227 24.7618 22.7817 24.8924C22.7461 25.0186 22.7077 25.1729 22.6721 25.358C22.6365 25.5432 22.5816 25.7452 22.5487 25.978C22.4527 26.5187 22.3886 27.0649 22.3569 27.6135C22.32 28.2847 22.3292 28.9577 22.3843 29.6276C22.4455 30.2964 22.5518 30.96 22.7022 31.6138C22.8281 32.1486 22.9855 32.6751 23.1737 33.1903C23.2477 33.412 23.3326 33.6055 23.4012 33.7794C23.4697 33.9534 23.5355 34.0992 23.5903 34.2171C23.6528 34.3382 23.7042 34.465 23.7438 34.5958C23.6658 34.4845 23.5979 34.3662 23.541 34.2423C23.4635 34.1021 23.393 33.9579 23.3299 33.8103C23.2532 33.642 23.16 33.4484 23.0805 33.2268C22.877 32.7129 22.7085 32.1852 22.5762 31.6474C22.4158 30.9874 22.304 30.316 22.2418 29.6389C22.1859 28.9623 22.1804 28.2824 22.2253 27.6051C22.2636 27.0516 22.3386 26.5014 22.4501 25.9584C22.4912 25.7255 22.5487 25.5207 22.5953 25.3384C22.6419 25.1561 22.6858 25.0018 22.7269 24.8755C22.7632 24.7438 22.81 24.6152 22.8667 24.4912Z" fill="#131313"/>
<path d="M24.1133 50.437L24.2174 50.4679L24.5244 50.5745L25.692 50.9953L26.5362 51.3038C26.8459 51.4104 27.1886 51.5114 27.5531 51.6264C28.2849 51.8481 29.1099 52.137 30.0473 52.3614L31.5082 52.7457C32.018 52.8776 32.5552 52.9758 33.1089 53.0992C34.2052 53.3573 35.4085 53.534 36.672 53.7416C39.4046 54.1253 42.1586 54.3268 44.9166 54.3447C47.6748 54.3282 50.4288 54.1267 53.1612 53.7416C54.4166 53.534 55.6116 53.3601 56.7244 53.0992C57.2726 52.9786 57.8207 52.8804 58.3251 52.7485L59.7887 52.3642C60.7233 52.1398 61.5484 51.8509 62.2802 51.6292C62.6447 51.5142 62.9873 51.4132 63.297 51.3066L64.1412 50.9981L65.3089 50.5773L65.6158 50.4707C65.6503 50.4567 65.6862 50.4464 65.7227 50.4398L65.6213 50.4847L65.3198 50.6053L64.1604 51.0514L63.297 51.3824C62.9901 51.4918 62.6474 51.5956 62.2829 51.7162C61.5511 51.9462 60.7288 52.2408 59.7914 52.4736L58.3278 52.8664C57.8207 53.001 57.2808 53.102 56.7271 53.2282C55.6308 53.4919 54.4248 53.6715 53.164 53.8847C50.4258 54.2779 47.6651 54.4831 44.9002 54.499C42.1362 54.4811 39.3764 54.2749 36.6391 53.8819C35.3811 53.6715 34.1723 53.4891 33.076 53.2254C32.5278 53.0992 31.9796 52.9982 31.4753 52.8636L30.0117 52.4708C29.0743 52.238 28.252 51.9434 27.5202 51.7134C27.1557 51.5928 26.8158 51.489 26.5061 51.3796L25.6646 51.057L24.5052 50.6109L24.2037 50.4903C24.172 50.4755 24.1417 50.4577 24.1133 50.437Z" fill="#131313"/>
<g opacity="0.3">
<path d="M24.207 50.4685C24.207 50.4685 26.5889 45.4191 44.9857 45.1974C63.3826 44.9758 65.7644 50.4685 65.7644 50.4685C65.7644 50.4685 47.1976 59.8353 24.207 50.4685Z" fill="#131313"/>
</g>
<path d="M40.9705 10.7959C40.9495 10.7979 40.9284 10.7979 40.9074 10.7959L40.7238 10.8155C40.5593 10.8324 40.3181 10.838 40.0084 10.8744C39.1345 10.9612 38.2673 11.1084 37.4128 11.3149C32.993 12.3509 29.0946 15.0022 26.4492 18.7713C25.1712 20.5825 24.2035 22.603 23.5877 24.7465C23.4918 25.0494 23.4397 25.2907 23.3931 25.4506L23.3411 25.6357C23.3361 25.6571 23.3288 25.6778 23.3191 25.6975C23.3155 25.6761 23.3155 25.6543 23.3191 25.6329C23.3191 25.5824 23.3411 25.5207 23.3575 25.445C23.3959 25.2823 23.437 25.0382 23.5247 24.7296C23.7535 23.8581 24.0467 23.0057 24.4018 22.1797C25.5733 19.4347 27.3569 17.0088 29.6095 15.0964C31.8717 13.1984 34.5366 11.8687 37.3909 11.2139C38.2504 11.014 39.1237 10.8817 40.0029 10.8183C40.3154 10.7903 40.5511 10.7931 40.721 10.7847H40.9074C40.9513 10.7903 40.9705 10.7931 40.9705 10.7959Z" fill="white"/>
<path d="M23.769 32.3906C23.6592 32.2169 23.5743 32.028 23.5169 31.8296C23.1917 30.8921 23.0402 29.9008 23.0701 28.9065C23.0623 28.7001 23.0863 28.4937 23.1414 28.2949C23.1852 28.2949 23.1249 29.2319 23.3003 30.3652C23.4758 31.4985 23.8101 32.3738 23.769 32.3906Z" fill="white"/>
<path d="M19.1572 30.9407C19.1572 30.9407 19.0942 30.8958 19.0092 30.7892C18.8881 30.6382 18.7842 30.4735 18.6995 30.2983C18.4068 29.7184 18.2948 29.0606 18.3786 28.4136C18.4624 27.7665 18.738 27.1613 19.1682 26.6795C19.2942 26.5319 19.4368 26.4001 19.593 26.2868C19.6467 26.2406 19.7079 26.2045 19.7739 26.1802C19.7904 26.2026 19.5437 26.3737 19.2449 26.7412C18.8528 27.2218 18.602 27.8064 18.5214 28.4271C18.4409 29.0478 18.534 29.6791 18.79 30.2478C18.9818 30.6938 19.1764 30.9239 19.1572 30.9407Z" fill="white"/>
<path d="M44.2147 1.78067C44.0008 1.75658 43.7853 1.75189 43.5706 1.76665C43.3149 1.7896 43.0678 1.87219 42.8482 2.00807C42.6286 2.14395 42.4423 2.3295 42.3037 2.55051C42.165 2.77151 42.0777 3.02209 42.0483 3.28301C42.0189 3.54393 42.0484 3.80827 42.1343 4.05574C42.2083 4.26099 42.3001 4.45908 42.4084 4.64765C42.4084 4.64765 42.3536 4.61399 42.2769 4.52422C42.1716 4.39436 42.0882 4.2474 42.0302 4.08941C41.9256 3.82745 41.8843 3.54357 41.9096 3.26178C41.9349 2.97999 42.0262 2.70859 42.1757 2.47055C42.3252 2.23251 42.5285 2.03483 42.7684 1.89424C43.0084 1.75364 43.2779 1.67428 43.5541 1.66285C43.7182 1.6512 43.883 1.66731 44.042 1.71054C44.1653 1.73018 44.2147 1.77226 44.2147 1.78067Z" fill="white"/>
<path d="M68.1012 27.538C68.0711 27.5717 67.6463 27.1538 67.0049 26.8396C66.3635 26.5255 65.7797 26.4329 65.7852 26.388C66.232 26.3766 66.6738 26.487 67.0652 26.7078C67.4772 26.8841 67.8351 27.171 68.1012 27.538Z" fill="white"/>
<path d="M30.5109 76.6502C30.4983 76.6335 30.4873 76.6156 30.478 76.5969L30.3875 76.4314C30.3053 76.2715 30.1956 76.0583 30.0531 75.7862C29.9819 75.6459 29.9051 75.4888 29.8174 75.3205L29.5598 74.7594C29.3734 74.3527 29.1651 73.8898 28.9595 73.3568C28.8554 73.0959 28.7457 72.821 28.6306 72.5377C28.5155 72.2544 28.4168 71.9458 28.3044 71.6344C28.0687 71.0144 27.8686 70.3327 27.6357 69.6258C27.2053 68.1951 26.7832 66.6102 26.4132 64.927C26.0432 63.2438 25.7746 61.6196 25.5553 60.1412C25.3361 58.6628 25.1935 57.336 25.1058 56.197C25.0537 55.636 25.0208 55.1254 24.9934 54.6766C24.966 54.2277 24.9414 53.835 24.9331 53.5264C24.9249 53.2178 24.9167 52.9794 24.9085 52.7998V52.6119C24.9055 52.5905 24.9055 52.5688 24.9085 52.5474C24.9116 52.5687 24.9116 52.5905 24.9085 52.6119L24.9249 52.7998C24.9249 52.9766 24.9551 53.2206 24.9743 53.5236C24.9934 53.8266 25.0208 54.2249 25.0592 54.671C25.0976 55.117 25.1332 55.6275 25.1935 56.1886C25.2922 57.3107 25.4676 58.646 25.6732 60.116C25.8787 61.5859 26.1775 63.2018 26.5393 64.8849C26.9011 66.5681 27.3259 68.1502 27.7453 69.5781C27.9783 70.2851 28.1729 70.9639 28.4031 71.5839C28.5127 71.8981 28.6169 72.1982 28.7211 72.4872L29.039 73.3119C29.2363 73.8365 29.4392 74.3022 29.6201 74.7146L29.8667 75.2756C29.9462 75.4467 30.023 75.6038 30.0915 75.7469L30.3985 76.4033L30.4752 76.5745C30.4918 76.5971 30.5039 76.6228 30.5109 76.6502Z" fill="white"/>
<path d="M19.7853 53.7779C19.1166 53.8038 18.4469 53.7794 17.7817 53.705C17.1133 53.681 16.4475 53.6089 15.7891 53.489C16.4578 53.4631 17.1274 53.4875 17.7927 53.5619C18.461 53.5857 19.1269 53.6579 19.7853 53.7779Z" fill="white"/>
<path d="M9.47536 47.7895C9.08663 47.21 8.73769 46.6035 8.43108 45.9745C8.08359 45.3686 7.7777 44.7387 7.51562 44.0894C7.90317 44.6701 8.25118 45.2775 8.55716 45.9072C8.90644 46.5115 9.21328 47.1406 9.47536 47.7895Z" fill="white"/>
<path d="M40.2397 85.4945C40.1318 85.4924 40.0243 85.4793 39.919 85.4552C39.629 85.4023 39.3425 85.3311 39.0611 85.242C38.6431 85.1118 38.2346 84.9514 37.8387 84.7623C37.3563 84.5243 36.8927 84.2485 36.4518 83.9375C36.0158 83.6188 35.6052 83.2651 35.2238 82.88C34.915 82.5633 34.6292 82.2239 34.3687 81.8645C34.1902 81.6246 34.0281 81.3725 33.8835 81.1098C33.8244 81.0176 33.7756 80.9188 33.7383 80.8153C33.7602 80.8013 33.9904 81.208 34.4482 81.8027C34.7172 82.1485 35.0074 82.4764 35.317 82.7846C36.0757 83.5389 36.9462 84.1657 37.8962 84.6417C38.2843 84.8336 38.6834 85.0012 39.0912 85.1438C39.7929 85.3851 40.2452 85.4664 40.2397 85.4945Z" fill="white"/>
<path d="M44.4456 72.5176C44.3822 72.5289 44.3181 72.5354 44.2537 72.5372C44.0714 72.553 43.8884 72.5586 43.7055 72.554C43.024 72.5387 42.3478 72.4263 41.6965 72.2202C41.2464 72.0767 40.8083 71.8966 40.3863 71.6816C39.9025 71.4269 39.4436 71.1254 39.0159 70.7811C38.0251 70.0021 37.2442 68.9781 36.7465 67.8053C36.2489 66.6324 36.0507 65.3493 36.1708 64.0765C36.2155 63.5241 36.3119 62.9774 36.4586 62.4439C36.59 61.9811 36.7596 61.5306 36.9657 61.0973C37.263 60.4689 37.645 59.8863 38.1004 59.3665C38.2226 59.2244 38.3525 59.0895 38.4896 58.9625C38.535 58.916 38.5835 58.8729 38.6349 58.8335C38.6349 58.8335 38.454 59.0327 38.1415 59.3945C37.7029 59.9224 37.3343 60.5072 37.0452 61.1338C36.6141 62.0572 36.3575 63.0556 36.2887 64.0765C36.1776 65.3267 36.3754 66.5854 36.8639 67.7369C37.3525 68.8884 38.116 69.8957 39.0844 70.6661C39.4995 71.008 39.9456 71.3086 40.4165 71.5638C40.8292 71.7866 41.2591 71.9743 41.702 72.1248C42.3436 72.3378 43.0099 72.4632 43.6836 72.4979C44.1797 72.5176 44.4456 72.5007 44.4456 72.5176Z" fill="white"/>
<path d="M11.2573 50.4261C11.2573 50.4486 11.0463 50.3448 10.7091 50.2635C10.258 50.1624 9.79038 50.1672 9.34132 50.2775C8.89226 50.3877 8.47343 50.6006 8.11625 50.9002C7.84216 51.133 7.71059 51.3181 7.69141 51.3041C7.76662 51.1185 7.88297 50.9533 8.03128 50.8216C8.38701 50.4876 8.82016 50.252 9.28972 50.1372C9.75929 50.0223 10.2497 50.032 10.7146 50.1653C10.9127 50.2083 11.0984 50.2976 11.2573 50.4261Z" fill="white"/>
<path d="M51.7369 22.5334C51.7369 22.5727 48.3711 22.6063 44.2214 22.6063C40.0717 22.6063 36.7031 22.5727 36.7031 22.5334C36.7031 22.4941 40.0689 22.4604 44.2214 22.4604C48.3738 22.4604 51.7369 22.4885 51.7369 22.5334Z" fill="white"/>
<path d="M38.9092 40.0745C38.8681 40.0863 38.8258 40.0929 38.7831 40.0941L38.4159 40.1278C38.2569 40.1418 38.0623 40.153 37.8348 40.1586C37.6073 40.1642 37.3496 40.1755 37.0646 40.1586C36.4917 40.1586 35.812 40.1165 35.0583 40.0352C34.2426 39.9381 33.4328 39.7948 32.6326 39.606C31.8343 39.41 31.0473 39.1684 30.2754 38.8822C29.6465 38.6465 29.0299 38.3778 28.4281 38.0771C28.154 37.9537 27.9429 37.8246 27.7428 37.7152C27.5427 37.6058 27.3728 37.5076 27.2358 37.4347L26.9206 37.2383C26.8832 37.2171 26.8483 37.1917 26.8164 37.1626C26.8164 37.1626 26.8603 37.1626 26.9343 37.2131L27.2632 37.3842C27.403 37.4628 27.5756 37.5553 27.7785 37.6647C27.9813 37.7741 28.2115 37.8864 28.4719 38.0042C28.9872 38.251 29.6149 38.5147 30.322 38.7756C31.8589 39.3396 33.4533 39.7236 35.0747 39.9202C35.8202 40.0099 36.4972 40.0604 37.0646 40.0745C37.3387 40.0913 37.6128 40.0745 37.8348 40.0745C38.0568 40.0745 38.2541 40.0745 38.4131 40.0745H38.7804C38.823 40.0672 38.8666 40.0672 38.9092 40.0745Z" fill="white"/>
<path d="M60.7916 52.7148C60.7713 52.7285 60.7491 52.7389 60.7258 52.7457L60.5285 52.8214L59.7665 53.102C59.4348 53.2254 59.0292 53.3685 58.5495 53.5115C58.0699 53.6546 57.5299 53.8398 56.9187 53.9969L55.9649 54.2549C55.6332 54.3419 55.2824 54.4148 54.9233 54.5018C54.2052 54.6785 53.4268 54.8188 52.61 54.9787C49.0524 55.6129 45.4368 55.8396 41.8301 55.6548C41.0078 55.6015 40.2102 55.5594 39.4757 55.4724C39.1084 55.4331 38.7521 55.4051 38.4122 55.3574L37.4337 55.2199C36.8088 55.1442 36.2497 55.0292 35.759 54.9394C35.2684 54.8496 34.8436 54.7655 34.501 54.6841L33.7116 54.5046L33.506 54.4541C33.4822 54.4501 33.4591 54.4425 33.4375 54.4317C33.4621 54.4296 33.4869 54.4296 33.5115 54.4317L33.7171 54.4681L34.5119 54.6224C34.8573 54.6926 35.2794 54.7739 35.7727 54.8496C36.2661 54.9254 36.8225 55.0348 37.4474 55.1049L38.4232 55.2312C38.763 55.2761 39.1194 55.3013 39.4866 55.3378C40.2185 55.4191 41.0078 55.4556 41.8356 55.5061C43.4938 55.5762 45.3165 55.579 47.2297 55.464C49.1428 55.349 50.949 55.1049 52.5854 54.83C53.4076 54.6757 54.1806 54.5495 54.8987 54.3699C55.2577 54.2858 55.6086 54.2157 55.9402 54.1315L56.894 53.8818C57.5053 53.7332 58.0452 53.5592 58.5249 53.419C59.0045 53.2787 59.4157 53.1384 59.7473 53.0346L60.5175 52.7822L60.7203 52.7205L60.7916 52.7148Z" fill="white"/>
<g clip-path="url(#clip0_1403_11314)">
<path d="M44.1467 62.8816L43.9677 63.0761L43.7888 62.8816C43.2947 62.3445 42.4936 62.3445 41.9995 62.8816C41.5054 63.4188 41.5054 64.2899 41.9995 64.8273L42.1784 65.0218L43.9677 66.9671L45.7571 65.0215L45.936 64.827C46.4301 64.2899 46.4301 63.4188 45.936 62.8813C45.4419 62.3442 44.6408 62.3442 44.1467 62.8816Z" fill="#FF7D1F"/>
</g>
<defs>
<clipPath id="clip0_1403_11314">
<rect width="4.67797" height="4.78784" fill="white" transform="translate(41.6289 62.1792)"/>
</clipPath>
</defs>
</svg>
