<svg width="100" height="85" viewBox="0 0 100 85" fill="none" xmlns="http://www.w3.org/2000/svg">
<path d="M87.4564 37.9122H86.9564V37.4122V16.6916C86.9564 13.4258 85.659 10.2938 83.3498 7.98453C81.0405 5.67526 77.9085 4.37793 74.6427 4.37793H16.4995C13.2337 4.37793 10.1017 5.67526 7.79243 7.98453C5.48316 10.2938 4.18583 13.4258 4.18583 16.6916V64.0419C4.18583 67.3077 5.48316 70.4397 7.79243 72.749C10.1017 75.0582 13.2337 76.3556 16.4995 76.3556H74.6427C77.9085 76.3556 81.0405 75.0582 83.3498 72.749C85.659 70.4397 86.9564 67.3077 86.9564 64.0419V49.9559V49.7488L87.1028 49.6023L98.7929 37.9122H87.4564Z" fill="white" stroke="#131313"/>
<path d="M40.253 6.0681C40.6206 7.02149 39.9894 8.05947 39.2768 8.79484C38.5642 9.53022 37.7117 10.2265 37.4872 11.2222C37.3017 12.0585 37.6108 12.9272 37.536 13.7798C37.4612 14.6323 36.9893 15.436 36.7225 16.269C36.2377 17.7788 36.4329 19.4285 36.8657 20.9545C37.1778 22.2227 37.7742 23.4032 38.6098 24.4069C39.0306 24.904 39.5522 25.3061 40.1401 25.5865C40.7279 25.867 41.3686 26.0194 42.0198 26.0338C42.2039 26.0454 42.3885 26.019 42.562 25.9563C42.7355 25.8936 42.8943 25.796 43.0285 25.6694C43.211 25.4061 43.3118 25.0948 43.3181 24.7746C44.0632 18.2229 44.0632 11.6078 43.3181 5.05615" fill="#263238"/>
<path d="M40.9403 27.1821C38.1095 27.0584 35.4934 29.7689 35.7179 32.5933C32.8512 33.2928 30.8371 36.4458 31.387 39.3418C31.5725 40.2984 31.9987 41.2095 32.0573 42.1791C32.1224 43.2399 31.7319 44.2714 31.5399 45.3126C31.1715 47.2103 31.3684 49.1745 32.1061 50.9613C32.5519 52.0384 33.3849 53.1512 34.5497 53.1837C34.9444 53.1671 35.3289 53.0536 35.6694 52.8533C36.0099 52.653 36.2958 52.372 36.5021 52.0351C36.9076 51.353 37.1752 50.5979 37.2895 49.8127C37.7938 47.2682 37.9403 44.6553 38.6431 42.1596C39.3459 39.6639 40.7126 37.204 42.9675 35.9382C44.2137 35.2354 45.7105 34.9035 46.7029 33.872C47.2021 33.3091 47.535 32.6184 47.6643 31.8771C47.7935 31.1359 47.7142 30.3733 47.435 29.6745C47.1425 28.9821 46.7074 28.3591 46.1579 27.8461C45.6085 27.3331 44.9571 26.9416 44.2462 26.6973" fill="#263238"/>
<path d="M60.5334 8.40082C60.5659 7.19038 59.4498 6.25652 58.324 5.79773C57.1982 5.33893 55.9454 5.186 54.9432 4.49618C54.0517 3.89747 53.4562 2.96361 52.7046 2.21848C51.7764 1.27725 50.6145 0.599998 49.3381 0.256246C48.0617 -0.0875051 46.7169 -0.0853661 45.4416 0.262443C44.1663 0.610251 43.0065 1.2912 42.0814 2.23537C41.1562 3.17954 40.499 4.35292 40.1772 5.63504C39.7445 7.35633 40.0406 9.39325 41.3974 10.5386C42.9723 11.8662 45.3021 11.5701 47.3292 11.1568C49.3564 10.7436 51.6341 10.3369 53.3196 11.5245C54.3348 12.2371 54.9205 13.402 55.542 14.479C56.1634 15.5561 56.9411 16.6526 58.1158 17.0593C59.2904 17.4661 60.888 16.7632 60.9336 15.5235" fill="#263238"/>
<path d="M55.7639 8.64829C56.2677 8.70275 56.7328 8.94423 57.0672 9.32499C57.4015 9.70576 57.5809 10.1981 57.5698 10.7047L56.3626 38.0372C56.3106 41.265 51.5925 43.0774 48.1369 42.9961C44.6455 42.9147 44.5349 41.2032 44.4893 38.1315C44.4177 33.0035 44.4242 31.0772 44.421 31.1064C44.4177 31.1357 40.012 30.3646 39.1107 24.5987C38.6649 21.7386 38.8179 17.0465 39.0684 13.2102C39.2929 9.75785 41.5901 5.52783 45.0295 5.89877L55.7639 8.64829Z" fill="#FFBE9D"/>
<path d="M40.0604 16.835C40.0586 17.0271 40.1316 17.2123 40.264 17.3514C40.3965 17.4905 40.5779 17.5725 40.7698 17.5801C40.8626 17.5881 40.9562 17.5776 41.0449 17.5491C41.1337 17.5206 41.2159 17.4747 41.2867 17.4142C41.3576 17.3536 41.4157 17.2796 41.4577 17.1963C41.4996 17.1131 41.5246 17.0224 41.5312 16.9294C41.5339 16.7371 41.4611 16.5514 41.3285 16.4121C41.1959 16.2728 41.014 16.191 40.8218 16.1842C40.729 16.1762 40.6354 16.1868 40.5467 16.2153C40.4579 16.2438 40.3757 16.2896 40.3049 16.3502C40.234 16.4108 40.1759 16.4848 40.134 16.568C40.092 16.6513 40.067 16.742 40.0604 16.835Z" fill="#263238"/>
<path d="M40.0794 15.6632C40.1705 15.7608 40.7301 15.3378 41.5241 15.3378C42.318 15.3378 42.9005 15.7413 42.9883 15.6436C43.0306 15.6013 42.9362 15.4256 42.6824 15.2402C42.3399 15.0016 41.9317 14.8754 41.5143 14.879C41.1011 14.8766 40.6978 15.0053 40.3624 15.2467C40.1184 15.4386 40.0338 15.6209 40.0794 15.6632Z" fill="#263238"/>
<path d="M47.6913 16.835C47.6895 17.0271 47.7625 17.2123 47.8949 17.3514C48.0273 17.4905 48.2087 17.5725 48.4006 17.5801C48.4935 17.5881 48.587 17.5776 48.6758 17.5491C48.7645 17.5206 48.8467 17.4747 48.9176 17.4142C48.9884 17.3536 49.0466 17.2796 49.0885 17.1963C49.1305 17.1131 49.1555 17.0224 49.162 16.9294C49.1647 16.7371 49.092 16.5514 48.9594 16.4121C48.8268 16.2728 48.6449 16.191 48.4527 16.1842C48.3598 16.1762 48.2663 16.1868 48.1775 16.2153C48.0888 16.2438 48.0066 16.2896 47.9357 16.3502C47.8649 16.4108 47.8068 16.4848 47.7648 16.568C47.7228 16.6513 47.6979 16.742 47.6913 16.835Z" fill="#263238"/>
<path d="M47.8715 15.8294C47.9626 15.9271 48.5222 15.5041 49.3162 15.5041C50.1101 15.5041 50.6926 15.9075 50.7772 15.8099C50.8195 15.7676 50.7284 15.5919 50.4746 15.4064C50.1321 15.1673 49.7241 15.0401 49.3064 15.042C48.8929 15.0405 48.4895 15.1704 48.1546 15.413C47.9268 15.6114 47.8422 15.7871 47.8715 15.8294Z" fill="#263238"/>
<path d="M44.9937 21.7122C44.9937 21.6667 44.5056 21.5821 43.6922 21.478C43.4904 21.4552 43.2985 21.4129 43.2627 21.2762C43.2477 21.0665 43.2953 20.857 43.3993 20.6742L44.0045 19.1319C44.8408 16.9356 45.4493 15.1297 45.3582 15.0971C45.267 15.0646 44.5187 16.8184 43.6824 19.0018L43.1032 20.5539C42.9771 20.7982 42.9391 21.0787 42.9959 21.3478C43.0244 21.4188 43.0684 21.4825 43.1247 21.5342C43.181 21.586 43.2481 21.6246 43.3212 21.6472C43.4273 21.6764 43.5366 21.6917 43.6466 21.6927C44.4926 21.7513 44.9905 21.7578 44.9937 21.7122Z" fill="#263238"/>
<path d="M44.4212 31.109C47.131 31.1558 49.8006 30.4495 52.1328 29.0688C52.1328 29.0688 50.2553 33.019 44.496 32.4659L44.4212 31.109Z" fill="#EB996E"/>
<path d="M45.322 23.6254C45.4752 23.4329 45.6755 23.2832 45.9035 23.1909C46.1315 23.0985 46.3795 23.0666 46.6235 23.0983C46.7987 23.114 46.9689 23.1651 47.1238 23.2484C47.2787 23.3317 47.4152 23.4456 47.5248 23.5831C47.6306 23.7158 47.693 23.8779 47.7035 24.0473C47.714 24.2167 47.672 24.3853 47.5834 24.53C47.456 24.6729 47.2886 24.7742 47.1029 24.8206C46.9172 24.867 46.7218 24.8565 46.5422 24.7903C46.1676 24.6572 45.8235 24.4503 45.5302 24.1818C45.4401 24.1189 45.3628 24.0394 45.3024 23.9476C45.2728 23.9039 45.2569 23.8523 45.2569 23.7995C45.2569 23.7467 45.2728 23.6951 45.3024 23.6515" fill="#EB996E"/>
<path d="M47.327 22.272C47.1968 22.272 47.1936 23.1277 46.455 23.7362C45.7163 24.3447 44.7988 24.2503 44.7922 24.387C44.7922 24.4423 44.9972 24.5562 45.3844 24.5659C45.8895 24.5751 46.3815 24.4057 46.7738 24.0876C47.1493 23.7805 47.3908 23.3395 47.4474 22.8577C47.4832 22.477 47.3856 22.272 47.327 22.272Z" fill="#263238"/>
<path d="M47.5457 14.4372C47.6238 14.6552 48.4178 14.5544 49.3484 14.6682C50.279 14.7821 51.0339 15.0392 51.1575 14.8439C51.2128 14.7528 51.0827 14.5478 50.7801 14.3396C50.376 14.0799 49.9182 13.9156 49.4412 13.8593C48.9643 13.8029 48.4807 13.8559 48.0273 14.0142C47.6726 14.1671 47.5002 14.3363 47.5457 14.4372Z" fill="#263238"/>
<path d="M40.3847 13.3659C40.5246 13.5448 41.0712 13.3659 41.7318 13.3659C42.3923 13.3659 42.9454 13.4895 43.0724 13.3008C43.1309 13.2097 43.0431 13.0307 42.799 12.8583C42.4725 12.654 42.0928 12.5508 41.7078 12.5618C41.3227 12.5728 40.9496 12.6975 40.6352 12.9201C40.3847 13.0926 40.3163 13.278 40.3847 13.3659Z" fill="#263238"/>
<path d="M59.7837 27.5787C58.9903 27.7392 58.1702 27.7086 57.3909 27.4897C56.6117 27.2707 55.8956 26.8696 55.3019 26.3194C54.7082 25.7692 54.2538 25.0858 53.9763 24.3254C53.6987 23.5651 53.6059 22.7496 53.7055 21.9463C53.8845 20.5309 54.6459 19.0959 54.1545 17.7553C53.5038 15.9885 51.0276 15.4451 50.3703 13.6782C49.9896 12.6533 50.3313 11.4526 49.8985 10.4472C49.4918 9.50354 48.4961 8.96014 47.5264 8.60872C46.5568 8.25731 45.5221 8.01652 44.7086 7.38527C43.8951 6.75402 43.3908 5.56311 43.9147 4.6748C48.2121 5.19042 52.4328 6.2161 56.4876 7.73018C57.4279 8.0816 58.4138 8.5046 58.9703 9.33759C59.5559 10.2226 59.5267 11.3615 59.4779 12.4223C59.2371 17.5894 60.0245 22.4279 59.7837 27.595" fill="#263238"/>
<path d="M61.1533 25.9588C61.1861 25.9539 61.2179 25.944 61.2477 25.9295C61.3406 25.8972 61.4291 25.8534 61.5112 25.7994C61.8282 25.5943 62.0773 25.2999 62.2271 24.9534C62.4733 24.4056 62.5394 23.7938 62.4158 23.206C62.2199 22.4425 61.8639 21.7293 61.3713 21.1138C60.867 20.411 60.226 19.6984 59.79 18.7906C59.5575 18.3292 59.4276 17.8231 59.4093 17.3068C59.428 16.7588 59.538 16.2177 59.7346 15.7059C59.9539 15.1525 60.0698 14.5635 60.0763 13.9683C60.0448 13.3315 59.8578 12.712 59.5317 12.1641C59.2055 11.6161 58.7501 11.1564 58.2053 10.8251C57.621 10.5063 56.9729 10.3217 56.3083 10.285C55.6652 10.2534 55.0282 10.1442 54.4113 9.95957C53.8321 9.74026 53.3561 9.31187 53.0773 8.75889C52.8115 8.21486 52.6 7.64593 52.446 7.06037C52.2814 6.49858 52.0635 5.95379 51.7952 5.43344C51.306 4.44692 50.561 3.60976 49.6379 3.00931C48.8229 2.49689 47.8693 2.24912 46.9079 2.29997C46.1117 2.34115 45.3531 2.65214 44.7571 3.18177C44.3128 3.58121 43.9817 4.09076 43.7972 4.65902C43.6774 5.01474 43.632 5.39132 43.6638 5.76533C43.6705 5.89542 43.6923 6.02428 43.7289 6.14929C43.7289 6.14929 43.7061 6.01588 43.6964 5.76208C43.6808 5.39382 43.736 5.02598 43.8591 4.67855C44.0831 4.03911 44.4943 3.48183 45.0391 3.07911C45.584 2.6764 46.2374 2.44688 46.9144 2.42036C47.8492 2.37918 48.774 2.62685 49.5631 3.12971C50.4613 3.71997 51.1849 4.5402 51.6586 5.50503C51.9214 6.02551 52.1328 6.5704 52.2898 7.13196C52.4487 7.72811 52.6667 8.30691 52.9406 8.85976C53.0914 9.14585 53.2882 9.40527 53.523 9.62767C53.7658 9.85247 54.0513 10.0262 54.3625 10.1385C54.9965 10.3339 55.6523 10.4498 56.3148 10.4834C56.9554 10.5172 57.5802 10.694 58.1435 11.0008C58.6643 11.3168 59.1 11.7553 59.4124 12.2782C59.7249 12.8011 59.9048 13.3925 59.9364 14.0009C59.9306 14.5777 59.8204 15.1488 59.611 15.6864C59.4039 16.2139 59.2884 16.7729 59.2693 17.3393C59.2913 17.8765 59.4289 18.4026 59.6728 18.8817C60.1284 19.8123 60.7759 20.5086 61.2835 21.2147C61.7734 21.8128 62.1305 22.5082 62.3312 23.2549C62.4609 23.823 62.4073 24.4175 62.1783 24.9534C62.0375 25.2948 61.8029 25.5892 61.5015 25.8026C61.2835 25.9133 61.1501 25.9458 61.1533 25.9588Z" fill="#455A64"/>
<path d="M44.4316 0.868164C44.3527 0.873998 44.276 0.89734 44.2071 0.936495C44.0118 1.01935 43.829 1.12885 43.6637 1.26188C43.0968 1.70175 42.7213 2.34321 42.6152 3.05287C42.5092 3.76253 42.6808 4.48577 43.0943 5.07215C43.2145 5.24691 43.3567 5.40548 43.5173 5.54396C43.6344 5.64158 43.706 5.68388 43.7125 5.67412C43.529 5.46621 43.3564 5.24899 43.1952 5.02335C42.8285 4.45156 42.6815 3.76624 42.7814 3.09436C42.8813 2.42248 43.2214 1.8096 43.7386 1.36926C43.9598 1.18902 44.1912 1.02171 44.4316 0.868164Z" fill="#455A64"/>
<path d="M31.6799 40.3601C31.6112 40.16 31.5558 39.9557 31.5139 39.7484C31.4377 39.1804 31.5364 38.6026 31.797 38.0922C32.1984 37.3429 32.837 36.7478 33.6127 36.4002C34.0665 36.1854 34.5407 36.0165 35.0281 35.8958C35.5357 35.7657 36.0726 35.6583 36.6095 35.4826C37.1497 35.3353 37.6479 35.0634 38.0639 34.6886C38.4366 34.3155 38.6776 33.8312 38.7505 33.309C38.8384 32.8242 38.8676 32.3654 38.975 31.9554C39.0713 31.5761 39.2501 31.2227 39.4989 30.9207C39.8628 30.4781 40.3462 30.1495 40.8915 29.9738C41.2787 29.8566 41.5098 29.8566 41.5098 29.8371C41.4546 29.8316 41.399 29.8316 41.3438 29.8371C41.1846 29.8481 41.0268 29.8732 40.872 29.912C40.3013 30.0693 39.7911 30.3947 39.4078 30.8458C39.1398 31.1577 38.9452 31.5258 38.8383 31.9228C38.7212 32.3491 38.6854 32.8144 38.5943 33.283C38.5274 33.7769 38.2985 34.2346 37.9435 34.5845C37.5445 34.9388 37.069 35.196 36.5541 35.3361C36.0303 35.5053 35.4934 35.616 34.9825 35.7494C34.4886 35.8702 34.0088 36.0425 33.5508 36.2635C32.7494 36.6304 32.0957 37.2577 31.6961 38.0434C31.4356 38.5772 31.3513 39.1799 31.4553 39.7647C31.4863 39.9206 31.5355 40.0724 31.6018 40.2169C31.6228 40.2672 31.6489 40.3152 31.6799 40.3601Z" fill="#455A64"/>
<path d="M56.7089 30.1694C59.6373 29.3885 62.1428 26.5348 63.1645 23.6942C64.1862 20.8536 64.1862 17.7526 63.9227 14.7461C63.7339 12.5692 63.35 10.2655 61.9053 8.62555C59.7252 6.15261 57.3499 4.89012 54.07 4.99424" fill="#263238"/>
<path d="M39.693 36.5136L42.41 35.8303C42.1138 35.6267 41.8978 35.3262 41.7993 34.9806C41.7007 34.6349 41.7256 34.2658 41.8698 33.9365C42.0418 33.5146 42.3264 33.1479 42.6924 32.8765C43.0585 32.6051 43.492 32.4394 43.9458 32.3975L56.33 30.9983C56.5465 30.9694 56.7664 31.014 56.9546 31.1249C57.1428 31.2358 57.2883 31.4066 57.368 31.61C57.9168 33.007 57.9352 34.1567 57.4233 35.0591H57.4818L59.8702 35.5342L63.918 71.2421L37.4055 70.0024L39.693 36.5136Z" fill="#F5F5F5"/>
<path d="M43.5925 35.9675C43.7552 36.015 43.9218 36.0477 44.0904 36.0651C44.4158 36.1172 44.8811 36.1725 45.4603 36.2311C48.4914 36.5127 51.5472 36.3604 54.5353 35.7788C55.1079 35.6649 55.5667 35.5608 55.8824 35.4762C56.0482 35.444 56.2105 35.3961 56.3672 35.333C56.1992 35.3453 56.0326 35.3726 55.8693 35.4144C55.544 35.4762 55.0852 35.564 54.5125 35.6616C51.5275 36.1753 48.4913 36.3261 45.47 36.1107C44.8908 36.0716 44.4223 36.0293 44.0969 35.9968C43.9298 35.9738 43.7612 35.964 43.5925 35.9675Z" fill="#263238"/>
<path d="M55.5742 41.6422C55.3134 41.1005 55.0029 40.5842 54.6469 40.0998C54.3361 39.5848 53.9777 39.1 53.5764 38.6519C53.8376 39.1939 54.1492 39.7103 54.507 40.1942C54.8161 40.7096 55.1734 41.1944 55.5742 41.6422Z" fill="#E0E0E0"/>
<path d="M47.0296 42.2472C47.8566 41.3981 48.6008 40.4719 49.252 39.4814C48.8185 39.8871 48.4241 40.3327 48.0741 40.8123C47.6803 41.2557 47.3305 41.7363 47.0296 42.2472Z" fill="#E0E0E0"/>
<path d="M50.9977 46.7866C51.1847 46.2078 51.3187 45.6131 51.3979 45.01C51.5333 44.417 51.6107 43.8121 51.6289 43.2041C51.4414 43.7828 51.3074 44.3775 51.2287 44.9807C51.0969 45.5744 51.0196 46.1789 50.9977 46.7866Z" fill="#E0E0E0"/>
<path d="M44.4753 47.0669C44.9346 47.6382 45.4372 48.1734 45.9785 48.6678C46.4813 49.2031 47.0253 49.6981 47.6055 50.1483C47.1462 49.5769 46.6436 49.0417 46.1022 48.5474C45.5974 48.0142 45.0535 47.5194 44.4753 47.0669Z" fill="#E0E0E0"/>
<path d="M53.2258 53.1517C54.4248 52.4353 55.4014 51.4001 56.0469 50.1614C56.0013 50.1322 55.5035 50.9131 54.7193 51.7363C53.9351 52.5595 53.1932 53.1094 53.2258 53.1517Z" fill="#E0E0E0"/>
<path d="M50.4147 57.8501C50.4147 57.8989 51.1566 58.1364 52.0156 58.5952C52.8746 59.054 53.5026 59.5356 53.5352 59.4933C53.1256 59.0548 52.6364 58.6981 52.0937 58.4423C51.5776 58.1382 51.0074 57.9371 50.4147 57.8501Z" fill="#E0E0E0"/>
<path d="M45.8424 58.1526C46.0363 57.9883 46.21 57.8015 46.3598 57.5961C46.6591 57.2382 47.0593 56.7274 47.4758 56.1449C47.8923 55.5625 48.2437 55.0191 48.4878 54.6156C48.633 54.407 48.7531 54.182 48.8457 53.9453C48.6726 54.131 48.5189 54.3337 48.3869 54.5505L47.3359 56.0473L46.2654 57.5246C46.1026 57.7183 45.9608 57.9289 45.8424 58.1526Z" fill="#E0E0E0"/>
<path d="M45.3825 62.1611C46.015 62.3829 46.6695 62.5356 47.3348 62.6167C47.9929 62.7539 48.6637 62.8205 49.3359 62.8152C48.686 62.6518 48.0263 62.5301 47.3608 62.4507C46.7077 62.3151 46.0471 62.2184 45.3825 62.1611Z" fill="#E0E0E0"/>
<path d="M52.7866 35.4627C52.8093 35.4627 52.6531 35.2675 52.5197 34.9226C52.3545 34.4713 52.3053 33.9857 52.3766 33.5104C52.4573 33.0314 52.5984 32.5646 52.7963 32.121C52.8922 31.9394 52.9665 31.7472 53.0176 31.5483C52.8817 31.7044 52.7718 31.8812 52.6922 32.0722C52.4555 32.5131 52.2939 32.9904 52.2139 33.4844C52.1352 33.9888 52.2041 34.5053 52.4124 34.9714C52.4851 35.169 52.6154 35.3401 52.7866 35.4627Z" fill="#E0E0E0"/>
<path d="M47.8339 32.7891C47.6019 33.1085 47.436 33.4711 47.3461 33.8555C47.2561 34.24 47.2438 34.6385 47.31 35.0277C47.3588 35.0277 47.3653 34.5104 47.5117 33.8954C47.6582 33.2804 47.8697 32.8151 47.8339 32.7891Z" fill="#E0E0E0"/>
<path d="M25.4952 58.2305L13.1631 36.5695L11.6761 32.8113C11.6761 32.8113 7.83 24.5465 7.56318 23.7005C7.25407 22.7243 6.71067 22.6462 6.35925 22.7829C5.81261 23.0009 5.6369 23.8143 5.87769 24.6571C5.96229 24.9467 7.4558 29.4891 7.4558 29.4891C7.0542 29.1429 6.62791 28.8264 6.1803 28.5422C5.23342 27.8914 3.49912 27.924 1.89171 28.4966C0.284309 29.0693 -0.112663 29.3719 0.0793133 30.0032C0.121742 30.1217 0.190268 30.2291 0.279821 30.3175C0.369373 30.406 0.477663 30.4731 0.596676 30.514C0.97513 30.6721 1.39932 30.6814 1.78433 30.5401C4.3679 29.6615 5.51325 30.8264 5.51325 30.8264L5.70524 31.3177C5.70524 31.3177 3.75292 30.6963 2.65962 31.5748C2.49641 31.7038 2.35945 31.8628 2.25615 32.0434C1.90234 32.1589 1.58484 32.3649 1.33506 32.6408C1.08528 32.9168 0.911879 33.2532 0.832006 33.6167C0.752134 33.9802 0.76856 34.3583 0.879662 34.7136C0.990761 35.0688 1.19269 35.3889 1.46546 35.6421C1.58403 35.7773 1.74082 35.8733 1.91511 35.9175C2.08941 35.9616 2.273 35.9518 2.44162 35.8894C2.59939 35.782 2.72617 35.635 2.8093 35.4632C2.8623 35.3771 2.92215 35.2955 2.98826 35.2191L3.72363 36.5207C3.72363 36.5207 5.53603 39.3515 6.1868 40.6759L14.6794 63.3C14.9586 64.0447 15.3834 64.7264 15.929 65.3052C16.4746 65.884 17.13 66.3482 17.8571 66.6708C18.5841 66.9934 19.3681 67.168 20.1633 67.1842C20.9586 67.2004 21.749 67.058 22.4886 66.7653C23.2867 66.4503 24.0078 65.9674 24.603 65.3495C25.1983 64.7316 25.6539 63.993 25.939 63.1838C26.2241 62.3745 26.332 61.5135 26.2554 60.6589C26.1788 59.8043 25.9196 58.9761 25.4952 58.2305Z" fill="#FFBE9D"/>
<path d="M12.3145 36.4948C11.8784 36.7812 11.2765 36.5859 10.886 36.2475C10.4955 35.9091 10.2352 35.4438 9.85778 35.0761C8.76124 33.9796 6.92932 33.8755 5.87832 32.7268C5.7319 32.5674 5.60174 32.3234 5.72864 32.1477C5.85554 31.972 6.08982 32.0045 6.28506 32.0435L11.3318 33.0425" fill="#FFBE9D"/>
<path d="M11.3304 33.042C11.1603 32.965 10.9809 32.9103 10.7968 32.8793C10.4486 32.7915 9.941 32.6776 9.31626 32.5539L7.11666 32.0886L6.46588 31.9552C6.2152 31.8635 5.93865 31.8728 5.69472 31.9813C5.62506 32.0329 5.57237 32.1041 5.54339 32.1858C5.51441 32.2676 5.51045 32.3561 5.53203 32.4401C5.5656 32.5779 5.63265 32.7053 5.72725 32.811C5.89733 32.9992 6.08838 33.1673 6.29668 33.3121C7.13617 33.8945 8.05702 34.1321 8.79239 34.5193C9.14321 34.6851 9.46598 34.9046 9.74902 35.17C10.0093 35.4206 10.2143 35.7069 10.4291 35.951C10.5836 36.1663 10.7834 36.3451 11.0145 36.475C11.2455 36.6048 11.5021 36.6825 11.7664 36.7026C12.1536 36.7026 12.3131 36.5106 12.3 36.5074C12.1305 36.5655 11.9521 36.593 11.7729 36.5887C11.5329 36.549 11.3038 36.46 11.0999 36.3272C10.8961 36.1945 10.7219 36.021 10.5885 35.8176C10.3801 35.5332 10.1575 35.2595 9.92148 34.9976C9.62656 34.7052 9.28721 34.4614 8.91604 34.2752C8.15789 33.8652 7.2403 33.6245 6.46588 33.0713C6.27929 32.9388 6.10699 32.7872 5.95177 32.619C5.8086 32.4596 5.75979 32.2676 5.86066 32.2123C5.96153 32.157 6.18605 32.183 6.41056 32.2286L7.06134 32.3489L9.27396 32.7557C9.90521 32.8663 10.4161 32.9509 10.7707 33.003C10.9541 33.0452 11.1429 33.0584 11.3304 33.042Z" fill="#EB996E"/>
<path d="M5.77406 31.3245C5.64479 31.0225 5.4464 30.755 5.19487 30.5436C4.91326 30.3324 4.57074 30.2182 4.21872 30.2182C3.77627 30.2209 3.33702 30.2933 2.91717 30.433C2.48822 30.5777 2.04555 30.678 1.59611 30.7323C1.21885 30.7756 0.836867 30.7172 0.489799 30.5631C0.370413 30.508 0.265562 30.4258 0.183638 30.323C0.101714 30.2202 0.0449848 30.0996 0.0179858 29.9709C-0.00663137 29.8804 -0.00663137 29.7849 0.0179858 29.6943C0.037509 29.6943 0.0375061 29.792 0.0863142 29.9546C0.122054 30.0643 0.181356 30.1648 0.260049 30.2491C0.338742 30.3334 0.43492 30.3995 0.541852 30.4427C0.873118 30.5658 1.22946 30.606 1.57983 30.5599C2.0163 30.4912 2.44547 30.3823 2.86185 30.2345C3.29637 30.0914 3.75153 30.0211 4.20896 30.0262C4.59309 30.0352 4.96313 30.1727 5.25994 30.4167C5.45678 30.5805 5.60807 30.7923 5.69922 31.0317C5.78056 31.2237 5.78708 31.3213 5.77406 31.3245Z" fill="#EB996E"/>
<path d="M5.79052 24.332C5.91818 24.6231 6.02052 24.9247 6.09639 25.2334C6.28836 25.8581 6.51614 26.6 6.76994 27.4199C7.02374 28.2399 7.27428 28.9753 7.47602 29.5968C7.59375 29.8916 7.68416 30.1965 7.74609 30.5079C7.58436 30.2338 7.45133 29.9437 7.34912 29.6423C7.13437 29.0957 6.86105 28.3408 6.58772 27.4785C6.3144 26.6162 6.1029 25.8516 5.96623 25.2691C5.87488 24.9638 5.81598 24.6497 5.79052 24.332Z" fill="#EB996E"/>
<path d="M5.07812 32.6849C4.97885 32.6992 4.87805 32.6992 4.77878 32.6849C4.65392 32.6636 4.52594 32.6694 4.40353 32.702C4.28113 32.7345 4.16718 32.7931 4.06944 32.8736C4.01289 32.9334 3.97269 33.0067 3.95274 33.0865C3.93279 33.1663 3.93376 33.2499 3.95555 33.3292C4.00813 33.529 4.08575 33.7215 4.18657 33.9019C4.31692 34.1282 4.35976 34.3945 4.30696 34.6503C4.26254 34.7858 4.18703 34.909 4.08646 35.0102C3.98589 35.1113 3.86305 35.1875 3.72778 35.2327C3.5943 35.275 3.45359 35.2896 3.31427 35.2756C3.17495 35.2617 3.03996 35.2194 2.91757 35.1514C2.68979 35.035 2.5026 34.8523 2.38068 34.6275C2.20461 34.2567 2.08401 33.862 2.02276 33.4561C1.97531 33.1837 1.97531 32.9052 2.02276 32.6329C2.03297 32.5306 2.07252 32.4334 2.13665 32.353C2.15291 32.353 2.11061 32.4572 2.09434 32.6426C2.08043 32.9081 2.10343 33.1742 2.16267 33.4333C2.23983 33.818 2.36671 34.191 2.54012 34.5429C2.64608 34.741 2.81459 34.8985 3.01939 34.9909C3.2242 35.0833 3.45381 35.1054 3.67247 35.0537C3.77967 35.0191 3.87728 34.9599 3.95751 34.8808C4.03773 34.8017 4.09835 34.7049 4.13451 34.5982C4.17699 34.3856 4.14116 34.1649 4.03364 33.9767C3.93243 33.7797 3.85592 33.571 3.80587 33.3552C3.78404 33.2519 3.78904 33.1448 3.82036 33.0439C3.85169 32.9431 3.90831 32.852 3.98483 32.7793C4.09793 32.6898 4.23034 32.6279 4.37156 32.5985C4.51277 32.5691 4.65889 32.5731 4.7983 32.6101C4.89501 32.6197 4.98951 32.645 5.07812 32.6849Z" fill="#EB996E"/>
<path d="M2.95202 34.9622C2.95202 34.9622 3.01384 35.0468 3.00733 35.2291C2.99816 35.3569 2.95925 35.4808 2.89372 35.591C2.82819 35.7011 2.73785 35.7945 2.62988 35.8636C2.46308 35.9595 2.27403 36.01 2.08161 36.01C1.88919 36.01 1.70014 35.9595 1.53334 35.8636C1.13197 35.6321 0.835782 35.2543 0.706853 34.8093C0.56516 34.3737 0.56516 33.9043 0.706853 33.4687C0.822319 33.1166 1.03021 32.802 1.30882 32.5576C1.49245 32.3933 1.70553 32.2652 1.93681 32.1802C2.01902 32.1407 2.1092 32.1207 2.20038 32.1216C1.91041 32.262 1.64107 32.4416 1.39993 32.6552C1.12694 32.9216 0.934064 33.2591 0.843192 33.6295C0.752319 33.9999 0.767091 34.3883 0.885821 34.7507C1.00213 35.1505 1.26312 35.4927 1.61794 35.7106C1.7598 35.7938 1.92038 35.8398 2.08478 35.8444C2.24917 35.8489 2.41205 35.8119 2.5583 35.7367C2.65525 35.6801 2.73906 35.6036 2.80414 35.5121C2.86922 35.4207 2.91408 35.3164 2.93575 35.2063C2.96829 35.0631 2.93575 34.9622 2.95202 34.9622Z" fill="#EB996E"/>
<path d="M7.05603 37.0051C7.18478 36.9181 7.33665 36.8716 7.49205 36.8717C7.88905 36.833 8.28759 36.9281 8.6244 37.1418L8.48447 37.2362C8.44051 37.0213 8.41009 36.804 8.39336 36.5854C8.27948 35.3294 8.6797 34.3597 8.71875 34.3858C8.59357 35.1064 8.54666 35.8384 8.57884 36.5691C8.59465 36.7776 8.62181 36.9851 8.66018 37.1906L8.69923 37.4021L8.52027 37.2817C8.21542 37.0827 7.85936 36.9764 7.49531 36.9758C7.22524 36.9824 7.06254 37.0279 7.05603 37.0051Z" fill="#EB996E"/>
<path d="M4.4906 29.2875C4.54266 29.2875 4.47108 29.678 4.12617 29.9773C3.78126 30.2767 3.39405 30.3027 3.39405 30.2474C3.39405 30.1921 3.70317 30.0977 3.99928 29.8342C4.29538 29.5706 4.43854 29.268 4.4906 29.2875Z" fill="#EB996E"/>
<path d="M42.9883 76.2045L30.0867 76.3314L32.2506 66.97L31.5249 68.7369C30.8561 70.3682 29.7172 71.7636 28.253 72.7458C26.7888 73.7279 25.0655 74.2523 23.3024 74.2522C19.2221 74.2522 16.401 71.2163 14.6765 67.5199C10.6417 58.8777 6.75333 44.9609 6.75333 44.9609L14.6179 38.0497C20.3122 48.82 25.6615 58.1716 25.6615 58.1716C25.6615 58.1716 27.2071 53.4763 28.4012 49.2853C29.5954 45.0943 29.5856 42.8947 31.4176 40.8057C34.2387 37.5909 38.2507 36.7937 41.9861 35.8306L42.126 53.2192L42.9883 76.2045Z" fill="#FF7D1F"/>
<path d="M57.7525 63.2711L34.2596 67.8265L33.1175 76.8528H69.1377C70.1237 76.8649 71.1014 76.6713 72.0084 76.2844C72.9154 75.8974 73.7317 75.3256 74.4053 74.6055C75.0789 73.8853 75.595 73.0327 75.9206 72.1019C76.2461 71.1711 76.3741 70.1827 76.2962 69.1997C75.7788 62.6204 75.2159 54.5182 74.7864 51.0919C74.461 48.4205 73.3873 45.658 72.128 43.2827C70.3091 39.8596 64.2472 35.4734 58.9336 35.2456L57.9282 57.6224" fill="#FF7D1F"/>
<path d="M62.225 62.5999C62.2334 62.5286 62.2334 62.4565 62.225 62.3852C62.225 62.2257 62.225 62.0207 62.225 61.7702C62.225 61.2138 62.225 60.4459 62.225 59.4925C62.225 57.5825 62.2608 54.9371 62.4072 52.0314C62.4821 50.5737 62.5764 49.1875 62.6773 47.9315C62.7245 46.8166 62.8826 45.7092 63.1491 44.6256C63.3352 43.9023 63.6898 43.2333 64.1838 42.6733C64.3752 42.4778 64.5772 42.2931 64.7891 42.1201C64.5406 42.2479 64.3152 42.4162 64.122 42.618C63.5952 43.1739 63.216 43.8529 63.019 44.5931C62.7348 45.6853 62.5647 46.8041 62.5114 47.9315C62.4007 49.1908 62.3031 50.5769 62.2283 52.0346C62.0786 54.9631 62.0623 57.5955 62.0949 59.5185C62.1144 60.4752 62.1404 61.2496 62.1632 61.7962L62.199 62.4112C62.2002 62.4749 62.209 62.5383 62.225 62.5999Z" fill="#263238"/>
<path d="M34.7133 68.4766C34.961 68.2028 35.2497 67.969 35.569 67.7835C35.9487 67.5766 36.3518 67.416 36.7697 67.3052C37.2545 67.1653 37.8239 67.0579 38.4519 66.931C40.9639 66.4169 44.4293 65.7043 48.2688 64.9787C52.1084 64.2531 55.603 63.6771 58.1313 63.2736L61.1281 62.7953L61.9415 62.6587C62.0373 62.6469 62.132 62.6273 62.2246 62.6001C62.1286 62.6006 62.0328 62.6093 61.9383 62.6261L61.1183 62.7303C60.409 62.8246 59.3807 62.9678 58.115 63.1565C55.5802 63.534 52.0823 64.0936 48.2395 64.8127C44.3967 65.5318 40.9314 66.2607 38.4291 66.8008C37.8012 66.9375 37.2317 67.0546 36.7437 67.2043C36.3211 67.3239 35.9155 67.4966 35.5365 67.7184C35.293 67.8559 35.0733 68.0317 34.8857 68.239C34.8357 68.2905 34.7899 68.346 34.749 68.405C34.7263 68.444 34.71 68.4766 34.7133 68.4766Z" fill="#263238"/>
<path d="M62.1548 62.6001C62.1548 62.6294 62.5876 62.7302 63.2579 63.0036C63.6492 63.1653 64.0296 63.3522 64.3967 63.5632C64.8406 63.8279 65.2638 64.126 65.6625 64.4548C66.0502 64.7909 66.4114 65.1564 66.7427 65.5481C67.0154 65.8711 67.2655 66.2124 67.4911 66.5698C67.8751 67.1848 68.0508 67.6013 68.0801 67.5883C68.0598 67.4834 68.0259 67.3817 67.9792 67.2857C67.8684 67.0183 67.7401 66.7585 67.5953 66.508C67.378 66.1366 67.1333 65.7821 66.8631 65.4472C66.1952 64.6278 65.3782 63.9422 64.4553 63.4266C64.0814 63.2156 63.6907 63.036 63.2871 62.8897C63.0157 62.7884 62.7373 62.7069 62.4542 62.6456C62.357 62.6165 62.2562 62.6012 62.1548 62.6001Z" fill="#263238"/>
<path d="M31.8191 68.2227C31.8415 68.1493 31.8578 68.0742 31.8679 67.9982C31.8939 67.8355 31.9297 67.6207 31.972 67.3474C32.0631 66.7845 32.1835 65.971 32.3202 64.9623C32.5935 62.9482 32.9254 60.1564 33.2052 57.0652C33.485 53.974 33.651 51.1692 33.7421 49.1355C33.7877 48.1203 33.8137 47.2971 33.8267 46.7277C33.8267 46.4565 33.8267 46.2396 33.8267 46.0769C33.8338 46.0011 33.8338 45.9249 33.8267 45.8491C33.8091 45.9238 33.8004 46.0002 33.8007 46.0769L33.7584 46.7277C33.7226 47.3134 33.677 48.1301 33.6185 49.129C33.4981 51.1594 33.3093 53.961 33.0328 57.0489C32.7562 60.1368 32.4406 62.9286 32.1965 64.946C32.0761 65.9417 31.9753 66.7519 31.9037 67.3376C31.8744 67.6077 31.8484 67.8225 31.8288 67.9884C31.8157 68.0658 31.8124 68.1445 31.8191 68.2227Z" fill="#263238"/>
<path d="M24.0267 64.7245C24.0267 64.7245 24.1015 64.653 24.2154 64.5098C24.3731 64.3021 24.5176 64.0848 24.6482 63.859C25.5213 62.3686 25.9239 60.6493 25.8033 58.9262C25.7869 58.667 25.7521 58.4093 25.6992 58.155C25.6876 58.0601 25.6635 57.967 25.6276 57.8784C25.5983 57.8784 25.6601 58.2819 25.6829 58.9327C25.7372 60.6313 25.3445 62.3143 24.544 63.8135C24.2382 64.3764 24.0006 64.705 24.0267 64.7245Z" fill="#263238"/>
<path d="M62.3199 50.509C62.3199 50.509 62.3622 50.5252 62.4403 50.535C62.5577 50.5539 62.6761 50.5658 62.795 50.5708C63.2314 50.5891 63.6685 50.5542 64.0965 50.4667C64.7322 50.3389 65.3528 50.1448 65.9479 49.8875C66.6215 49.6076 67.3373 49.2367 68.0857 48.8755C68.7863 48.5237 69.5117 48.2235 70.2561 47.9775C70.8601 47.7746 71.4879 47.651 72.1238 47.6098C72.7128 47.5906 73.3014 47.6575 73.8711 47.8083C73.8361 47.785 73.7977 47.7674 73.7572 47.7562C73.6518 47.7101 73.543 47.672 73.4318 47.6423C73.0077 47.5287 72.5691 47.4782 72.1303 47.4926C71.4806 47.513 70.8369 47.6225 70.217 47.818C69.463 48.0606 68.7297 48.3631 68.0239 48.7226C67.2723 49.0935 66.5629 49.458 65.8991 49.7411C65.3148 50.0007 64.7068 50.2034 64.0835 50.3463C63.5033 50.4649 62.9119 50.5194 62.3199 50.509Z" fill="#FAFAFA"/>
<path d="M58.2809 49.7188C58.906 49.909 59.546 50.0462 60.1942 50.1287C60.8363 50.2686 61.4897 50.3502 62.1465 50.3728C61.5214 50.1825 60.8814 50.0454 60.2332 49.9628C59.5911 49.8228 58.9377 49.7411 58.2809 49.7188Z" fill="#FAFAFA"/>
<path d="M62.4662 56.7017C62.616 56.7861 62.7741 56.8548 62.938 56.9067C63.2471 57.027 63.6994 57.1897 64.2623 57.372C65.7344 57.8443 67.2368 58.2161 68.7592 58.4848C69.6507 58.641 70.5065 58.7548 71.2874 58.8329C71.98 58.9224 72.68 58.941 73.3764 58.8883C73.8488 58.8501 74.3089 58.7185 74.73 58.501C74.8445 58.4415 74.9534 58.3719 75.0554 58.2928C75.0929 58.2671 75.1269 58.2365 75.1562 58.2017C75.1562 58.2017 75.0001 58.3026 74.704 58.4425C74.2822 58.6329 73.8287 58.7432 73.3666 58.7679C72.6787 58.8035 71.989 58.773 71.3069 58.6768C70.5293 58.5889 69.68 58.4718 68.7917 58.3156C67.2764 58.0469 65.7773 57.6938 64.3014 57.2581C63.7352 57.0889 63.2797 56.9327 62.964 56.8448C62.8019 56.7849 62.6355 56.737 62.4662 56.7017Z" fill="#FAFAFA"/>
<path d="M58.3888 58.4163C58.9751 58.5094 59.5688 58.5476 60.1622 58.5302C60.7537 58.5675 61.3475 58.549 61.9355 58.4749C61.3493 58.3817 60.7556 58.3436 60.1622 58.361C59.5707 58.3237 58.9769 58.3422 58.3888 58.4163Z" fill="#FAFAFA"/>
<path d="M75.1328 73.2402C75.129 73.1802 75.117 73.1211 75.097 73.0645C75.0645 72.9343 75.0189 72.7749 74.9669 72.5764L74.8693 72.225C74.827 72.0981 74.7716 71.9647 74.7196 71.8182C74.6026 71.4859 74.4679 71.16 74.3161 70.8421L74.0525 70.2857C73.9582 70.0904 73.8378 69.9017 73.7271 69.7C73.4817 69.2733 73.2146 68.8595 72.9267 68.4603C71.5974 66.6225 69.8642 65.1141 67.8604 64.0513C67.4247 63.821 66.9772 63.6135 66.5199 63.4298C66.3018 63.3484 66.1001 63.2541 65.8951 63.189L65.3062 63.0035C64.9688 62.896 64.6255 62.808 64.2779 62.74C64.125 62.7074 63.9851 62.6716 63.8549 62.6488L63.4905 62.6L62.9894 62.5382C62.9312 62.5296 62.872 62.5296 62.8137 62.5382C62.8692 62.5595 62.9271 62.5737 62.9862 62.5805L63.4808 62.6749L63.8387 62.7367L64.2584 62.8408C64.5578 62.9222 64.9092 62.9905 65.2704 63.1272L65.8496 63.3224C66.0513 63.3907 66.253 63.4851 66.4645 63.5697C66.9152 63.7567 67.3561 63.9663 67.7856 64.1977C68.7641 64.7389 69.6853 65.3777 70.5351 66.1044C71.3745 66.8452 72.1376 67.6682 72.8128 68.5611C73.1057 68.9841 73.3953 69.3811 73.6165 69.7813C73.7304 69.9798 73.8508 70.1653 73.9419 70.3573L74.2152 70.9039C74.4007 71.2488 74.5146 71.5807 74.6382 71.8801C74.6935 72.0232 74.7521 72.1566 74.7977 72.2803L74.9116 72.6252L75.071 73.1035C75.0866 73.1512 75.1073 73.197 75.1328 73.2402Z" fill="#FAFAFA"/>
<path d="M58.8146 63.2451C59.3588 63.7179 59.8111 64.2871 60.1487 64.9241C60.5036 65.6205 60.7556 66.3647 60.897 67.1335C61.0653 68.0791 61.174 69.0344 61.2224 69.9936C61.263 70.96 61.3717 71.9223 61.5478 72.8733C61.7072 73.6529 61.9825 74.4042 62.3645 75.1022C62.6197 75.57 62.9494 75.9932 63.3407 76.3549C63.4473 76.4538 63.5615 76.5441 63.6823 76.625C63.7637 76.6803 63.8092 76.7096 63.8125 76.7031C63.2584 76.2408 62.7969 75.6777 62.4524 75.0436C62.0919 74.3512 61.8332 73.6104 61.6845 72.844C61.5113 71.8991 61.4025 70.9435 61.3591 69.9839C61.3168 69.0166 61.2081 68.0533 61.0337 67.1009C60.8822 66.3214 60.6146 65.5689 60.2398 64.8688C59.984 64.3965 59.6545 63.9681 59.2636 63.5998C59.1612 63.5017 59.0525 63.4104 58.9382 63.3265C58.9006 63.2942 58.8591 63.2669 58.8146 63.2451Z" fill="#FAFAFA"/>
<path d="M53.262 76.9082C53.3075 76.9082 53.2619 74.1034 53.1416 70.6478C53.0212 67.1922 52.8975 64.3906 52.852 64.3906C52.8064 64.3906 52.852 67.1955 52.9724 70.6543C53.0927 74.1132 53.2164 76.9115 53.262 76.9082Z" fill="#FAFAFA"/>
<path d="M44.4308 76.4262C44.492 76.2957 44.54 76.1595 44.574 76.0194C44.6268 75.8591 44.6713 75.6962 44.7074 75.5314C44.7497 75.3394 44.8082 75.1214 44.844 74.8806C44.9452 74.3066 45.0029 73.7257 45.0165 73.143C45.0485 71.7111 44.8282 70.2848 44.3657 68.9293C44.1772 68.3771 43.9477 67.8398 43.6792 67.3219C43.5718 67.0974 43.4514 66.9086 43.3538 66.7394C43.2711 66.5921 43.1798 66.4498 43.0804 66.3132C43.0079 66.189 42.9217 66.0733 42.8234 65.9683C42.7941 65.9845 43.1488 66.4889 43.575 67.3772C43.8279 67.8955 44.0454 68.4303 44.2258 68.9781C44.6715 70.3197 44.8914 71.7261 44.8766 73.1398C44.8692 73.7158 44.8246 74.2908 44.7432 74.8611C44.5805 75.8307 44.3983 76.4164 44.4308 76.4262Z" fill="#FAFAFA"/>
<path d="M59.4278 40.4653C59.4278 40.4913 59.9419 40.2668 60.7879 39.9935C62.9915 39.2821 65.3268 39.0752 67.621 39.3882C68.4996 39.5086 69.0365 39.6453 69.043 39.616C68.9263 39.5597 68.8026 39.5192 68.6753 39.4956C68.3348 39.4015 67.9894 39.3265 67.6406 39.2711C65.3289 38.887 62.9575 39.0964 60.7489 39.8796C60.417 39.9966 60.0912 40.1302 59.7727 40.2798C59.6506 40.3272 59.5347 40.3895 59.4278 40.4653Z" fill="#FAFAFA"/>
<path d="M33.7228 54.1601C34.1252 54.1811 34.5285 54.1746 34.93 54.1406C35.6751 54.1113 36.7034 54.0722 37.839 54.0462C38.9745 54.0202 40.0028 54.0039 40.7479 53.9974C41.1508 54.0102 41.5541 53.9961 41.9551 53.9551C41.8484 53.9299 41.7393 53.9168 41.6297 53.9161C41.4214 53.9161 41.1188 53.8868 40.7446 53.877C39.9995 53.8542 38.9713 53.8477 37.8324 53.877C36.6936 53.9063 35.6654 53.9649 34.904 54.0267C34.533 54.056 34.2337 54.082 34.0254 54.108C33.923 54.1145 33.8215 54.132 33.7228 54.1601Z" fill="#FAFAFA"/>
<path d="M27.2999 52.9268C27.2999 52.956 27.7066 53.096 28.3411 53.4083C30.0009 54.2248 31.407 55.4779 32.4085 57.0331C32.7924 57.6286 32.9779 58.0256 33.0039 58.0093C32.9858 57.9065 32.9506 57.8076 32.8998 57.7164C32.7858 57.4578 32.6554 57.2068 32.5093 56.9648C32.032 56.1602 31.4327 55.4346 30.7327 54.814C30.0347 54.1915 29.2458 53.6791 28.3932 53.2944C28.136 53.1786 27.8719 53.0787 27.6025 52.9951C27.505 52.9592 27.4033 52.9362 27.2999 52.9268Z" fill="#FAFAFA"/>
<path d="M30.4662 42.4981C31.0264 42.4789 31.5857 42.5571 32.1192 42.7292C32.695 42.9302 33.2533 43.1783 33.7884 43.471C34.4489 43.8372 35.139 44.1474 35.8513 44.3984C37.168 44.8203 38.5684 44.9108 39.9284 44.662C40.3371 44.5878 40.7388 44.4789 41.1291 44.3366C41.275 44.2909 41.4158 44.2298 41.5488 44.1543C41.5488 44.1218 40.9371 44.3789 39.9219 44.5448C38.5808 44.7542 37.2094 44.6484 35.9164 44.2357C35.2122 43.9865 34.528 43.6842 33.8697 43.3311C33.3251 43.042 32.7555 42.8024 32.168 42.6153C31.7684 42.4884 31.3507 42.4279 30.9315 42.4363C30.8224 42.4395 30.7137 42.4504 30.6061 42.4689C30.5052 42.4819 30.4629 42.4916 30.4662 42.4981Z" fill="#FAFAFA"/>
<path d="M32.0909 64.3055C32.2088 64.3805 32.3356 64.4406 32.4683 64.4845C32.592 64.5365 32.7449 64.5984 32.9271 64.6569C33.1093 64.7155 33.3143 64.7936 33.5453 64.8522C34.0902 65.004 34.6446 65.1192 35.2048 65.1971C35.8908 65.286 36.5827 65.3219 37.2743 65.3044C37.9656 65.2787 38.6541 65.2015 39.3339 65.0734C39.8857 64.9619 40.4293 64.813 40.9609 64.6276C41.1919 64.5561 41.3904 64.4682 41.5661 64.3966C41.7418 64.325 41.8915 64.2567 42.0151 64.1981C42.1446 64.1443 42.2678 64.0767 42.3828 63.9964C42.3828 63.9671 41.8329 64.2274 40.9218 64.5138C40.3883 64.6816 39.845 64.8164 39.2949 64.9172C37.9491 65.1664 36.573 65.2081 35.2146 65.0409C34.66 64.9727 34.1102 64.8705 33.5681 64.735C32.6505 64.5007 32.1006 64.2762 32.0909 64.3055Z" fill="#FAFAFA"/>
<path d="M24.6132 73.9371C24.6596 73.9078 24.7022 73.8728 24.7401 73.833C24.8149 73.7582 24.9386 73.6573 25.0655 73.5076C25.4584 73.0874 25.8032 72.6246 26.0937 72.128C27.0327 70.4641 27.5322 68.5883 27.5449 66.6778C27.5428 64.7806 27.2945 62.8917 26.8063 61.0584C26.6306 60.3555 26.4809 59.7893 26.3605 59.4021C26.3052 59.2232 26.2596 59.0767 26.2239 58.9564C26.1881 58.836 26.1718 58.8002 26.1653 58.8034C26.166 58.8576 26.1747 58.9113 26.1913 58.9629C26.2173 59.0865 26.2531 59.2362 26.2954 59.4184C26.3931 59.8382 26.5265 60.3946 26.6892 61.0876C27.1383 62.915 27.3666 64.7896 27.3692 66.6713C27.3588 68.5512 26.8885 70.4 25.9993 72.0564C25.7206 72.5526 25.3936 73.0202 25.0232 73.4523C24.7661 73.7647 24.6034 73.9241 24.6132 73.9371Z" fill="#FAFAFA"/>
<path d="M12.774 62.8868C13.2939 62.4744 13.8745 62.1451 14.4953 61.9106C15.1743 61.6758 15.8706 61.4941 16.5778 61.3672C17.4562 61.2191 18.3253 61.0203 19.1808 60.7718C20.7256 60.2694 22.1356 59.4214 23.3035 58.2923C23.6558 57.9517 23.982 57.5851 24.2796 57.1958C24.387 57.0591 24.4586 56.9452 24.5107 56.8704C24.5627 56.7956 24.5855 56.7533 24.579 56.75C24.4532 56.8767 24.3358 57.0115 24.2276 57.1535C23.9153 57.525 23.5795 57.8761 23.2221 58.2045C22.0491 59.293 20.6536 60.1134 19.132 60.6091C18.2854 60.8561 17.4262 61.0581 16.5582 61.2143C15.845 61.3511 15.1442 61.5459 14.4627 61.7967C14.0024 61.9707 13.5704 62.212 13.1807 62.5126C13.0743 62.5926 12.9742 62.6807 12.8814 62.7762C12.8 62.8477 12.7675 62.8835 12.774 62.8868Z" fill="#FAFAFA"/>
<path d="M9.04993 52.0285C9.17531 51.9389 9.29189 51.8376 9.39808 51.7259C9.50546 51.6251 9.63562 51.5014 9.79831 51.3648C9.96101 51.2281 10.1237 51.0654 10.345 50.9092C10.8256 50.5215 11.3298 50.164 11.8548 49.8387C13.1422 49.0424 14.5417 48.4436 16.0067 48.0621C16.6054 47.908 17.2128 47.7896 17.8256 47.7074C18.0859 47.6651 18.3234 47.6488 18.5317 47.6293C18.7399 47.6098 18.9221 47.5935 19.0685 47.587C19.2224 47.5864 19.3759 47.5722 19.5273 47.5447C19.3756 47.5213 19.2219 47.5136 19.0685 47.5219C18.8875 47.5129 18.7062 47.5129 18.5252 47.5219C18.3169 47.5219 18.0729 47.5382 17.8093 47.574C17.19 47.6417 16.5758 47.7504 15.9709 47.8994C15.2297 48.0894 14.5032 48.333 13.7973 48.6283C13.0972 48.9335 12.4207 49.2902 11.7734 49.6955C11.247 50.0314 10.7437 50.402 10.2669 50.8051C10.0586 50.971 9.88942 51.1305 9.73323 51.2867C9.59977 51.408 9.4727 51.5361 9.35254 51.6706C9.23913 51.7787 9.13768 51.8987 9.04993 52.0285Z" fill="#FAFAFA"/>
<path d="M37.5208 37.0938C37.7118 37.2212 37.9199 37.3209 38.139 37.3899C38.6523 37.5912 39.1798 37.7543 39.7171 37.878C40.2524 38.0041 40.7961 38.0911 41.344 38.1383C41.5705 38.1726 41.8009 38.1726 42.0273 38.1383C42.0273 38.0862 40.9959 38.0016 39.7496 37.7055C38.5034 37.4094 37.5403 37.045 37.5208 37.0938Z" fill="#FAFAFA"/>
<path d="M25.9825 82.9202C25.9402 83.0653 25.9349 83.2188 25.9672 83.3665C25.9995 83.5142 26.0684 83.6515 26.1674 83.7657C26.2664 83.88 26.3925 83.9676 26.5342 84.0205C26.6758 84.0735 26.8284 84.0901 26.9781 84.0688C27.1517 84.0442 27.3143 83.9695 27.446 83.854C27.5778 83.7384 27.673 83.5869 27.72 83.418L27.9966 82.3963H27.9543C27.9261 82.5438 27.9334 82.696 27.9756 82.8401C28.0178 82.9843 28.0937 83.1163 28.197 83.2254C28.3003 83.3344 28.4281 83.4173 28.5698 83.4672C28.7114 83.5171 28.863 83.5326 29.0118 83.5124C29.4381 83.5124 29.8057 82.8909 29.9294 82.5622C30.2511 82.5935 30.5753 82.536 30.8667 82.396C31.1581 82.256 31.4056 82.039 31.5823 81.7683L33.4924 78.7878L37.0293 76.2009L34.8883 68.5576L27.2775 73.484C26.9781 73.7182 26.9326 73.8094 26.4575 74.2551L21.5442 78.7747C22.1006 79.1001 22.5724 79.0839 23.3468 78.7747C24.1212 78.4656 27.5118 76.1717 27.5118 76.1717L25.9825 82.8909" fill="#FFBE9D"/>
<path d="M32.4917 76.6343C32.4917 76.6343 32.4039 76.6733 32.2672 76.7677L32.0134 76.9434C31.8928 77.019 31.7833 77.111 31.688 77.2167C31.5754 77.3461 31.4872 77.495 31.4277 77.656C31.3692 77.8284 31.3073 78.0042 31.2423 78.1896L30.8258 79.4131C30.5362 80.2851 30.2824 81.0725 30.1067 81.6485C29.9955 81.9539 29.9117 82.2686 29.8561 82.5888C30.0038 82.2986 30.1258 81.9959 30.2206 81.6843C30.4256 81.1181 30.6989 80.3372 30.9885 79.4684C31.1284 79.0356 31.265 78.6224 31.3919 78.2417C31.4505 78.053 31.5058 77.874 31.5611 77.7048C31.6099 77.5557 31.6836 77.4159 31.7791 77.2916C31.8615 77.1899 31.9554 77.0982 32.059 77.0182L32.2933 76.8197C32.4332 76.7091 32.4983 76.644 32.4917 76.6343Z" fill="#EB996E"/>
<path d="M27.9121 82.5726C27.9606 82.4688 27.9966 82.3595 28.0195 82.2472L28.2635 81.3752C28.4718 80.6398 28.7483 79.6214 29.103 78.5118C29.4577 77.4022 29.8286 76.4131 30.2744 75.8013C30.4407 75.557 30.6515 75.3461 30.8959 75.1798C31.0748 75.0692 31.1887 75.0367 31.1855 75.0171C31.1554 75.0164 31.1255 75.022 31.0976 75.0334C31.0166 75.0542 30.938 75.0836 30.8633 75.1213C30.5932 75.272 30.3589 75.4796 30.1768 75.7297C29.692 76.348 29.3015 77.3567 28.9436 78.4597C28.5856 79.5628 28.3253 80.6008 28.1496 81.3459C28.0618 81.7168 27.9967 82.0195 27.9544 82.231C27.9232 82.3421 27.9089 82.4573 27.9121 82.5726Z" fill="#EB996E"/>
<path d="M25.9473 83.0346C26.006 82.9269 26.0508 82.8121 26.0807 82.693C26.162 82.4327 26.2629 82.1171 26.3833 81.7429C26.6306 80.9392 26.9592 79.8263 27.3139 78.5964C27.6685 77.3664 27.9646 76.2861 28.2087 75.4401C28.2928 75.1266 28.4752 74.8483 28.7293 74.6462C28.8323 74.5798 28.9412 74.5232 29.0547 74.477C29.0226 74.4693 28.9892 74.4693 28.9571 74.477C28.8658 74.4975 28.7788 74.5338 28.7 74.5844C28.4159 74.7796 28.2061 75.0651 28.1046 75.3946C27.8378 76.1983 27.5221 77.3111 27.1609 78.5411C26.7998 79.771 26.4939 80.8936 26.2759 81.7038C26.1783 82.0813 26.0937 82.4034 26.0286 82.68C25.9892 82.795 25.9619 82.9139 25.9473 83.0346Z" fill="#EB996E"/>
</svg>
