<svg width="101" height="85" viewBox="0 0 101 85" fill="none" xmlns="http://www.w3.org/2000/svg">
<path d="M12.6691 38.2869H13.1691V37.7869V16.8589C13.1691 13.5591 14.48 10.3945 16.8133 8.06115C19.1466 5.72783 22.3113 4.41699 25.6111 4.41699H84.3361C87.6358 4.41699 90.8005 5.72783 93.1338 8.06115C95.4671 10.3945 96.778 13.5591 96.778 16.8589V64.683C96.778 67.9828 95.4671 71.1474 93.1338 73.4807C90.8005 75.814 87.6358 77.1249 84.3361 77.1249H25.6111C22.3113 77.1249 19.1466 75.814 16.8133 73.4807C14.48 71.1474 13.1691 67.9828 13.1691 64.683V50.456V50.2489L13.0227 50.1025L1.20711 38.2869H12.6691Z" fill="white" stroke="#131313"/>
<path d="M60.3438 6.1295C59.9725 7.09242 60.61 8.14079 61.3298 8.88352C62.0495 9.62626 62.9105 10.3295 63.1373 11.3352C63.3246 12.1798 63.0124 13.0573 63.088 13.9183C63.1636 14.7794 63.6401 15.5911 63.9096 16.4324C64.3993 17.9573 64.2021 19.6236 63.765 21.1649C63.4498 22.4457 62.8474 23.6381 62.0035 24.6518C61.5784 25.1539 61.0516 25.56 60.4579 25.8432C59.8641 26.1265 59.217 26.2805 58.5593 26.295C58.3734 26.3067 58.187 26.28 58.0117 26.2167C57.8365 26.1534 57.6761 26.0548 57.5405 25.9269C57.3562 25.661 57.2544 25.3466 57.248 25.0231C56.4954 18.4059 56.4954 11.7247 57.248 5.10742" fill="#263238"/>
<path d="M59.6491 27.454C62.5082 27.3291 65.1505 30.0667 64.9238 32.9194C67.8191 33.6259 69.8534 36.8105 69.298 39.7354C69.1106 40.7016 68.6801 41.6218 68.621 42.6012C68.5552 43.6725 68.9496 44.7143 69.1435 45.766C69.5156 47.6827 69.3168 49.6665 68.5717 51.4712C68.1214 52.559 67.2801 53.683 66.1036 53.7158C65.705 53.6991 65.3166 53.5844 64.9727 53.3821C64.6288 53.1798 64.34 52.896 64.1317 52.5557C63.7221 51.8669 63.4519 51.1042 63.3364 50.3111C62.827 47.7411 62.6791 45.1021 61.9693 42.5814C61.2594 40.0607 59.8791 37.5762 57.6016 36.2978C56.3429 35.5879 54.8312 35.2527 53.8288 34.2109C53.3246 33.6423 52.9884 32.9447 52.8578 32.196C52.7272 31.4474 52.8074 30.6772 53.0894 29.9714C53.3848 29.272 53.8243 28.6428 54.3792 28.1246C54.9342 27.6065 55.5921 27.2112 56.31 26.9644" fill="#263238"/>
<path d="M39.8613 8.48488C39.8284 7.26233 40.9556 6.31913 42.0927 5.85574C43.2298 5.39236 44.4951 5.2379 45.5073 4.54117C46.4078 3.93647 47.0092 2.99327 47.7684 2.24068C48.7058 1.29003 49.8793 0.606002 51.1685 0.25881C52.4577 -0.0883808 53.816 -0.0862203 55.1041 0.265069C56.3921 0.616358 57.5635 1.30412 58.4979 2.25774C59.4323 3.21136 60.0961 4.39648 60.4211 5.69142C60.8582 7.42994 60.5591 9.48724 59.1887 10.6441C57.5981 11.9849 55.245 11.6859 53.1975 11.2685C51.1501 10.8511 48.8496 10.4403 47.1472 11.6398C46.1219 12.3596 45.5303 13.5361 44.9026 14.6239C44.2749 15.7117 43.4895 16.8193 42.3031 17.2301C41.1167 17.6409 39.503 16.931 39.457 15.6789" fill="#263238"/>
<path d="M44.678 8.73462C44.1691 8.78963 43.6994 9.03352 43.3617 9.4181C43.024 9.80267 42.8428 10.2999 42.854 10.8116L44.0733 38.4176C44.1258 41.6777 48.8911 43.5083 52.3813 43.4261C55.9076 43.3439 56.0194 41.6153 56.0654 38.5129C56.1377 33.3335 56.1311 31.3879 56.1344 31.4175C56.1377 31.4471 60.5875 30.6682 61.4979 24.8447C61.9481 21.9559 61.7936 17.2169 61.5406 13.3422C61.3138 9.85529 58.9936 5.58294 55.5199 5.95759L44.678 8.73462Z" fill="#FFBE9D"/>
<path d="M60.5402 17.0032C60.5421 17.1971 60.4683 17.3842 60.3346 17.5247C60.2008 17.6652 60.0176 17.7481 59.8238 17.7558C59.73 17.7638 59.6355 17.7532 59.5459 17.7244C59.4562 17.6956 59.3732 17.6493 59.3017 17.5881C59.2301 17.527 59.1714 17.4522 59.129 17.3681C59.0866 17.284 59.0614 17.1924 59.0548 17.0985C59.0521 16.9043 59.1255 16.7167 59.2595 16.576C59.3934 16.4354 59.5771 16.3527 59.7712 16.3459C59.865 16.3378 59.9595 16.3485 60.0491 16.3772C60.1387 16.406 60.2218 16.4523 60.2933 16.5135C60.3649 16.5747 60.4236 16.6495 60.466 16.7335C60.5084 16.8176 60.5336 16.9093 60.5402 17.0032Z" fill="#263238"/>
<path d="M60.5182 15.8199C60.4262 15.9185 59.8609 15.4913 59.059 15.4913C58.2571 15.4913 57.6689 15.8988 57.5801 15.8002C57.5374 15.7575 57.6327 15.58 57.8891 15.3927C58.235 15.1518 58.6473 15.0243 59.0689 15.0279C59.4862 15.0255 59.8936 15.1555 60.2323 15.3993C60.4788 15.5932 60.5642 15.7772 60.5182 15.8199Z" fill="#263238"/>
<path d="M52.8312 17.0032C52.8331 17.1971 52.7593 17.3842 52.6256 17.5247C52.4918 17.6652 52.3086 17.7481 52.1148 17.7558C52.021 17.7638 51.9265 17.7532 51.8369 17.7244C51.7473 17.6956 51.6642 17.6493 51.5927 17.5881C51.5211 17.527 51.4624 17.4522 51.42 17.3681C51.3776 17.284 51.3524 17.1924 51.3458 17.0985C51.3431 16.9043 51.4166 16.7167 51.5505 16.576C51.6844 16.4354 51.8681 16.3527 52.0622 16.3459C52.156 16.3378 52.2505 16.3485 52.3401 16.3772C52.4298 16.406 52.5128 16.4523 52.5843 16.5135C52.6559 16.5747 52.7146 16.6495 52.757 16.7335C52.7994 16.8176 52.8246 16.9093 52.8312 17.0032Z" fill="#263238"/>
<path d="M52.6499 15.9877C52.5579 16.0863 51.9926 15.6591 51.1907 15.6591C50.3888 15.6591 49.8006 16.0666 49.7151 15.968C49.6724 15.9253 49.7644 15.7478 50.0208 15.5605C50.3666 15.319 50.7787 15.1904 51.2006 15.1924C51.6183 15.1909 52.0256 15.3221 52.364 15.5671C52.594 15.7675 52.6795 15.945 52.6499 15.9877Z" fill="#263238"/>
<path d="M55.5588 21.9293C55.5588 21.8833 56.0518 21.7979 56.8734 21.6927C57.0772 21.6697 57.2711 21.627 57.3072 21.4889C57.3223 21.2771 57.2743 21.0655 57.1692 20.8809L56.5579 19.3232C55.7133 17.1048 55.0987 15.2809 55.1908 15.248C55.2828 15.2151 56.0387 16.9865 56.8833 19.1917L57.4683 20.7593C57.5957 21.0062 57.634 21.2894 57.5767 21.5612C57.5479 21.6329 57.5034 21.6972 57.4465 21.7495C57.3897 21.8018 57.3219 21.8408 57.2481 21.8636C57.141 21.8931 57.0305 21.9086 56.9194 21.9096C56.065 21.9687 55.5621 21.9753 55.5588 21.9293Z" fill="#263238"/>
<path d="M56.1365 31.42C53.3995 31.4672 50.7032 30.7538 48.3477 29.3594C48.3477 29.3594 50.2439 33.3491 56.0609 32.7904L56.1365 31.42Z" fill="#EB996E"/>
<path d="M55.2253 23.8613C55.0706 23.6669 54.8683 23.5157 54.638 23.4224C54.4077 23.3291 54.1572 23.2969 53.9107 23.3289C53.7338 23.3448 53.5619 23.3963 53.4054 23.4805C53.249 23.5647 53.1112 23.6797 53.0004 23.8186C52.8935 23.9526 52.8305 24.1163 52.82 24.2874C52.8094 24.4585 52.8517 24.6287 52.9413 24.7749C53.0699 24.9193 53.239 25.0215 53.4266 25.0684C53.6141 25.1153 53.8115 25.1047 53.9929 25.0378C54.3713 24.9034 54.7188 24.6944 55.015 24.4233C55.106 24.3597 55.1841 24.2794 55.245 24.1866C55.275 24.1425 55.291 24.0904 55.291 24.0371C55.291 23.9838 55.275 23.9317 55.245 23.8876" fill="#EB996E"/>
<path d="M53.1997 22.4946C53.3311 22.4946 53.3344 23.359 54.0804 23.9735C54.8264 24.5881 55.7532 24.4928 55.7598 24.6308C55.7598 24.6867 55.5527 24.8017 55.1617 24.8116C54.6516 24.8208 54.1546 24.6497 53.7584 24.3285C53.3791 24.0182 53.1352 23.5728 53.0781 23.0862C53.0419 22.7017 53.1405 22.4946 53.1997 22.4946Z" fill="#263238"/>
<path d="M52.9788 14.5809C52.9 14.8011 52.0981 14.6992 51.1582 14.8143C50.2182 14.9293 49.4558 15.1889 49.3309 14.9917C49.275 14.8997 49.4065 14.6926 49.7121 14.4823C50.1202 14.22 50.5826 14.0541 51.0644 13.9972C51.5461 13.9402 52.0345 13.9938 52.4924 14.1537C52.8507 14.3081 53.0248 14.479 52.9788 14.5809Z" fill="#263238"/>
<path d="M60.2108 13.4989C60.0694 13.6797 59.5173 13.4989 58.8502 13.4989C58.183 13.4989 57.6244 13.6238 57.4962 13.4332C57.437 13.3412 57.5258 13.1604 57.7722 12.9863C58.1021 12.7799 58.4855 12.6757 58.8744 12.6868C59.2633 12.698 59.6402 12.8239 59.9577 13.0487C60.2108 13.2229 60.2798 13.4102 60.2108 13.4989Z" fill="#263238"/>
<path d="M40.6191 27.8548C41.4204 28.0168 42.2488 27.986 43.0358 27.7648C43.8229 27.5437 44.5461 27.1385 45.1457 26.5829C45.7454 26.0272 46.2043 25.3369 46.4847 24.5689C46.765 23.801 46.8587 22.9773 46.7581 22.166C46.5774 20.7364 45.8083 19.2871 46.3046 17.9331C46.9619 16.1486 49.4628 15.5997 50.1267 13.8152C50.5112 12.78 50.1661 11.5673 50.6032 10.5518C51.014 9.59873 52.0197 9.0499 52.999 8.69496C53.9784 8.34003 55.0235 8.09684 55.8451 7.45927C56.6667 6.82171 57.1761 5.61887 56.647 4.72168C52.3065 5.24245 48.0436 6.2784 43.9482 7.80763C42.9985 8.16256 42.0027 8.5898 41.4407 9.43113C40.8491 10.325 40.8787 11.4753 40.928 12.5467C41.1712 17.7655 40.3759 22.6524 40.6191 27.8712" fill="#263238"/>
<path d="M39.2369 26.2181C39.2038 26.2131 39.1716 26.2032 39.1416 26.1885C39.0478 26.1558 38.9583 26.1117 38.8754 26.057C38.5552 25.8499 38.3036 25.5526 38.1524 25.2026C37.9036 24.6493 37.8369 24.0314 37.9617 23.4378C38.1596 22.6666 38.5192 21.9463 39.0167 21.3246C39.5261 20.6147 40.1735 19.895 40.6139 18.9781C40.8487 18.5122 40.9799 18.0009 40.9984 17.4795C40.9794 16.926 40.8683 16.3795 40.6697 15.8626C40.4482 15.3036 40.3313 14.7088 40.3247 14.1076C40.3565 13.4644 40.5454 12.8387 40.8748 12.2853C41.2042 11.7319 41.6641 11.2676 42.2144 10.9329C42.8045 10.6109 43.4591 10.4245 44.1303 10.3874C44.7799 10.3555 45.4233 10.2452 46.0463 10.0587C46.6313 9.83724 47.1121 9.40456 47.3938 8.84605C47.6622 8.29658 47.8758 7.72196 48.0313 7.13053C48.1976 6.56312 48.4177 6.01288 48.6886 5.48732C49.1827 4.49093 49.9352 3.64539 50.8675 3.03894C51.6907 2.52139 52.6538 2.27114 53.6248 2.3225C54.429 2.36409 55.1952 2.67819 55.7971 3.21312C56.2459 3.61655 56.5803 4.13121 56.7666 4.70516C56.8877 5.06443 56.9336 5.44478 56.9014 5.82254C56.8947 5.95392 56.8726 6.08408 56.8356 6.21034C56.8356 6.21034 56.8586 6.07559 56.8685 5.81925C56.8843 5.4473 56.8285 5.07579 56.7042 4.72487C56.4779 4.07904 56.0626 3.51618 55.5123 3.10944C54.962 2.7027 54.302 2.47087 53.6182 2.44409C52.6741 2.4025 51.7401 2.65265 50.9431 3.16053C50.0359 3.75671 49.305 4.58515 48.8266 5.55962C48.5612 6.08531 48.3476 6.63566 48.1891 7.20284C48.0286 7.80495 47.8084 8.38954 47.5318 8.94793C47.3794 9.23688 47.1807 9.49889 46.9435 9.72352C46.6983 9.95057 46.41 10.126 46.0956 10.2395C45.4553 10.4368 44.793 10.5539 44.1238 10.5879C43.4768 10.6219 42.8457 10.8005 42.2768 11.1104C41.7508 11.4295 41.3108 11.8725 40.9952 12.4006C40.6795 12.9287 40.4979 13.526 40.466 14.1405C40.4718 14.7231 40.5832 15.2999 40.7946 15.8428C41.0038 16.3757 41.1205 16.9403 41.1397 17.5123C41.1175 18.0549 40.9785 18.5862 40.7322 19.0701C40.2721 20.01 39.6181 20.7133 39.1054 21.4265C38.6106 22.0306 38.2499 22.733 38.0472 23.4871C37.9162 24.0609 37.9703 24.6614 38.2016 25.2026C38.3438 25.5474 38.5808 25.8448 38.8852 26.0603C39.1054 26.1721 39.2402 26.2049 39.2369 26.2181Z" fill="#455A64"/>
<path d="M56.125 0.876465C56.2048 0.882358 56.2822 0.905932 56.3518 0.945479C56.549 1.02916 56.7337 1.13976 56.9006 1.27412C57.4732 1.71839 57.8525 2.36627 57.9596 3.08304C58.0667 3.7998 57.8934 4.53027 57.4757 5.12252C57.3543 5.29903 57.2107 5.45919 57.0485 5.59905C56.9302 5.69765 56.8579 5.74037 56.8513 5.73051C57.0366 5.52052 57.211 5.30113 57.3738 5.07323C57.7442 4.49572 57.8927 3.80354 57.7918 3.12494C57.6909 2.44634 57.3474 1.82732 56.825 1.38257C56.6016 1.20053 56.3679 1.03154 56.125 0.876465Z" fill="#455A64"/>
<path d="M69.0025 40.7643C69.0718 40.5622 69.1278 40.3558 69.1701 40.1464C69.2471 39.5727 69.1474 38.9892 68.8842 38.4736C68.4787 37.7168 67.8338 37.1158 67.0504 36.7647C66.5919 36.5478 66.113 36.3772 65.6208 36.2553C65.1081 36.1238 64.5658 36.0154 64.0236 35.8379C63.4779 35.6892 62.9747 35.4146 62.5545 35.036C62.1782 34.6592 61.9348 34.1701 61.8611 33.6426C61.7724 33.1529 61.7428 32.6895 61.6343 32.2754C61.5371 31.8924 61.3565 31.5355 61.1052 31.2304C60.7377 30.7834 60.2494 30.4515 59.6986 30.274C59.3076 30.1557 59.0742 30.1557 59.0742 30.136C59.13 30.1305 59.1861 30.1305 59.2418 30.136C59.4026 30.1471 59.5621 30.1724 59.7184 30.2116C60.2948 30.3705 60.81 30.6992 61.1972 31.1548C61.4679 31.4698 61.6644 31.8415 61.7724 32.2426C61.8907 32.6731 61.9268 33.1431 62.0189 33.6163C62.0864 34.1152 62.3176 34.5775 62.6761 34.9309C63.0791 35.2887 63.5594 35.5485 64.0794 35.69C64.6085 35.8609 65.1508 35.9727 65.6668 36.1074C66.1656 36.2295 66.6503 36.4035 67.1128 36.6267C67.9222 36.9973 68.5824 37.6309 68.9861 38.4243C69.2492 38.9635 69.3343 39.5722 69.2293 40.1629C69.198 40.3204 69.1483 40.4737 69.0814 40.6197C69.0601 40.6705 69.0337 40.7189 69.0025 40.7643Z" fill="#455A64"/>
<path d="M43.7242 30.4712C40.7664 29.6824 38.2359 26.8002 37.2039 23.9312C36.172 21.0621 36.172 17.9302 36.4382 14.8935C36.6288 12.6949 37.0166 10.3681 38.4758 8.71175C40.6777 6.21407 43.0768 4.93894 46.3895 5.0441" fill="#263238"/>
<path d="M60.9107 36.8794L58.1666 36.1893C58.4657 35.9836 58.6838 35.6801 58.7834 35.3311C58.883 34.982 58.8578 34.6091 58.7121 34.2766C58.5384 33.8504 58.251 33.48 57.8813 33.2059C57.5116 32.9318 57.0737 32.7645 56.6154 32.7221L44.1073 31.3089C43.8886 31.2798 43.6665 31.3248 43.4764 31.4368C43.2864 31.5488 43.1393 31.7214 43.0589 31.9268C42.5046 33.3378 42.486 34.499 43.0031 35.4104H42.9439L40.5317 35.8902L36.4434 71.9554L63.2211 70.7033L60.9107 36.8794Z" fill="#F5F5F5"/>
<path d="M56.9728 36.3274C56.8085 36.3754 56.6402 36.4084 56.47 36.426C56.1413 36.4786 55.6714 36.5344 55.0864 36.5936C52.0249 36.878 48.9386 36.7242 45.9206 36.1368C45.3422 36.0217 44.8788 35.9166 44.56 35.8311C44.3925 35.7987 44.2285 35.7502 44.0703 35.6865C44.24 35.699 44.4083 35.7265 44.5731 35.7687C44.9018 35.8311 45.3652 35.9199 45.9436 36.0185C48.9585 36.5372 52.0251 36.6895 55.0765 36.472C55.6615 36.4325 56.1348 36.3898 56.4634 36.357C56.6322 36.3338 56.8025 36.3239 56.9728 36.3274Z" fill="#263238"/>
<path d="M44.8691 42.0593C45.1326 41.5122 45.4461 40.9907 45.8058 40.5015C46.1197 39.9813 46.4817 39.4917 46.887 39.0391C46.6231 39.5866 46.3084 40.1081 45.9471 40.5968C45.6349 41.1174 45.274 41.607 44.8691 42.0593Z" fill="#E0E0E0"/>
<path d="M53.5005 42.6704C52.6652 41.8127 51.9136 40.8774 51.2559 39.877C51.6937 40.2867 52.092 40.7367 52.4455 41.2211C52.8432 41.669 53.1965 42.1543 53.5005 42.6704Z" fill="#E0E0E0"/>
<path d="M49.493 47.2551C49.3041 46.6705 49.1688 46.0698 49.0888 45.4607C48.952 44.8617 48.8739 44.2508 48.8555 43.6367C49.0449 44.2212 49.1802 44.8219 49.2597 45.4311C49.3928 46.0307 49.4709 46.6413 49.493 47.2551Z" fill="#E0E0E0"/>
<path d="M56.0815 47.5376C55.6175 48.1146 55.1099 48.6552 54.5631 49.1545C54.0554 49.6952 53.5059 50.1952 52.9199 50.6498C53.3838 50.0727 53.8914 49.5321 54.4382 49.0329C54.9481 48.4944 55.4974 47.9946 56.0815 47.5376Z" fill="#E0E0E0"/>
<path d="M47.2419 53.6831C46.0309 52.9595 45.0445 51.914 44.3926 50.6629C44.4386 50.6333 44.9414 51.4221 45.7334 52.2535C46.5255 53.085 47.2748 53.6404 47.2419 53.6831Z" fill="#E0E0E0"/>
<path d="M50.0814 58.4282C50.0814 58.4775 49.3321 58.7174 48.4644 59.1808C47.5968 59.6442 46.9626 60.1306 46.9297 60.0879C47.3433 59.645 47.8374 59.2847 48.3856 59.0264C48.9069 58.7192 49.4827 58.5161 50.0814 58.4282Z" fill="#E0E0E0"/>
<path d="M54.6994 58.7342C54.5035 58.5683 54.3281 58.3797 54.1768 58.1722C53.8745 57.8107 53.4703 57.2948 53.0496 56.7065C52.6289 56.1182 52.274 55.5694 52.0275 55.1619C51.8808 54.9512 51.7595 54.724 51.666 54.4849C51.8408 54.6724 51.9961 54.8772 52.1294 55.0961L53.1909 56.6079L54.2721 58.0999C54.4366 58.2957 54.5798 58.5083 54.6994 58.7342Z" fill="#E0E0E0"/>
<path d="M55.1629 62.7832C54.5241 63.0072 53.863 63.1614 53.1911 63.2433C52.5264 63.3819 51.8489 63.4491 51.1699 63.4438C51.8264 63.2788 52.4927 63.1558 53.1648 63.0757C53.8244 62.9387 54.4917 62.841 55.1629 62.7832Z" fill="#E0E0E0"/>
<path d="M47.6865 35.8183C47.6635 35.8183 47.8212 35.6211 47.956 35.2728C48.1228 34.8169 48.1725 34.3265 48.1005 33.8465C48.019 33.3627 47.8765 32.8912 47.6766 32.4432C47.5798 32.2598 47.5047 32.0656 47.4531 31.8647C47.5904 32.0223 47.7013 32.201 47.7818 32.3939C48.0208 32.8392 48.1841 33.3212 48.2649 33.8202C48.3444 34.3297 48.2748 34.8513 48.0644 35.3221C47.991 35.5216 47.8593 35.6945 47.6865 35.8183Z" fill="#E0E0E0"/>
<path d="M52.6876 33.1172C52.922 33.4398 53.0895 33.8061 53.1803 34.1943C53.2712 34.5826 53.2836 34.9851 53.2168 35.3782C53.1675 35.3782 53.1609 34.8557 53.013 34.2346C52.8651 33.6134 52.6515 33.1435 52.6876 33.1172Z" fill="#E0E0E0"/>
<path d="M75.249 58.8127L87.7045 36.935L89.2064 33.1392C89.2064 33.1392 93.0909 24.7917 93.3604 23.9372C93.6726 22.9513 94.2215 22.8724 94.5764 23.0104C95.1285 23.2306 95.306 24.0522 95.0628 24.9034C94.9773 25.1959 93.4689 29.7837 93.4689 29.7837C93.8745 29.4341 94.3051 29.1145 94.7572 28.8274C95.7135 28.1701 97.4652 28.203 99.0887 28.7814C100.712 29.3598 101.113 29.6654 100.919 30.303C100.876 30.4227 100.807 30.5312 100.717 30.6205C100.626 30.7098 100.517 30.7776 100.397 30.819C100.014 30.9786 99.586 30.988 99.1971 30.8453C96.5877 29.9579 95.4309 31.1345 95.4309 31.1345L95.237 31.6307C95.237 31.6307 97.2088 31.003 98.3131 31.8903C98.4779 32.0206 98.6162 32.1812 98.7206 32.3636C99.0779 32.4803 99.3986 32.6883 99.6509 32.9671C99.9032 33.2458 100.078 33.5855 100.159 33.9527C100.24 34.3199 100.223 34.7017 100.111 35.0605C99.9986 35.4193 99.7947 35.7426 99.5192 35.9984C99.3994 36.1349 99.2411 36.2319 99.065 36.2765C98.889 36.3211 98.7036 36.3112 98.5332 36.2481C98.3739 36.1396 98.2458 35.9912 98.1619 35.8176C98.1084 35.7307 98.0479 35.6483 97.9811 35.5711L97.2384 36.8857C97.2384 36.8857 95.4079 39.7449 94.7506 41.0825L86.173 63.933C85.891 64.6852 85.462 65.3737 84.9109 65.9583C84.3599 66.5428 83.6978 67.0117 82.9635 67.3376C82.2292 67.6634 81.4374 67.8397 80.6342 67.8561C79.831 67.8725 79.0326 67.7286 78.2856 67.433C77.4796 67.1148 76.7513 66.6272 76.1501 66.0031C75.5488 65.379 75.0887 64.633 74.8007 63.8156C74.5128 62.9983 74.4038 62.1286 74.4812 61.2655C74.5585 60.4023 74.8203 59.5659 75.249 58.8127Z" fill="#FFBE9D"/>
<path d="M88.5625 36.86C89.0029 37.1492 89.6109 36.952 90.0052 36.6102C90.3996 36.2684 90.6625 35.7985 91.0438 35.4271C92.1513 34.3196 94.0015 34.2144 95.063 33.0543C95.2109 32.8933 95.3424 32.6468 95.2142 32.4693C95.086 32.2919 94.8494 32.3247 94.6522 32.3642L89.555 33.3731" fill="#FFBE9D"/>
<path d="M89.5582 33.3729C89.73 33.2951 89.9112 33.2398 90.0972 33.2085C90.4488 33.1198 90.9615 33.0048 91.5925 32.8799L93.8141 32.4099L94.4714 32.2752C94.7246 32.1825 95.0039 32.1919 95.2503 32.3015C95.3207 32.3536 95.3739 32.4256 95.4031 32.5081C95.4324 32.5907 95.4364 32.68 95.4146 32.7649C95.3807 32.9041 95.313 33.0328 95.2174 33.1395C95.0457 33.3296 94.8527 33.4994 94.6423 33.6456C93.7944 34.2339 92.8644 34.4738 92.1216 34.8649C91.7673 35.0323 91.4413 35.2541 91.1554 35.5222C90.8925 35.7752 90.6855 36.0644 90.4686 36.3109C90.3125 36.5284 90.1107 36.709 89.8773 36.8402C89.644 36.9713 89.3847 37.0498 89.1178 37.0701C88.7268 37.0701 88.5657 36.8762 88.5789 36.8729C88.7501 36.9316 88.9303 36.9594 89.1113 36.9551C89.3537 36.9149 89.5851 36.825 89.791 36.6909C89.9969 36.5569 90.1728 36.3816 90.3075 36.1762C90.518 35.889 90.7429 35.6125 90.9812 35.348C91.2791 35.0527 91.6219 34.8065 91.9967 34.6184C92.7625 34.2043 93.6892 33.9611 94.4714 33.4024C94.6599 33.2686 94.8339 33.1155 94.9907 32.9456C95.1353 32.7846 95.1846 32.5907 95.0827 32.5348C94.9808 32.479 94.754 32.5052 94.5273 32.5513L93.87 32.6729L91.6352 33.0837C90.9977 33.1954 90.4817 33.2808 90.1235 33.3334C89.9383 33.3761 89.7475 33.3894 89.5582 33.3729Z" fill="#EB996E"/>
<path d="M95.1674 31.6377C95.298 31.3326 95.4983 31.0625 95.7524 30.849C96.0368 30.6356 96.3828 30.5203 96.7383 30.5203C97.1852 30.523 97.6288 30.5962 98.0529 30.7372C98.4861 30.8834 98.9332 30.9847 99.3872 31.0396C99.7682 31.0833 100.154 31.0243 100.505 30.8687C100.625 30.8131 100.731 30.73 100.814 30.6262C100.897 30.5223 100.954 30.4005 100.981 30.2706C101.006 30.1791 101.006 30.0827 100.981 29.9912C100.961 29.9912 100.961 30.0898 100.912 30.2541C100.876 30.3649 100.816 30.4664 100.737 30.5516C100.657 30.6367 100.56 30.7034 100.452 30.7471C100.117 30.8714 99.7575 30.912 99.4036 30.8654C98.9628 30.796 98.5293 30.686 98.1087 30.5368C97.6699 30.3923 97.2102 30.3212 96.7482 30.3264C96.3602 30.3355 95.9864 30.4743 95.6867 30.7208C95.4879 30.8863 95.3351 31.1002 95.243 31.3419C95.1608 31.5358 95.1543 31.6344 95.1674 31.6377Z" fill="#EB996E"/>
<path d="M95.1509 24.5757C95.022 24.8697 94.9186 25.1743 94.842 25.486C94.6481 26.117 94.418 26.8663 94.1617 27.6945C93.9054 28.5227 93.6523 29.2654 93.4486 29.8931C93.3297 30.1908 93.2383 30.4989 93.1758 30.8133C93.3391 30.5365 93.4735 30.2435 93.5767 29.9391C93.7936 29.387 94.0697 28.6246 94.3457 27.7537C94.6218 26.8828 94.8354 26.1104 94.9735 25.5222C95.0657 25.2138 95.1252 24.8965 95.1509 24.5757Z" fill="#EB996E"/>
<path d="M95.873 33.0115C95.9733 33.0259 96.0751 33.0259 96.1754 33.0115C96.3015 32.9899 96.4308 32.9958 96.5544 33.0287C96.678 33.0616 96.7931 33.1207 96.8918 33.2021C96.9489 33.2624 96.9895 33.3365 97.0097 33.4171C97.0298 33.4977 97.0289 33.5821 97.0069 33.6622C96.9537 33.8641 96.8754 34.0584 96.7735 34.2406C96.6419 34.4692 96.5986 34.7381 96.6519 34.9965C96.6968 35.1334 96.7731 35.2579 96.8746 35.36C96.9762 35.4622 97.1003 35.5391 97.2369 35.5848C97.3717 35.6275 97.5138 35.6423 97.6546 35.6281C97.7953 35.614 97.9316 35.5713 98.0552 35.5026C98.2853 35.3851 98.4743 35.2006 98.5975 34.9735C98.7753 34.599 98.8971 34.2003 98.959 33.7904C99.0069 33.5153 99.0069 33.234 98.959 32.9589C98.9487 32.8556 98.9087 32.7574 98.844 32.6763C98.8275 32.6763 98.8703 32.7814 98.8867 32.9688C98.9007 33.2369 98.8775 33.5056 98.8177 33.7674C98.7397 34.1559 98.6116 34.5326 98.4364 34.888C98.3294 35.0881 98.1592 35.2473 97.9524 35.3406C97.7455 35.4339 97.5136 35.4562 97.2928 35.404C97.1845 35.369 97.0859 35.3092 97.0049 35.2293C96.9238 35.1494 96.8626 35.0517 96.8261 34.9439C96.7832 34.7292 96.8194 34.5063 96.928 34.3162C97.0302 34.1172 97.1075 33.9064 97.158 33.6885C97.1801 33.5842 97.175 33.4759 97.1434 33.3741C97.1118 33.2723 97.0546 33.1802 96.9773 33.1068C96.8631 33.0164 96.7293 32.9538 96.5867 32.9242C96.4441 32.8945 96.2965 32.8985 96.1557 32.9359C96.058 32.9456 95.9625 32.9712 95.873 33.0115Z" fill="#EB996E"/>
<path d="M98.0192 35.3124C98.0192 35.3124 97.9568 35.3979 97.9634 35.5819C97.9726 35.711 98.0119 35.8362 98.0781 35.9475C98.1443 36.0587 98.2356 36.153 98.3446 36.2228C98.5131 36.3197 98.704 36.3706 98.8984 36.3706C99.0927 36.3706 99.2836 36.3197 99.4521 36.2228C99.8575 35.989 100.157 35.6074 100.287 35.158C100.43 34.718 100.43 34.244 100.287 33.804C100.17 33.4483 99.9603 33.1305 99.6789 32.8838C99.4934 32.7178 99.2782 32.5884 99.0446 32.5025C98.9616 32.4627 98.8705 32.4425 98.7784 32.4434C99.0713 32.5852 99.3433 32.7666 99.5869 32.9824C99.8626 33.2513 100.057 33.5922 100.149 33.9663C100.241 34.3404 100.226 34.7328 100.106 35.0988C99.9886 35.5026 99.725 35.8482 99.3667 36.0683C99.2234 36.1523 99.0612 36.1988 98.8952 36.2034C98.7291 36.208 98.5646 36.1706 98.4169 36.0946C98.319 36.0375 98.2343 35.9602 98.1686 35.8678C98.1029 35.7754 98.0576 35.6702 98.0357 35.5589C98.0028 35.4143 98.0357 35.3124 98.0192 35.3124Z" fill="#EB996E"/>
<path d="M93.8747 37.3761C93.7446 37.2882 93.5912 37.2412 93.4343 37.2413C93.0333 37.2023 92.6308 37.2983 92.2906 37.5141L92.4319 37.6094C92.4763 37.3925 92.5071 37.1729 92.524 36.9521C92.639 35.6836 92.2347 34.7042 92.1953 34.7305C92.3217 35.4583 92.3691 36.1977 92.3366 36.9357C92.3207 37.1463 92.2932 37.3558 92.2545 37.5634L92.215 37.777L92.3958 37.6554C92.7037 37.4544 93.0633 37.3471 93.431 37.3465C93.7038 37.3531 93.8681 37.3991 93.8747 37.3761Z" fill="#EB996E"/>
<path d="M96.4646 29.58C96.412 29.58 96.4843 29.9744 96.8327 30.2767C97.1811 30.5791 97.5722 30.6054 97.5722 30.5495C97.5722 30.4936 97.2599 30.3983 96.9609 30.1321C96.6618 29.8659 96.5172 29.5603 96.4646 29.58Z" fill="#EB996E"/>
<path d="M57.582 76.9679L70.6127 77.0961L68.4272 67.641L69.1601 69.4255C69.8356 71.0732 70.9859 72.4826 72.4648 73.4745C73.9436 74.4665 75.6841 74.9961 77.4649 74.996C81.586 74.996 84.4354 71.9298 86.1772 68.1964C90.2523 59.4677 94.1796 45.4116 94.1796 45.4116L86.2363 38.4313C80.4851 49.3093 75.0822 58.7545 75.0822 58.7545C75.0822 58.7545 73.5212 54.0122 72.315 49.7793C71.1089 45.5464 71.1188 43.3248 69.2685 41.2149C66.4192 37.9679 62.3671 37.1627 58.5942 36.1899L58.4529 53.7526L57.582 76.9679Z" fill="#FF7D1F"/>
<path d="M42.6716 63.9041L66.3995 68.5051L67.5531 77.6216H31.1724C30.1765 77.6339 29.1891 77.4384 28.273 77.0476C27.3569 76.6567 26.5324 76.0792 25.8521 75.3519C25.1717 74.6245 24.6505 73.7633 24.3217 72.8232C23.9929 71.8831 23.8636 70.8848 23.9423 69.892C24.4648 63.2468 25.0334 55.0636 25.4672 51.603C25.7958 48.9049 26.8804 46.1147 28.1522 43.7156C29.9893 40.2583 36.1119 35.8282 41.4786 35.5981L42.4941 58.1989" fill="#FF7D1F"/>
<path d="M38.1522 63.2263C38.1437 63.1542 38.1437 63.0814 38.1522 63.0093C38.1522 62.8483 38.1522 62.6413 38.1522 62.3882C38.1522 61.8262 38.1522 61.0506 38.1522 60.0877C38.1522 58.1586 38.116 55.4867 37.9682 52.5519C37.8926 51.0796 37.7973 49.6796 37.6954 48.4111C37.6477 47.285 37.4881 46.1665 37.2189 45.072C37.0309 44.3415 36.6728 43.6659 36.1738 43.1002C35.9805 42.9028 35.7765 42.7163 35.5625 42.5415C35.8134 42.6706 36.0411 42.8405 36.2362 43.0443C36.7683 43.6059 37.1513 44.2917 37.3503 45.0392C37.6373 46.1424 37.8091 47.2724 37.863 48.4111C37.9747 49.6829 38.0733 51.0829 38.1489 52.5552C38.3001 55.513 38.3165 58.1717 38.2837 60.114C38.2639 61.0802 38.2376 61.8624 38.2146 62.4145L38.1785 63.0356C38.1772 63.1 38.1684 63.164 38.1522 63.2263Z" fill="#263238"/>
<path d="M65.941 69.1623C65.6907 68.8858 65.3991 68.6497 65.0766 68.4623C64.6932 68.2534 64.286 68.0912 63.8639 67.9792C63.3743 67.8379 62.7991 67.7295 62.1649 67.6013C59.6277 67.082 56.1277 66.3623 52.2497 65.6294C48.3718 64.8966 44.8422 64.3149 42.2886 63.9073L39.2618 63.4242L38.4402 63.2862C38.3435 63.2743 38.2478 63.2545 38.1543 63.2271C38.2513 63.2275 38.348 63.2363 38.4435 63.2533L39.2717 63.3585C39.9881 63.4538 41.0266 63.5984 42.305 63.789C44.8652 64.1703 48.3981 64.7355 52.2793 65.4618C56.1606 66.1881 59.6606 66.9243 62.1879 67.4698C62.8221 67.6079 63.3973 67.7262 63.8902 67.8773C64.317 67.9981 64.7267 68.1726 65.1095 68.3966C65.3554 68.5354 65.5773 68.713 65.7668 68.9224C65.8173 68.9744 65.8635 69.0304 65.9048 69.09C65.9278 69.1295 65.9442 69.1623 65.941 69.1623Z" fill="#263238"/>
<path d="M38.2228 63.2271C38.2228 63.2566 37.7858 63.3585 37.1088 63.6346C36.7135 63.7979 36.3293 63.9867 35.9585 64.1998C35.5102 64.4671 35.0828 64.7682 34.6801 65.1003C34.2885 65.4397 33.9237 65.8089 33.589 66.2045C33.3136 66.5307 33.061 66.8755 32.8331 67.2365C32.4453 67.8576 32.2679 68.2783 32.2383 68.2651C32.2587 68.1592 32.293 68.0565 32.3402 67.9595C32.4521 67.6895 32.5817 67.4271 32.728 67.174C32.9474 66.799 33.1945 66.4409 33.4674 66.1027C34.142 65.275 34.9672 64.5826 35.8994 64.0618C36.2769 63.8487 36.6716 63.6673 37.0792 63.5195C37.3533 63.4172 37.6345 63.3349 37.9205 63.2731C38.0186 63.2436 38.1204 63.2282 38.2228 63.2271Z" fill="#263238"/>
<path d="M68.8632 68.906C68.8406 68.8319 68.8241 68.7561 68.8139 68.6793C68.7876 68.515 68.7514 68.298 68.7087 68.022C68.6167 67.4534 68.4951 66.6318 68.3571 65.613C68.081 63.5788 67.7458 60.759 67.4632 57.6369C67.1805 54.5148 67.0129 51.6819 66.9209 49.6279C66.8749 48.6025 66.8486 47.7711 66.8355 47.1959C66.8355 46.9221 66.8355 46.703 66.8355 46.5386C66.8283 46.4621 66.8283 46.3851 66.8355 46.3086C66.8532 46.384 66.862 46.4612 66.8617 46.5386L66.9045 47.1959C66.9406 47.7875 66.9866 48.6124 67.0458 49.6213C67.1674 51.672 67.358 54.5016 67.6373 57.6205C67.9167 60.7393 68.2355 63.559 68.482 65.5966C68.6036 66.6023 68.7054 67.4206 68.7777 68.0121C68.8073 68.2849 68.8336 68.5018 68.8533 68.6694C68.8666 68.7476 68.8699 68.8271 68.8632 68.906Z" fill="#263238"/>
<path d="M76.7335 65.3726C76.7335 65.3726 76.6579 65.3003 76.5429 65.1557C76.3836 64.946 76.2376 64.7265 76.1058 64.4985C75.2239 62.9932 74.8173 61.2566 74.9391 59.5162C74.9557 59.2544 74.9908 58.9942 75.0443 58.7374C75.056 58.6415 75.0803 58.5475 75.1166 58.458C75.1462 58.458 75.0837 58.8655 75.0607 59.5228C75.0058 61.2384 75.4025 62.9383 76.211 64.4525C76.5199 65.021 76.7598 65.3529 76.7335 65.3726Z" fill="#263238"/>
<path d="M38.0574 51.0143C38.0574 51.0143 38.0147 51.0307 37.9358 51.0406C37.8172 51.0596 37.6976 51.0717 37.5776 51.0767C37.1368 51.0952 36.6953 51.0599 36.263 50.9715C35.621 50.8425 34.9942 50.6464 34.3931 50.3866C33.7128 50.1039 32.9898 49.7293 32.2339 49.3645C31.5263 49.0091 30.7936 48.7059 30.0418 48.4574C29.4318 48.2525 28.7977 48.1277 28.1554 48.0861C27.5605 48.0667 26.966 48.1342 26.3906 48.2865C26.4259 48.263 26.4648 48.2453 26.5057 48.234C26.6121 48.1874 26.722 48.1489 26.8343 48.1189C27.2627 48.0042 27.7056 47.9532 28.1489 47.9678C28.805 47.9883 29.4552 48.0989 30.0813 48.2964C30.8428 48.5414 31.5835 48.8469 32.2963 49.21C33.0555 49.5847 33.7719 49.9528 34.4423 50.2387C35.0326 50.5009 35.6467 50.7056 36.2762 50.8499C36.8621 50.9697 37.4594 51.0248 38.0574 51.0143Z" fill="#FAFAFA"/>
<path d="M42.1347 50.2163C41.5034 50.4085 40.857 50.547 40.2023 50.6304C39.5538 50.7716 38.8938 50.8541 38.2305 50.8769C38.8618 50.6847 39.5082 50.5462 40.1629 50.4628C40.8114 50.3214 41.4714 50.2389 42.1347 50.2163Z" fill="#FAFAFA"/>
<path d="M37.9108 57.2686C37.7595 57.3539 37.5998 57.4233 37.4342 57.4756C37.122 57.5972 36.6652 57.7615 36.0967 57.9456C34.6099 58.4226 33.0925 58.7981 31.5548 59.0695C30.6544 59.2273 29.79 59.3423 29.0013 59.4212C28.3017 59.5115 27.5948 59.5303 26.8914 59.477C26.4143 59.4385 25.9496 59.3055 25.5243 59.0859C25.4086 59.0259 25.2986 58.9555 25.1956 58.8756C25.1577 58.8497 25.1234 58.8187 25.0938 58.7836C25.0938 58.7836 25.2515 58.8855 25.5506 59.0268C25.9765 59.2191 26.4346 59.3306 26.9013 59.3554C27.5961 59.3914 28.2927 59.3606 28.9816 59.2634C29.767 59.1747 30.6248 59.0564 31.522 58.8986C33.0524 58.6272 34.5665 58.2706 36.0572 57.8305C36.6291 57.6596 37.0892 57.5019 37.408 57.4132C37.5718 57.3526 37.7398 57.3043 37.9108 57.2686Z" fill="#FAFAFA"/>
<path d="M42.0275 59.0005C41.4354 59.0946 40.8357 59.1331 40.2364 59.1156C39.6389 59.1532 39.0393 59.1345 38.4453 59.0597C39.0375 58.9656 39.6371 58.9271 40.2364 58.9447C40.8339 58.907 41.4336 58.9257 42.0275 59.0005Z" fill="#FAFAFA"/>
<path d="M25.1172 73.9728C25.121 73.9123 25.1332 73.8526 25.1533 73.7954C25.1862 73.6639 25.2322 73.5029 25.2848 73.3024L25.3834 72.9475C25.4261 72.8193 25.482 72.6845 25.5346 72.5366C25.6527 72.201 25.7888 71.8719 25.9421 71.5507L26.2083 70.9887C26.3036 70.7916 26.4252 70.601 26.5369 70.3972C26.7848 69.9662 27.0546 69.5483 27.3454 69.1451C28.688 67.2889 30.4385 65.7654 32.4623 64.692C32.9025 64.4594 33.3544 64.2498 33.8163 64.0642C34.0365 63.9821 34.2403 63.8868 34.4473 63.8211L35.0422 63.6337C35.3829 63.5252 35.7297 63.4363 36.0807 63.3675C36.2351 63.3347 36.3764 63.2985 36.5079 63.2755L36.876 63.2262L37.3821 63.1638C37.4409 63.155 37.5007 63.155 37.5596 63.1638C37.5035 63.1852 37.445 63.1996 37.3854 63.2065L36.8858 63.3018L36.5243 63.3642L36.1004 63.4694C35.798 63.5516 35.4431 63.6206 35.0783 63.7586L34.4933 63.9558C34.2896 64.0248 34.0858 64.1201 33.8722 64.2056C33.4171 64.3944 32.9717 64.6061 32.5379 64.8399C31.5496 65.3865 30.6192 66.0317 29.7609 66.7657C28.9131 67.5138 28.1424 68.3451 27.4604 69.2469C27.1646 69.6742 26.8721 70.0751 26.6487 70.4794C26.5336 70.6798 26.412 70.8671 26.32 71.061L26.044 71.6132C25.8566 71.9615 25.7416 72.2967 25.6167 72.5991C25.5609 72.7437 25.5017 72.8784 25.4557 73.0033L25.3407 73.3517L25.1796 73.8348C25.1639 73.8829 25.143 73.9292 25.1172 73.9728Z" fill="#FAFAFA"/>
<path d="M41.5968 63.8779C41.0471 64.3555 40.5903 64.9303 40.2493 65.5737C39.8909 66.2771 39.6363 67.0288 39.4935 67.8052C39.3235 68.7603 39.2137 69.7251 39.1648 70.694C39.1239 71.67 39.0141 72.6419 38.8362 73.6025C38.6752 74.3898 38.3971 75.1487 38.0113 75.8536C37.7536 76.3262 37.4206 76.7535 37.0254 77.1189C36.9177 77.2188 36.8023 77.31 36.6803 77.3917C36.5981 77.4476 36.5521 77.4771 36.5488 77.4706C37.1085 77.0036 37.5746 76.4349 37.9225 75.7945C38.2867 75.0951 38.5479 74.3469 38.6981 73.5729C38.8731 72.6185 38.9829 71.6534 39.0268 70.6841C39.0695 69.7071 39.1793 68.7342 39.3554 67.7723C39.5085 66.985 39.7788 66.225 40.1573 65.5179C40.4156 65.0408 40.7484 64.6082 41.1432 64.2361C41.2467 64.1371 41.3564 64.0449 41.4719 63.9601C41.5098 63.9275 41.5518 63.8999 41.5968 63.8779Z" fill="#FAFAFA"/>
<path d="M47.205 77.678C47.159 77.678 47.205 74.8451 47.3266 71.355C47.4482 67.8648 47.5731 65.0352 47.6191 65.0352C47.6651 65.0352 47.6191 67.8681 47.4975 71.3615C47.3759 74.855 47.251 77.6813 47.205 77.678Z" fill="#FAFAFA"/>
<path d="M56.1259 77.1915C56.064 77.0597 56.0156 76.9221 55.9813 76.7807C55.928 76.6188 55.883 76.4542 55.8465 76.2877C55.8038 76.0938 55.7447 75.8736 55.7085 75.6304C55.6063 75.0507 55.5481 74.464 55.5343 73.8755C55.502 72.4292 55.7245 70.9886 56.1916 69.6196C56.382 69.0619 56.6138 68.5192 56.885 67.9961C56.9935 67.7693 57.1151 67.5787 57.2137 67.4078C57.2972 67.259 57.3894 67.1152 57.4897 66.9773C57.563 66.8518 57.6501 66.735 57.7494 66.6289C57.7789 66.6453 57.4207 67.1547 56.9902 68.0519C56.7348 68.5754 56.5152 69.1156 56.3329 69.6688C55.8827 71.0239 55.6606 72.4443 55.6756 73.8722C55.6831 74.454 55.7281 75.0347 55.8104 75.6107C55.9747 76.5901 56.1587 77.1816 56.1259 77.1915Z" fill="#FAFAFA"/>
<path d="M40.9789 40.8702C40.9789 40.8965 40.4597 40.6697 39.6052 40.3937C37.3796 39.6752 35.021 39.4663 32.7037 39.7824C31.8164 39.904 31.2742 40.042 31.2676 40.0124C31.3854 39.9556 31.5103 39.9147 31.6389 39.8908C31.9828 39.7958 32.3317 39.72 32.684 39.6641C35.0188 39.2761 37.4139 39.4876 39.6447 40.2786C39.9798 40.3969 40.3089 40.5318 40.6306 40.6829C40.754 40.7307 40.871 40.7936 40.9789 40.8702Z" fill="#FAFAFA"/>
<path d="M66.9396 54.7017C66.5332 54.7229 66.1259 54.7163 65.7204 54.682C64.9678 54.6524 63.9293 54.613 62.7823 54.5867C61.6354 54.5604 60.5969 54.544 59.8443 54.5374C59.4373 54.5503 59.03 54.5361 58.625 54.4947C58.7327 54.4692 58.843 54.456 58.9536 54.4552C59.164 54.4552 59.4696 54.4257 59.8475 54.4158C60.6001 54.3928 61.6386 54.3862 62.7889 54.4158C63.9391 54.4454 64.9776 54.5045 65.7467 54.567C66.1213 54.5965 66.4237 54.6228 66.634 54.6491C66.7375 54.6557 66.8399 54.6733 66.9396 54.7017Z" fill="#FAFAFA"/>
<path d="M73.4291 53.4561C73.4291 53.4856 73.0183 53.627 72.3774 53.9424C70.701 54.7671 69.2808 56.0327 68.2694 57.6035C67.8816 58.2049 67.6943 58.6059 67.668 58.5894C67.6863 58.4857 67.7218 58.3857 67.7731 58.2937C67.8883 58.0325 68.02 57.7789 68.1675 57.5345C68.6496 56.7219 69.2549 55.989 69.9619 55.3622C70.6669 54.7334 71.4637 54.2159 72.3248 53.8274C72.5846 53.7105 72.8513 53.6095 73.1234 53.5251C73.2219 53.4888 73.3246 53.4656 73.4291 53.4561Z" fill="#FAFAFA"/>
<path d="M70.2287 42.9236C69.6629 42.9042 69.098 42.9831 68.5592 43.1569C67.9776 43.36 67.4137 43.6106 66.8733 43.9062C66.2061 44.276 65.5091 44.5893 64.7897 44.8428C63.4598 45.2689 62.0454 45.3604 60.6718 45.109C60.259 45.0341 59.8533 44.9242 59.4591 44.7804C59.3117 44.7342 59.1696 44.6725 59.0352 44.5964C59.0352 44.5635 59.653 44.8231 60.6784 44.9907C62.0328 45.2022 63.418 45.0953 64.7239 44.6785C65.4352 44.4269 66.1262 44.1214 66.7911 43.7649C67.3412 43.4729 67.9165 43.2309 68.5099 43.0419C68.9135 42.9137 69.3354 42.8527 69.7587 42.8611C69.8689 42.8643 69.9787 42.8753 70.0874 42.894C70.1893 42.9071 70.232 42.917 70.2287 42.9236Z" fill="#FAFAFA"/>
<path d="M68.5863 64.9488C68.4672 65.0245 68.3391 65.0852 68.2051 65.1295C68.0802 65.1821 67.9258 65.2445 67.7417 65.3037C67.5577 65.3629 67.3506 65.4417 67.1173 65.5009C66.567 65.6542 66.0071 65.7706 65.4412 65.8492C64.7483 65.939 64.0496 65.9753 63.3511 65.9577C62.6528 65.9317 61.9575 65.8537 61.2708 65.7244C60.7135 65.6118 60.1644 65.4613 59.6276 65.2741C59.3942 65.2018 59.1938 65.1131 59.0163 65.0408C58.8388 64.9685 58.6877 64.8995 58.5628 64.8403C58.432 64.7859 58.3075 64.7176 58.1914 64.6366C58.1914 64.607 58.7468 64.8699 59.667 65.1591C60.2058 65.3286 60.7546 65.4647 61.3102 65.5666C62.6695 65.8183 64.0593 65.8604 65.4314 65.6915C65.9915 65.6226 66.5468 65.5194 67.0943 65.3826C68.0211 65.1459 68.5765 64.9192 68.5863 64.9488Z" fill="#FAFAFA"/>
<path d="M76.1408 74.6765C76.0939 74.6468 76.0508 74.6115 76.0126 74.5713C75.937 74.4957 75.8121 74.3938 75.6839 74.2427C75.2871 73.8182 74.9388 73.3508 74.6454 72.8492C73.697 71.1687 73.1926 69.2741 73.1797 67.3445C73.1819 65.4283 73.4326 63.5205 73.9257 61.6688C74.1032 60.9589 74.2544 60.3871 74.3759 59.996C74.4318 59.8153 74.4778 59.6674 74.514 59.5458C74.5501 59.4242 74.5666 59.388 74.5731 59.3913C74.5724 59.446 74.5636 59.5003 74.5468 59.5524C74.5205 59.6772 74.4844 59.8284 74.4417 60.0125C74.3431 60.4364 74.2083 60.9984 74.044 61.6984C73.5904 63.544 73.3598 65.4374 73.3572 67.3379C73.3677 69.2366 73.8427 71.1039 74.7407 72.7769C75.0223 73.2781 75.3525 73.7503 75.7267 74.1868C75.9863 74.5023 76.1506 74.6633 76.1408 74.6765Z" fill="#FAFAFA"/>
<path d="M88.1 63.5161C87.5749 63.0996 86.9885 62.767 86.3615 62.5301C85.6757 62.2929 84.9725 62.1094 84.2582 61.9813C83.3709 61.8317 82.4931 61.6309 81.6291 61.3799C80.0688 60.8725 78.6447 60.016 77.4652 58.8756C77.1094 58.5316 76.7798 58.1614 76.4792 57.7681C76.3708 57.6301 76.2985 57.5151 76.2459 57.4395C76.1933 57.3639 76.1703 57.3212 76.1769 57.3179C76.3039 57.4459 76.4225 57.582 76.5318 57.7254C76.8472 58.1007 77.1864 58.4552 77.5473 58.7869C78.732 59.8863 80.1416 60.715 81.6783 61.2156C82.5335 61.465 83.4012 61.6691 84.2779 61.8268C84.9982 61.965 85.7061 62.1618 86.3944 62.4151C86.8593 62.5908 87.2957 62.8345 87.6892 63.1381C87.7967 63.2189 87.8978 63.3079 87.9916 63.4043C88.0737 63.4766 88.1066 63.5128 88.1 63.5161Z" fill="#FAFAFA"/>
<path d="M91.8596 52.5498C91.733 52.4593 91.6152 52.3569 91.508 52.2441C91.3995 52.1423 91.2681 52.0174 91.1037 51.8794C90.9394 51.7413 90.7751 51.577 90.5516 51.4193C90.0662 51.0277 89.5569 50.6665 89.0267 50.338C87.7264 49.5338 86.3129 48.9289 84.8332 48.5436C84.2285 48.388 83.615 48.2684 82.9961 48.1854C82.7332 48.1427 82.4933 48.1263 82.283 48.1065C82.0727 48.0868 81.8886 48.0704 81.7407 48.0638C81.5853 48.0631 81.4303 48.0488 81.2773 48.0211C81.4306 47.9974 81.5859 47.9897 81.7407 47.9981C81.9236 47.9889 82.1067 47.9889 82.2896 47.9981C82.4999 47.9981 82.7464 48.0145 83.0126 48.0507C83.6381 48.1191 84.2584 48.2289 84.8694 48.3793C85.618 48.5712 86.3517 48.8172 87.0647 49.1155C87.7718 49.4238 88.4551 49.7841 89.1089 50.1934C89.6405 50.5326 90.1489 50.907 90.6305 51.3141C90.8408 51.4817 91.0117 51.6427 91.1695 51.8005C91.3043 51.923 91.4326 52.0524 91.554 52.1883C91.6685 52.2975 91.771 52.4187 91.8596 52.5498Z" fill="#FAFAFA"/>
<path d="M63.1044 37.4644C62.9115 37.5932 62.7012 37.6938 62.48 37.7635C61.9616 37.9668 61.4288 38.1316 60.8861 38.2565C60.3455 38.3838 59.7963 38.4717 59.2429 38.5194C59.0141 38.5541 58.7815 38.5541 58.5527 38.5194C58.5527 38.4668 59.5945 38.3813 60.8532 38.0823C62.1119 37.7832 63.0847 37.4151 63.1044 37.4644Z" fill="#FAFAFA"/>
<path d="M74.7589 83.7499C74.8017 83.8965 74.807 84.0515 74.7743 84.2007C74.7417 84.3499 74.6722 84.4885 74.5721 84.6039C74.4721 84.7193 74.3448 84.8078 74.2017 84.8613C74.0587 84.9147 73.9045 84.9315 73.7533 84.91C73.578 84.8852 73.4138 84.8098 73.2807 84.6931C73.1476 84.5763 73.0515 84.4233 73.004 84.2528L72.7247 83.2208H72.7674C72.7959 83.3698 72.7885 83.5235 72.7459 83.6691C72.7033 83.8147 72.6266 83.9481 72.5223 84.0582C72.4179 84.1683 72.2889 84.252 72.1458 84.3024C72.0027 84.3528 71.8496 84.3685 71.6993 84.3481C71.2688 84.3481 70.8974 83.7203 70.7725 83.3884C70.4476 83.4199 70.1201 83.3619 69.8258 83.2205C69.5315 83.0792 69.2816 82.8599 69.103 82.5865L67.1739 79.5762L63.6016 76.9635L65.764 69.2437L73.451 74.2193C73.7533 74.4559 73.7993 74.5479 74.2791 74.9982L79.2416 79.563C78.6796 79.8917 78.2031 79.8752 77.4209 79.563C76.6388 79.2508 73.2143 76.9339 73.2143 76.9339L74.7589 83.7203" fill="#FFBE9D"/>
<path d="M68.1821 77.4019C68.1821 77.4019 68.2708 77.4413 68.4089 77.5366L68.6652 77.7141C68.787 77.7904 68.8976 77.8833 68.9938 77.9901C69.1076 78.1208 69.1967 78.2712 69.2567 78.4338C69.3159 78.608 69.3783 78.7854 69.4441 78.9728L69.8647 80.2085C70.1572 81.0892 70.4136 81.8845 70.591 82.4662C70.7033 82.7747 70.788 83.0926 70.8441 83.416C70.6949 83.1228 70.5717 82.8171 70.476 82.5024C70.269 81.9305 69.9929 81.1418 69.7004 80.2643C69.5591 79.8272 69.4211 79.4099 69.2929 79.0253C69.2337 78.8347 69.1779 78.654 69.122 78.4831C69.0728 78.3325 68.9984 78.1913 68.9018 78.0657C68.8186 77.9631 68.7238 77.8704 68.6192 77.7897L68.3826 77.5892C68.2412 77.4774 68.1755 77.4117 68.1821 77.4019Z" fill="#EB996E"/>
<path d="M72.8082 83.3992C72.7592 83.2943 72.7228 83.184 72.6997 83.0706L72.4532 82.1898C72.2429 81.4471 71.9636 80.4184 71.6053 79.2977C71.2471 78.1771 70.8725 77.178 70.4222 76.5602C70.2543 76.3133 70.0413 76.1004 69.7945 75.9324C69.6138 75.8207 69.4987 75.7878 69.502 75.7681C69.5324 75.7674 69.5626 75.773 69.5908 75.7846C69.6726 75.8055 69.7519 75.8353 69.8274 75.8733C70.1003 76.0256 70.3369 76.2352 70.5208 76.4879C71.0105 77.1123 71.4049 78.1311 71.7664 79.2452C72.1279 80.3593 72.3908 81.4076 72.5683 82.1602C72.657 82.5349 72.7227 82.8405 72.7654 83.0541C72.797 83.1663 72.8114 83.2827 72.8082 83.3992Z" fill="#EB996E"/>
<path d="M74.7928 83.865C74.7335 83.7561 74.6882 83.6402 74.6581 83.5199C74.5759 83.257 74.474 82.9382 74.3524 82.5603C74.1027 81.7485 73.7708 80.6246 73.4125 79.3823C73.0543 78.14 72.7552 77.0489 72.5088 76.1945C72.4239 75.8778 72.2395 75.5967 71.9829 75.3926C71.8789 75.3256 71.7689 75.2683 71.6543 75.2217C71.6867 75.2139 71.7205 75.2139 71.7529 75.2217C71.8451 75.2424 71.933 75.2791 72.0125 75.3301C72.2995 75.5273 72.5114 75.8157 72.6139 76.1485C72.8834 76.9602 73.2022 78.0842 73.567 79.3264C73.9318 80.5687 74.2407 81.7025 74.4609 82.5208C74.5595 82.902 74.6449 83.2274 74.7107 83.5067C74.7505 83.623 74.778 83.743 74.7928 83.865Z" fill="#EB996E"/>
</svg>
