<svg width="210" height="260" viewBox="0 0 210 260" fill="none" xmlns="http://www.w3.org/2000/svg">
<rect x="0.5" y="0.5" width="209" height="259" rx="9.5" fill="#F9F9F9" stroke="#F9F9F9"/>
<path d="M60.0015 37V26.92H67.8695V37H66.6235V28.103H61.2475V37H60.0015ZM73.3036 37.21C72.5942 37.21 71.9969 37.035 71.5116 36.685C71.0262 36.3303 70.6576 35.852 70.4056 35.25C70.1582 34.6433 70.0346 33.9643 70.0346 33.213C70.0346 32.4523 70.1582 31.771 70.4056 31.169C70.6576 30.567 71.0262 30.0933 71.5116 29.748C72.0016 29.4027 72.6012 29.23 73.3106 29.23C74.0106 29.23 74.6126 29.405 75.1166 29.755C75.6252 30.1003 76.0149 30.574 76.2856 31.176C76.5562 31.778 76.6916 32.457 76.6916 33.213C76.6916 33.969 76.5562 34.648 76.2856 35.25C76.0149 35.852 75.6252 36.3303 75.1166 36.685C74.6126 37.035 74.0082 37.21 73.3036 37.21ZM69.8246 40.36V29.44H70.9376V35.005H71.0776V40.36H69.8246ZM73.1496 36.069C73.6489 36.069 74.0619 35.943 74.3886 35.691C74.7152 35.439 74.9602 35.0983 75.1236 34.669C75.2869 34.235 75.3686 33.7497 75.3686 33.213C75.3686 32.681 75.2869 32.2003 75.1236 31.771C74.9649 31.3417 74.7176 31.001 74.3816 30.749C74.0502 30.497 73.6279 30.371 73.1146 30.371C72.6246 30.371 72.2186 30.4923 71.8966 30.735C71.5746 30.973 71.3342 31.3067 71.1756 31.736C71.0169 32.1607 70.9376 32.653 70.9376 33.213C70.9376 33.7637 71.0146 34.256 71.1686 34.69C71.3272 35.1193 71.5699 35.4577 71.8966 35.705C72.2232 35.9477 72.6409 36.069 73.1496 36.069ZM81.4461 37.21C80.6948 37.21 80.0461 37.0397 79.5001 36.699C78.9588 36.3583 78.5411 35.887 78.2471 35.285C77.9531 34.683 77.8061 33.9923 77.8061 33.213C77.8061 32.4197 77.9554 31.7243 78.2541 31.127C78.5528 30.5297 78.9751 30.0653 79.5211 29.734C80.0671 29.398 80.7088 29.23 81.4461 29.23C82.2021 29.23 82.8531 29.4003 83.3991 29.741C83.9451 30.077 84.3628 30.546 84.6521 31.148C84.9461 31.7453 85.0931 32.4337 85.0931 33.213C85.0931 34.0017 84.9461 34.697 84.6521 35.299C84.3581 35.8963 83.9381 36.3653 83.3921 36.706C82.8461 37.042 82.1974 37.21 81.4461 37.21ZM81.4461 36.027C82.2301 36.027 82.8134 35.7657 83.1961 35.243C83.5788 34.7203 83.7701 34.0437 83.7701 33.213C83.7701 32.359 83.5764 31.68 83.1891 31.176C82.8018 30.6673 82.2208 30.413 81.4461 30.413C80.9188 30.413 80.4848 30.532 80.1441 30.77C79.8034 31.008 79.5491 31.337 79.3811 31.757C79.2131 32.177 79.1291 32.6623 79.1291 33.213C79.1291 34.0623 79.3251 34.7437 79.7171 35.257C80.1091 35.7703 80.6854 36.027 81.4461 36.027ZM86.0743 38.68V35.971C86.499 35.971 86.8023 35.8333 86.9843 35.558C87.1663 35.278 87.3133 34.8183 87.4253 34.179C87.5 33.7777 87.5606 33.3483 87.6073 32.891C87.654 32.4337 87.6936 31.925 87.7263 31.365C87.7636 30.8003 87.7986 30.1587 87.8313 29.44H93.0393V35.971H93.7743V38.68H92.5843V37H87.2643V38.68H86.0743ZM87.9923 35.971H91.7933V30.469H88.9583C88.9443 30.8003 88.9256 31.148 88.9023 31.512C88.879 31.8713 88.851 32.2307 88.8183 32.59C88.7903 32.9493 88.7553 33.29 88.7133 33.612C88.676 33.9293 88.6316 34.214 88.5803 34.466C88.5196 34.816 88.4496 35.1123 88.3703 35.355C88.291 35.5977 88.165 35.803 87.9923 35.971ZM95.1722 37V29.44H98.3922C98.5836 29.44 98.7889 29.4517 99.0082 29.475C99.2322 29.4937 99.4352 29.5287 99.6172 29.58C100.023 29.6873 100.357 29.909 100.618 30.245C100.884 30.5763 101.017 30.9963 101.017 31.505C101.017 31.7897 100.973 32.037 100.884 32.247C100.8 32.457 100.679 32.639 100.52 32.793C100.45 32.863 100.373 32.926 100.289 32.982C100.205 33.038 100.121 33.0823 100.037 33.115C100.201 33.143 100.366 33.206 100.534 33.304C100.8 33.4487 101.008 33.6517 101.157 33.913C101.311 34.1743 101.388 34.508 101.388 34.914C101.388 35.4273 101.265 35.852 101.017 36.188C100.77 36.5193 100.429 36.748 99.9952 36.874C99.8132 36.9253 99.6126 36.9603 99.3932 36.979C99.1739 36.993 98.9616 37 98.7562 37H95.1722ZM96.4322 35.985H98.6862C98.7842 35.985 98.9009 35.9757 99.0362 35.957C99.1762 35.9383 99.2999 35.915 99.4072 35.887C99.6499 35.817 99.8249 35.6863 99.9322 35.495C100.044 35.3037 100.1 35.096 100.1 34.872C100.1 34.5733 100.016 34.3307 99.8482 34.144C99.6849 33.9573 99.4679 33.8407 99.1972 33.794C99.0992 33.766 98.9919 33.7497 98.8752 33.745C98.7632 33.7403 98.6629 33.738 98.5742 33.738H96.4322V35.985ZM96.4322 32.709H98.3082C98.4389 32.709 98.5766 32.702 98.7212 32.688C98.8659 32.6693 98.9919 32.639 99.0992 32.597C99.3139 32.5177 99.4702 32.387 99.5682 32.205C99.6709 32.0183 99.7222 31.8153 99.7222 31.596C99.7222 31.3533 99.6662 31.141 99.5542 30.959C99.4469 30.7723 99.2812 30.644 99.0572 30.574C98.9079 30.518 98.7399 30.4877 98.5532 30.483C98.3712 30.4737 98.2546 30.469 98.2032 30.469H96.4322V32.709ZM108.982 29.44V37H107.778V31.428L103.816 37H102.787V29.44H103.991V34.935L107.96 29.44H108.982ZM110.936 37V29.44H112.182V32.625H116.158V29.44H117.404V37H116.158V33.808H112.182V37H110.936ZM120.415 40.36L121.878 36.384L121.899 37.56L118.595 29.44H119.904L122.494 35.971H122.046L124.475 29.44H125.742L121.626 40.36H120.415ZM128.9 37V30.574H126.268V29.44H132.778V30.574H130.146V37H128.9ZM134.103 37L134.096 29.44H135.349V32.177H136.504C136.723 32.177 136.947 32.1817 137.176 32.191C137.405 32.2003 137.603 32.2213 137.771 32.254C138.163 32.3333 138.506 32.4663 138.8 32.653C139.094 32.8397 139.323 33.0917 139.486 33.409C139.649 33.7263 139.731 34.1207 139.731 34.592C139.731 35.2453 139.561 35.7633 139.22 36.146C138.884 36.524 138.443 36.776 137.897 36.902C137.71 36.944 137.496 36.972 137.253 36.986C137.015 36.9953 136.789 37 136.574 37H134.103ZM135.349 35.971H136.595C136.735 35.971 136.891 35.9663 137.064 35.957C137.237 35.9477 137.391 35.9243 137.526 35.887C137.764 35.817 137.976 35.6793 138.163 35.474C138.354 35.2687 138.45 34.9747 138.45 34.592C138.45 34.2047 138.357 33.906 138.17 33.696C137.988 33.486 137.748 33.3483 137.449 33.283C137.314 33.2503 137.171 33.2293 137.022 33.22C136.873 33.2107 136.73 33.206 136.595 33.206H135.349V35.971ZM140.599 37V29.44H141.845V37H140.599ZM147.065 28.558C146.715 28.558 146.395 28.4717 146.106 28.299C145.817 28.1263 145.586 27.8977 145.413 27.613C145.24 27.3237 145.154 27.0017 145.154 26.647H146.162C146.162 26.8943 146.251 27.1067 146.428 27.284C146.605 27.4613 146.818 27.55 147.065 27.55C147.317 27.55 147.529 27.4613 147.702 27.284C147.879 27.1067 147.968 26.8943 147.968 26.647H148.976C148.976 27.0017 148.89 27.3237 148.717 27.613C148.549 27.8977 148.318 28.1263 148.024 28.299C147.735 28.4717 147.415 28.558 147.065 28.558ZM149.998 29.44V37H148.794V31.428L144.832 37H143.803V29.44H145.007V34.935L148.976 29.44H149.998Z" fill="#131313"/>
<path d="M97.4258 127.805V127.809L97.4337 127.813L97.4258 127.805Z" fill="#F5F5F5"/>
<path d="M97.4666 127.866L97.4492 127.883H97.4909L97.4666 127.866Z" fill="#F5F5F5"/>
<path d="M97.5254 127.879V127.883H97.5363L97.5254 127.879Z" fill="#F5F5F5"/>
<path d="M97.4941 127.884H97.5206L97.5017 127.873L97.4941 127.884Z" fill="#F5F5F5"/>
<path d="M97.4183 127.869L97.4148 127.848L97.3027 127.812L97.4042 127.88L97.4183 127.869Z" fill="#F5F5F5"/>
<path d="M97.4199 127.85V127.869L97.4351 127.861L97.4199 127.85Z" fill="#F5F5F5"/>
<path d="M97.5173 127.857L97.5137 127.865L97.5209 127.868L97.5173 127.857Z" fill="#F5F5F5"/>
<path d="M97.4982 127.873H97.4902L97.4942 127.881L97.4982 127.873Z" fill="#F5F5F5"/>
<path d="M97.4353 127.857L97.4425 127.853L97.4316 127.85L97.4353 127.857Z" fill="#F5F5F5"/>
<path d="M97.5098 127.846L97.4941 127.854L97.502 127.857L97.5098 127.846Z" fill="#F5F5F5"/>
<path d="M97.5137 127.958V127.954L97.5098 127.95L97.5137 127.958Z" fill="#F5F5F5"/>
<path d="M97.4375 127.89L97.434 127.9L97.4199 127.893L97.4234 127.918L97.427 127.914L97.4481 127.911L97.4375 127.904L97.4445 127.893H97.4516L97.4481 127.89L97.4516 127.883H97.4199L97.4375 127.89Z" fill="#F5F5F5"/>
<path d="M97.2793 127.962L97.4088 127.922L97.4158 127.89L97.4053 127.883L97.2793 127.962Z" fill="#F5F5F5"/>
<path d="M97.5215 127.916V127.9L97.5137 127.904L97.5215 127.916Z" fill="#F5F5F5"/>
<path d="M97.4375 128.012L97.4723 128.265L97.507 128.019L97.4688 127.94L97.4375 128.012Z" fill="#F5F5F5"/>
<path d="M97.5099 127.907L97.502 127.911L97.5099 127.915V127.907Z" fill="#F5F5F5"/>
<path d="M83.7538 204.399L81.9714 212.631L78.7236 218.723C78.6675 218.827 78.633 218.942 78.6226 219.06C78.6122 219.178 78.6254 219.297 78.6619 219.409C78.6988 219.522 78.7577 219.625 78.8353 219.713C78.9129 219.801 79.0076 219.872 79.1134 219.921C79.2356 219.979 79.3693 220.005 79.504 219.999C79.6384 219.993 79.7693 219.954 79.8862 219.886C81.3971 218.993 86.9425 215.684 87.04 215.077C87.1513 214.366 89.4767 206.521 89.4767 206.521L83.7538 204.399Z" fill="#263238"/>
<path d="M87.2946 214.268C87.2027 214.362 87.0997 214.445 86.9883 214.513L86.1145 215.118L83.2217 217.097L80.3324 219.081C79.9842 219.312 79.6918 219.511 79.4516 219.674C79.3441 219.754 79.2271 219.82 79.1035 219.87C79.1926 219.774 79.2918 219.688 79.3994 219.614C79.5978 219.457 79.8868 219.241 80.2488 218.97C80.9694 218.437 81.9894 217.716 83.1103 216.941C84.2312 216.166 85.2755 215.487 86.0344 215.011C86.4139 214.769 86.7307 214.577 86.9395 214.453C87.0502 214.377 87.1693 214.315 87.2946 214.268Z" fill="#455A64"/>
<path d="M119.5 206.369L119.016 212.93C119.016 212.93 125.401 215.639 125.429 216.862H112.896L113.245 206.088L119.5 206.369Z" fill="#263238"/>
<path d="M125.034 216.439C124.874 216.458 124.713 216.458 124.554 216.439L123.245 216.397C122.141 216.361 120.616 216.311 118.928 216.29C117.24 216.269 115.719 216.269 114.612 216.29H113.303C113.142 216.301 112.981 216.294 112.822 216.269C112.98 216.236 113.141 216.219 113.303 216.219C113.609 216.198 114.058 216.176 114.612 216.155C115.715 216.116 117.243 216.091 118.932 216.116C120.62 216.141 122.148 216.205 123.252 216.276C123.802 216.311 124.247 216.347 124.557 216.375C124.717 216.384 124.877 216.405 125.034 216.439Z" fill="#455A64"/>
<path d="M91.4376 140.178L80.3711 209.953L90.536 210.579L106.222 140.178H91.4376Z" fill="#FF7D1F"/>
<path d="M106.408 137.135L111.515 210.578H121.078V132.817L106.408 137.135Z" fill="#FF7D1F"/>
<path d="M117.618 205.985C117.565 205.985 116.796 191.445 115.895 173.503C114.993 155.56 114.3 141.009 114.352 141.005C114.405 141.002 115.174 155.546 116.076 173.492C116.977 191.438 117.666 205.985 117.618 205.985Z" fill="#263238"/>
<path d="M121.077 205.985L121.003 206.01C120.941 206.01 120.843 206.046 120.721 206.063C120.474 206.106 120.112 206.156 119.677 206.213C118.789 206.323 117.557 206.454 116.196 206.568C113.477 206.82 111.256 206.923 111.26 206.796C111.26 206.796 111.295 206.796 111.357 206.796H111.646L112.691 206.71L116.172 206.401L119.653 206.088C120.537 206.021 121.115 205.978 121.077 205.985Z" fill="#263238"/>
<path d="M97.4657 141.819C97.4657 141.819 97.4657 141.876 97.4483 141.986C97.4309 142.097 97.41 142.26 97.3822 142.466C97.3195 142.896 97.2255 143.515 97.1072 144.307C96.867 145.907 96.505 148.217 96.042 151.061C95.1195 156.769 93.7758 164.645 92.1466 173.318C90.5174 181.99 88.9022 189.813 87.6908 195.468C87.085 198.294 86.5803 200.579 86.2252 202.154C86.0477 202.936 85.9084 203.547 85.8109 203.97L85.6996 204.439C85.6717 204.546 85.6543 204.599 85.6543 204.599C85.6543 204.599 85.6543 204.542 85.6821 204.436C85.71 204.329 85.7344 204.162 85.7761 203.96C85.8632 203.537 85.992 202.925 86.1556 202.14C86.5037 200.547 86.9702 198.262 87.5654 195.44C88.7455 189.781 90.3503 181.955 91.9691 173.282C93.5878 164.61 94.9524 156.772 95.9166 151.05C96.3901 148.206 96.773 145.9 97.0376 144.297C97.1698 143.504 97.2743 142.875 97.3474 142.459C97.3822 142.257 97.41 142.104 97.4309 141.983C97.4518 141.862 97.4657 141.819 97.4657 141.819Z" fill="#263238"/>
<path d="M91.5605 205.987C91.4236 206.009 91.2844 206.015 91.1462 206.005L90.0218 205.976L86.3109 205.824L82.6035 205.646L81.4791 205.593C81.342 205.592 81.2048 205.584 81.0684 205.568C81.578 205.495 82.0939 205.477 82.607 205.514C83.5574 205.514 84.8697 205.575 86.3179 205.639C87.766 205.703 89.0784 205.781 90.0253 205.845C90.5022 205.877 90.8851 205.905 91.1497 205.93C91.2882 205.935 91.4257 205.954 91.5605 205.987Z" fill="#263238"/>
<g opacity="0.3">
<path d="M90.9043 143.572L91.1236 142.186L105.96 141.329L105.4 143.856L90.9043 143.572Z" fill="black"/>
</g>
<g opacity="0.3">
<path d="M106.827 143.855L106.406 141.317L121.076 140.578L121.072 144.168L106.827 143.855Z" fill="black"/>
</g>
<path d="M92.3926 88.5947L102.749 86.2417L111.452 86.6078L119.041 89.0709L114.724 111.172L98.2026 112.668L92.3926 88.5947Z" fill="#263238"/>
<path d="M101.177 86.6074L90.2812 89.0706L95.7292 118.866C95.7292 118.866 90.8556 130.951 90.2812 142.186L106.409 141.319C106.409 141.319 107.52 126.512 107.14 120.811C106.761 115.11 106.507 105.136 106.507 105.136L101.177 86.6074Z" fill="#FF7D1F"/>
<path d="M70.0191 103.702C70.0191 103.702 73.7161 99.8745 77.5732 97.8165C80.4172 96.2988 85.987 94.3937 88.201 91.9483C89.0107 91.08 89.7122 90.1129 90.2897 89.0693L92.8622 103.102L81.9281 104.879C81.9281 104.879 83.5537 105.785 82.5407 106.432L89.3916 114.607L84.6955 123.649C84.6955 123.649 69.3856 110.182 70.0191 103.702Z" fill="#FF7D1F"/>
<path d="M111.451 86.6074C112.775 86.7763 114.083 87.0542 115.363 87.4391C117.682 88.2211 121.602 89.0706 121.602 89.0706L116.032 119.257C116.032 119.257 123.603 128.811 121.602 140.502C121.602 140.502 111.141 141.344 106.406 141.319L106.344 104.589C106.344 104.589 110.309 99.435 110.817 94.3807C111.325 89.3265 111.451 86.6074 111.451 86.6074Z" fill="#FF7D1F"/>
<path d="M121.6 89.0693C121.6 89.0693 127.841 95.6697 131.277 98.1613C134.713 100.653 139.037 104.381 139.037 106.365C138.968 107.605 138.72 108.83 138.302 109.997C138.062 110.73 137.709 111.42 137.258 112.041C135.681 114.174 131.504 119.74 128.743 122.38L121.781 114.891L128.395 107.427C128.395 107.427 119.518 103.688 119.08 102.672C118.641 101.655 121.6 89.0693 121.6 89.0693Z" fill="#FF7D1F"/>
<path d="M106.279 108.569C106.221 108.526 106.168 108.477 106.119 108.423L105.684 107.979L104.086 106.301L98.6693 100.525L98.638 100.49V100.44L99.3551 97.3691C99.463 96.9106 99.5674 96.4592 99.6719 96.0114L99.7589 96.1251H96.2012L96.236 96.0114C97.0784 93.4061 97.799 91.174 98.3247 89.5745C98.5823 88.7961 98.7876 88.1741 98.9373 87.7263C99.007 87.5237 99.0627 87.3708 99.1079 87.2393C99.1239 87.1814 99.1462 87.1256 99.1741 87.0723C99.165 87.1316 99.1511 87.1899 99.1323 87.2464C99.0975 87.3744 99.0487 87.5379 98.9896 87.744L98.4326 89.5958C97.9278 91.2024 97.2281 93.4416 96.4135 96.054L96.3335 95.9403H99.7832H99.8981L99.8738 96.054C99.7693 96.5019 99.6614 96.9533 99.557 97.4118C99.3063 98.4781 99.0661 99.5017 98.8364 100.483L98.812 100.401L104.183 106.223L105.743 107.94L106.157 108.409C106.202 108.458 106.243 108.512 106.279 108.569Z" fill="#263238"/>
<path d="M106.408 141.319C106.36 141.319 106.294 133.034 106.263 122.816C106.232 112.597 106.245 104.308 106.294 104.305C106.343 104.301 106.408 112.59 106.443 122.816C106.478 133.041 106.46 141.319 106.408 141.319Z" fill="#263238"/>
<path d="M113.123 86.8765C113.145 86.9408 113.162 87.0073 113.171 87.0755C113.196 87.2248 113.23 87.4309 113.276 87.6584C113.363 88.188 113.485 88.9238 113.624 89.8372L114.8 97.2764L114.818 97.3973H114.699L112.778 97.1342L112.872 97.0027L113.265 97.8202C113.53 98.3711 113.791 98.915 114.042 99.4303L114.066 99.4836L114.031 99.5263L108.97 105.981L107.452 107.89L107.034 108.401C106.99 108.464 106.939 108.52 106.881 108.568C106.919 108.502 106.962 108.439 107.01 108.38L107.4 107.851L108.876 105.906L113.899 99.3948V99.4943C113.652 98.9789 113.391 98.428 113.123 97.8842L112.705 97.0596L112.628 96.9032L112.799 96.9245L114.72 97.1947L114.623 97.2977C114.177 94.3228 113.787 91.7246 113.509 89.8337C113.38 88.9166 113.276 88.1773 113.199 87.6478C113.169 87.4107 113.144 87.2152 113.126 87.0613C113.12 86.9998 113.119 86.938 113.123 86.8765Z" fill="#263238"/>
<path d="M104.891 129.313C104.522 128.854 103.801 128.602 103.453 129.064C103.277 129.212 103.15 129.41 103.087 129.634C103.025 129.857 103.031 130.095 103.105 130.315C103.165 130.449 103.25 130.57 103.356 130.67C103.461 130.77 103.586 130.848 103.721 130.898C103.857 130.948 104.001 130.97 104.145 130.963C104.289 130.956 104.43 130.919 104.56 130.855C104.686 130.781 104.796 130.681 104.882 130.561C104.968 130.441 105.029 130.304 105.06 130.159C105.091 130.013 105.092 129.863 105.063 129.717C105.034 129.572 104.975 129.434 104.891 129.313Z" fill="#263238"/>
<path d="M105.087 119.718C104.718 119.256 103.997 118.989 103.649 119.469C103.474 119.617 103.347 119.816 103.285 120.039C103.223 120.263 103.228 120.5 103.301 120.72C103.36 120.855 103.445 120.976 103.551 121.076C103.657 121.176 103.781 121.254 103.917 121.304C104.052 121.355 104.197 121.377 104.341 121.369C104.485 121.362 104.626 121.325 104.756 121.261C104.883 121.186 104.992 121.086 105.078 120.966C105.164 120.846 105.225 120.709 105.256 120.564C105.287 120.419 105.288 120.268 105.259 120.123C105.23 119.977 105.171 119.839 105.087 119.718Z" fill="#263238"/>
<path d="M129.951 118.926C129.582 118.467 128.861 118.215 128.513 118.677C128.338 118.825 128.21 119.023 128.148 119.247C128.086 119.471 128.092 119.708 128.165 119.928C128.224 120.062 128.309 120.184 128.415 120.284C128.521 120.384 128.645 120.462 128.781 120.512C128.917 120.562 129.061 120.584 129.205 120.577C129.349 120.57 129.49 120.533 129.62 120.468C129.746 120.394 129.856 120.294 129.942 120.174C130.028 120.054 130.089 119.917 130.12 119.772C130.151 119.626 130.152 119.476 130.123 119.331C130.094 119.185 130.035 119.047 129.951 118.926Z" fill="#263238"/>
<path d="M84.6168 119.807C84.2478 119.345 83.5273 119.078 83.1791 119.558C83.0037 119.706 82.8763 119.905 82.814 120.128C82.752 120.352 82.7579 120.589 82.831 120.809C82.8902 120.944 82.9751 121.065 83.081 121.165C83.1865 121.265 83.3111 121.343 83.4468 121.393C83.5823 121.444 83.7267 121.466 83.8708 121.458C84.015 121.451 84.1563 121.414 84.2861 121.35C84.4125 121.275 84.5222 121.175 84.6081 121.055C84.6941 120.935 84.7547 120.798 84.786 120.653C84.817 120.508 84.8181 120.357 84.7892 120.211C84.7599 120.066 84.7011 119.928 84.6168 119.807Z" fill="#263238"/>
<path d="M82.6269 106.563C81.756 106.151 80.8265 105.882 79.8734 105.767C78.9157 105.714 77.956 105.815 77.0293 106.066C77.2761 105.917 77.5455 105.812 77.8265 105.753C79.182 105.399 80.6152 105.524 81.8924 106.108C82.1605 106.217 82.4087 106.371 82.6269 106.563Z" fill="#263238"/>
<path d="M77.0293 104.878C77.2413 104.735 77.4773 104.631 77.7255 104.572C78.3204 104.39 78.9387 104.301 79.5601 104.306C80.1821 104.312 80.8004 104.411 81.3946 104.601C81.6414 104.668 81.8764 104.775 82.0908 104.917C81.2641 104.674 80.4123 104.531 79.5531 104.491C78.6995 104.515 77.8519 104.645 77.0293 104.878Z" fill="#263238"/>
<path d="M93.1733 104.914C93.1099 104.72 93.0601 104.522 93.0236 104.321L92.6755 102.693C92.3483 101.296 91.9096 99.4157 91.4258 97.3365C90.9419 95.2572 90.552 93.3343 90.3362 91.9374C90.2248 91.2266 90.1482 90.6757 90.1099 90.2847C90.0779 90.0824 90.0626 89.8781 90.0646 89.6733C90.1172 89.8702 90.1555 90.0711 90.1795 90.274C90.2387 90.6614 90.3362 91.223 90.4615 91.9161C90.7086 93.3023 91.1159 95.2039 91.6033 97.2938C92.0907 99.3837 92.5258 101.285 92.8008 102.668C92.94 103.357 93.0445 103.919 93.1037 104.306C93.143 104.507 93.1663 104.71 93.1733 104.914Z" fill="#263238"/>
<path d="M121.217 89.752C121.209 89.9624 121.184 90.1717 121.14 90.3775C121.074 90.8076 120.983 91.3763 120.872 92.0694C120.639 93.5231 120.325 95.4851 119.981 97.6497C119.636 99.8142 119.285 101.798 119.034 103.219C118.902 103.93 118.79 104.506 118.707 104.904C118.675 105.112 118.626 105.316 118.561 105.515C118.568 105.302 118.589 105.09 118.623 104.879C118.693 104.449 118.783 103.88 118.891 103.187C119.124 101.73 119.441 99.7716 119.786 97.607C120.131 95.4424 120.482 93.4591 120.733 92.0338C120.865 91.323 120.976 90.7507 121.057 90.3526C121.097 90.149 121.15 89.9485 121.217 89.752Z" fill="#263238"/>
<path d="M133.09 103.764C133.09 103.796 132.704 103.764 132.091 103.796C131.295 103.803 130.524 104.082 129.902 104.589C129.333 105.158 128.912 105.863 128.676 106.64C128.579 106.966 128.462 107.287 128.328 107.599C128.366 107.258 128.444 106.921 128.558 106.597C128.768 105.779 129.193 105.036 129.787 104.447C130.135 104.14 130.549 103.921 130.995 103.807C131.353 103.713 131.721 103.665 132.091 103.665C132.338 103.662 132.584 103.677 132.829 103.707C132.919 103.709 133.008 103.728 133.09 103.764Z" fill="#263238"/>
<path d="M134.751 105.423C134.751 105.455 134.368 105.423 133.755 105.466C132.155 105.561 130.608 106.087 129.272 106.991C128.757 107.346 128.468 107.588 128.447 107.563C128.426 107.538 128.502 107.481 128.628 107.36C128.808 107.188 128.999 107.028 129.199 106.88C130.525 105.9 132.115 105.36 133.752 105.334C133.997 105.33 134.243 105.342 134.487 105.37C134.577 105.371 134.667 105.389 134.751 105.423Z" fill="#263238"/>
<path d="M98.3343 119.719C97.9301 119.616 97.5364 119.476 97.1577 119.3C96.7591 119.18 96.372 119.023 96.002 118.831C96.4228 118.846 96.8371 118.946 97.2203 119.126C97.6252 119.249 98.0032 119.45 98.3343 119.719Z" fill="#263238"/>
<path d="M98.7787 116.146C98.8066 116.189 97.992 116.758 97.0764 117.568C96.1609 118.379 95.4856 119.111 95.4473 119.072C95.8699 118.451 96.3788 117.897 96.9581 117.426C97.4997 116.91 98.1131 116.479 98.7787 116.146Z" fill="#263238"/>
<path d="M121.604 140.501C121.604 140.554 114.596 140.97 105.938 141.436C97.2809 141.901 90.2734 142.239 90.2734 142.186C90.2734 142.132 97.2809 141.717 105.938 141.251C114.596 140.785 121.6 140.451 121.604 140.501Z" fill="#263238"/>
<g opacity="0.3">
<path d="M128.062 107.237C127.843 106.55 127.844 105.81 128.064 105.124C128.284 104.437 128.713 103.841 129.288 103.419C129.524 103.223 129.827 103.13 130.13 103.16C130.204 103.171 130.274 103.198 130.337 103.238C130.4 103.279 130.453 103.333 130.494 103.397C130.535 103.46 130.562 103.532 130.573 103.607C130.585 103.682 130.581 103.758 130.562 103.832C130.46 103.998 130.312 104.13 130.137 104.212C129.608 104.581 129.208 105.113 128.995 105.73C128.784 106.342 128.638 106.976 128.56 107.621" fill="black"/>
</g>
<g opacity="0.3">
<path d="M96.3184 96.0257C96.381 96.2176 97.6273 96.3634 97.864 96.8894C98.0467 97.4403 98.0467 98.0374 97.864 98.5884C97.6833 99.1379 97.5973 99.7151 97.6099 100.294C97.7143 101.325 98.5428 102.104 99.3156 102.782C101.474 104.663 104.102 106.692 106.278 108.576C104.349 106.23 101.836 103.813 99.7125 101.681C99.3762 101.389 99.1074 101.025 98.9257 100.614C98.8001 100.057 98.8338 99.4748 99.0232 98.9367C99.2042 98.2091 99.3873 97.4805 99.5732 96.7508C99.6185 96.5624 99.7264 96.2461 99.7507 96.143C99.4931 96.0971 99.2324 96.0744 98.971 96.0755C98.0882 96.0069 97.2019 95.9998 96.3184 96.0541" fill="black"/>
</g>
<path d="M84.332 120.665C84.3571 120.563 84.3943 120.465 84.4434 120.373C84.527 120.192 84.6558 119.932 84.8229 119.616C85.2674 118.796 85.7676 118.008 86.3197 117.259C86.8694 116.506 87.471 115.793 88.1195 115.127C88.3701 114.875 88.579 114.675 88.7287 114.544C88.8784 114.412 88.9619 114.345 88.9724 114.356C88.7353 114.658 88.4819 114.946 88.2135 115.219C87.74 115.745 87.1065 116.488 86.4729 117.352C85.8394 118.216 85.3067 119.054 84.9447 119.662C84.7606 120.009 84.5559 120.343 84.332 120.665Z" fill="#263238"/>
<path d="M86.9085 111.861C86.9294 111.886 86.529 112.281 85.9303 112.963C84.3659 114.743 83.0994 116.773 82.1811 118.974C81.833 119.816 81.645 120.353 81.6172 120.345C81.6356 120.212 81.667 120.081 81.7112 119.955C81.7808 119.706 81.8992 119.354 82.0593 118.924C82.9205 116.678 84.2023 114.626 85.8328 112.881C86.1461 112.547 86.4072 112.291 86.5987 112.121C86.6934 112.024 86.7971 111.937 86.9085 111.861Z" fill="#263238"/>
<path d="M131.778 119.047C131.675 118.962 131.581 118.864 131.5 118.756L130.779 117.939C130.166 117.253 129.3 116.318 128.318 115.315C127.336 114.313 126.417 113.432 125.742 112.81L124.938 112.074C124.832 111.991 124.737 111.895 124.652 111.79C124.772 111.851 124.883 111.927 124.983 112.017C125.188 112.173 125.477 112.408 125.825 112.71C126.522 113.311 127.458 114.182 128.443 115.198C129.428 116.215 130.285 117.153 130.88 117.867C131.176 118.223 131.406 118.518 131.576 118.724C131.656 118.824 131.723 118.932 131.778 119.047Z" fill="#263238"/>
<path d="M88.3987 116.495L90.6789 117.749L95.7369 119.214C95.7369 119.214 94.6926 126.28 94.0347 126.884C93.3767 127.488 85.9863 121.14 85.9863 121.14L88.3987 116.495Z" fill="#FFBE9D"/>
<path d="M122.88 116.071L121.233 117.379L116.488 119.686C116.488 119.686 118.681 126.471 119.419 126.955C120.157 127.438 126.416 119.924 126.416 119.924L122.88 116.071Z" fill="#FFBE9D"/>
<path d="M99.5208 65.0718C99.4546 66.8916 97.084 67.9934 97.1118 69.8132C97.1118 70.5916 97.5992 71.2954 97.6932 72.0702C97.8185 73.1117 97.2476 74.0926 97.0353 75.1198C96.6036 77.2524 97.8081 79.4703 99.5974 80.629C101.387 81.7877 103.629 82.0081 105.728 81.7167" fill="#263238"/>
<path d="M113.86 64.6377C113.79 65.6151 114.42 66.4859 115.057 67.2181C115.695 67.9503 116.401 68.7145 116.537 69.6919C116.781 71.4087 115.145 73.001 115.475 74.7035C115.656 75.6134 116.387 76.3456 116.52 77.2662C116.652 78.1868 116.171 79.0434 115.601 79.7045C115.03 80.3656 114.351 80.2803 113.839 81.0125C113.244 81.8342 112.487 82.5204 111.618 83.0276C109.773 84.0619 107.559 82.5691 106.668 82.3168" fill="#263238"/>
<path d="M99.1622 66.1369C99.1378 65.2519 99.9384 64.5659 100.746 64.2424C101.554 63.919 102.452 63.7982 103.183 63.3005C103.82 62.8634 104.248 62.1809 104.788 61.6229C105.453 60.935 106.285 60.4399 107.199 60.1882C108.113 59.9365 109.076 59.9373 109.989 60.1904C110.903 60.4434 111.735 60.9398 112.399 61.6287C113.063 62.3176 113.536 63.1742 113.769 64.1109C114.079 65.3692 113.866 66.862 112.892 67.6972C111.764 68.6711 110.089 68.4543 108.641 68.1522C107.193 67.8501 105.543 67.5586 104.349 68.4259C103.621 68.9519 103.204 69.8014 102.758 70.5905C102.313 71.3795 101.752 72.1828 100.91 72.4778C100.067 72.7728 98.9254 72.2645 98.8906 71.3546" fill="#263238"/>
<path d="M102.58 66.3117C102.219 66.3516 101.885 66.5287 101.646 66.8077C101.406 67.0868 101.278 67.4476 101.286 67.8187L102.152 87.8188C102.187 90.1789 105.571 91.5082 108.049 91.4478C110.549 91.3909 110.632 90.1362 110.66 87.8935C110.712 84.1365 110.709 82.729 110.712 82.7503C110.716 82.7717 113.87 82.2065 114.517 77.9947C114.838 75.8977 114.726 72.4642 114.549 69.6563C114.388 67.1327 112.742 64.0369 110.277 64.3071L102.58 66.3117Z" fill="#FFBE9D"/>
<path d="M113.242 72.0666C113.244 72.2072 113.192 72.3428 113.097 72.4445C113.002 72.5462 112.872 72.6058 112.734 72.6104C112.667 72.6162 112.599 72.6083 112.535 72.5869C112.471 72.5656 112.412 72.5315 112.361 72.4864C112.31 72.4414 112.268 72.3864 112.239 72.3246C112.209 72.2629 112.191 72.1957 112.188 72.127C112.186 71.9843 112.239 71.8467 112.336 71.7441C112.434 71.6416 112.566 71.5825 112.706 71.5796C112.773 71.5753 112.84 71.5845 112.903 71.6067C112.966 71.6289 113.024 71.6637 113.074 71.7089C113.124 71.7542 113.164 71.8091 113.193 71.8705C113.222 71.9319 113.239 71.9986 113.242 72.0666Z" fill="#263238"/>
<path d="M113.825 71.4471C113.759 71.5147 113.355 71.2125 112.781 71.2161C112.206 71.2197 111.796 71.5111 111.736 71.44C111.677 71.3689 111.771 71.2801 111.956 71.145C112.2 70.9699 112.492 70.8767 112.791 70.8784C113.087 70.8781 113.376 70.9726 113.616 71.1486C113.797 71.2872 113.856 71.4151 113.825 71.4471Z" fill="#263238"/>
<path d="M107.721 72.0674C107.723 72.2079 107.67 72.3436 107.575 72.4453C107.48 72.547 107.35 72.6065 107.213 72.6112C107.145 72.617 107.078 72.609 107.014 72.5877C106.949 72.5664 106.89 72.5322 106.839 72.4872C106.789 72.4421 106.747 72.3871 106.717 72.3254C106.687 72.2637 106.67 72.1965 106.666 72.1278C106.664 71.9869 106.716 71.8508 106.811 71.7486C106.906 71.6463 107.036 71.586 107.174 71.5804C107.242 71.5746 107.309 71.5827 107.374 71.6042C107.438 71.6258 107.498 71.6602 107.549 71.7057C107.6 71.7511 107.641 71.8065 107.671 71.8687C107.7 71.9308 107.717 71.9984 107.721 72.0674Z" fill="#263238"/>
<path d="M108.228 71.5687C108.162 71.6362 107.762 71.3376 107.184 71.3376C106.606 71.3376 106.195 71.6326 106.139 71.5616C106.084 71.4905 106.174 71.4052 106.355 71.2665C106.601 71.0917 106.894 70.9998 107.194 71.0035C107.49 71.0007 107.779 71.0941 108.019 71.2701C108.2 71.4087 108.259 71.5367 108.228 71.5687Z" fill="#263238"/>
<path d="M110.301 75.8726C110.602 75.777 110.913 75.7185 111.227 75.6984C111.374 75.6984 111.509 75.6558 111.534 75.5527C111.546 75.3991 111.512 75.2455 111.436 75.112C111.297 74.7565 111.154 74.3798 111.005 73.9852C110.402 72.3751 109.96 71.0565 110.033 71.0316C110.106 71.0067 110.636 72.2898 111.234 73.8964C111.377 74.2945 111.516 74.6712 111.649 75.0338C111.74 75.2129 111.768 75.4192 111.725 75.6167C111.705 75.6699 111.673 75.7173 111.631 75.755C111.589 75.7928 111.539 75.8197 111.485 75.8335C111.406 75.8561 111.324 75.868 111.241 75.869C110.929 75.9093 110.614 75.9105 110.301 75.8726Z" fill="#263238"/>
<path d="M110.712 82.7492C108.769 82.7833 106.856 82.2665 105.184 81.2563C105.229 81.2563 106.705 84.1851 110.656 83.7444L110.712 82.7492Z" fill="#EB996E"/>
<path d="M110.066 77.2731C109.957 77.1356 109.815 77.0282 109.655 76.9606C109.494 76.8929 109.32 76.8672 109.147 76.8857C109.022 76.8983 108.9 76.9362 108.788 76.9972C108.677 77.0582 108.579 77.1411 108.5 77.2411C108.419 77.3396 108.372 77.4617 108.364 77.5896C108.357 77.7174 108.39 77.8444 108.458 77.952C108.55 78.0551 108.67 78.1283 108.802 78.1624C108.934 78.1965 109.074 78.1901 109.203 78.1439C109.469 78.0397 109.713 77.8827 109.92 77.6819C109.984 77.6347 110.038 77.5756 110.08 77.5077C110.101 77.4763 110.112 77.4391 110.112 77.4011C110.112 77.363 110.101 77.3258 110.08 77.2944" fill="#FF7D1F"/>
<path d="M108.628 76.2779C108.722 76.2779 108.725 76.9034 109.254 77.3442C109.783 77.7849 110.441 77.6996 110.445 77.8062C110.448 77.9129 110.299 77.9306 110.024 77.9378C109.661 77.9437 109.308 77.8177 109.028 77.5823C108.758 77.3585 108.585 77.0358 108.544 76.6831C108.527 76.4449 108.586 76.2743 108.628 76.2779Z" fill="#263238"/>
<path d="M108.479 70.5484C108.423 70.7084 107.856 70.6337 107.187 70.7155C106.519 70.7972 105.98 70.9892 105.892 70.847C105.851 70.7795 105.945 70.6302 106.164 70.4916C106.453 70.3017 106.782 70.1823 107.123 70.1429C107.465 70.1034 107.811 70.1449 108.134 70.2641C108.381 70.3494 108.503 70.4738 108.479 70.5484Z" fill="#263238"/>
<path d="M113.611 69.7627C113.514 69.8977 113.121 69.7627 112.651 69.7627C112.181 69.7627 111.777 69.8515 111.686 69.7165C111.645 69.6489 111.707 69.5139 111.881 69.3895C112.115 69.2388 112.388 69.1628 112.664 69.171C112.941 69.1792 113.209 69.2714 113.434 69.4357C113.601 69.5636 113.657 69.6916 113.611 69.7627Z" fill="#263238"/>
<path d="M100.835 80.4001C101.97 80.6347 102.071 80.0446 102.924 79.2414C103.344 78.8351 103.666 78.3346 103.864 77.7794C104.062 77.2242 104.131 76.6296 104.066 76.0425C103.937 75.0082 103.391 73.9561 103.742 72.9751C104.205 71.6813 105.984 71.2833 106.454 69.993C106.729 69.2395 106.482 68.3616 106.802 67.6259C107.122 66.8901 107.808 66.5382 108.501 66.2823C109.194 66.0264 109.939 65.8487 110.523 65.3866C111.108 64.9246 111.467 64.0502 111.091 63.4033C108.01 63.7802 104.985 64.5307 102.078 65.639C101.406 65.8949 100.686 66.2041 100.303 66.8155C99.9199 67.4268 99.899 68.2976 99.9373 69.0725C100.109 72.8638 100.281 76.6455 100.453 80.4179" fill="#263238"/>
<path d="M98.2395 71.8236C98.1744 71.1229 97.8876 70.4629 97.4218 69.9441C96.9557 69.4253 96.3367 69.076 95.6589 68.9493C94.9808 68.8226 94.2808 68.9254 93.665 69.2421C93.0495 69.5588 92.552 70.0721 92.2485 70.7039C91.6776 71.8946 91.876 73.3412 92.4121 74.5497C93.0457 75.9714 94.3476 77.2937 95.8932 77.2226C97.3449 77.155 98.511 75.8577 98.9288 74.436C99.3465 73.0142 99.1794 71.4966 99.0053 70.0251" fill="#263238"/>
<path d="M97.433 77.5786C97.3456 77.5124 97.2721 77.429 97.2171 77.3333C97.0549 77.0792 96.9505 76.7914 96.9108 76.4909C96.8499 76.0476 96.8627 75.597 96.9491 75.1581C97.0326 74.664 97.1962 74.1451 97.2972 73.5942C97.4288 73.0854 97.4598 72.5549 97.3877 72.0338C97.3042 71.5647 97.0848 71.1666 96.9909 70.7969C96.8983 70.5058 96.8895 70.1936 96.9665 69.8977C97.0326 69.688 97.1197 69.6027 97.1266 69.6098C97.1336 69.6169 97.0744 69.7164 97.0361 69.9155C96.9905 70.1983 97.017 70.4883 97.1127 70.7578C97.2826 71.1633 97.4291 71.5787 97.5513 72.0018C97.6376 72.5451 97.6115 73.1009 97.4747 73.6333C97.3529 74.1949 97.1858 74.6996 97.0953 75.1901C97.0051 75.6112 96.9794 76.044 97.0187 76.4732C97.0772 76.8677 97.2185 77.2448 97.433 77.5786Z" fill="#455A64"/>
<path d="M97.3902 72.5347C97.227 72.7906 97.0108 73.0066 96.7567 73.1673C96.1624 73.5949 95.4558 73.8303 94.7289 73.843C94.002 73.8556 93.2884 73.645 92.6803 73.2384C92.4223 73.0868 92.2002 72.8793 92.0293 72.6306C92.0502 72.6058 92.2869 72.8546 92.7499 73.1283C93.349 73.4872 94.0334 73.6706 94.7282 73.658C95.4227 73.6455 96.1005 73.4375 96.687 73.0572C97.1257 72.755 97.3554 72.4956 97.3902 72.5347Z" fill="#455A64"/>
<path d="M97.1667 73.1783C97.0946 73.4201 96.9762 73.6448 96.8185 73.8394C96.4652 74.3337 96.0186 74.7509 95.5051 75.0664C94.9917 75.382 94.4215 75.5896 93.8283 75.677C93.586 75.7275 93.336 75.7275 93.0938 75.677C93.3291 75.6187 93.5672 75.5736 93.8074 75.5419C94.3734 75.4214 94.9158 75.2052 95.4122 74.9022C95.9061 74.5966 96.3472 74.2099 96.7176 73.7577C96.9996 73.4129 97.1423 73.1641 97.1667 73.1783Z" fill="#455A64"/>
<path d="M98.2093 78.9866C98.2093 78.9866 98.1919 78.9866 98.164 78.9369C98.1215 78.8831 98.0832 78.826 98.0491 78.7663C97.9165 78.5396 97.8243 78.2904 97.7776 78.0305C97.7 77.6166 97.7226 77.1894 97.8437 76.7865C98 76.2442 98.3409 75.7766 98.8045 75.4679C99.2919 75.1124 99.9289 74.8707 100.336 74.3091C100.438 74.169 100.511 74.0089 100.549 73.8389C100.587 73.6688 100.591 73.4925 100.559 73.321C100.48 72.946 100.364 72.5803 100.211 72.2299C100.049 71.8294 99.9704 71.3992 99.9791 70.9661C99.9881 70.533 100.085 70.1065 100.263 69.7134C100.45 69.2913 100.739 68.9244 101.102 68.6471C101.481 68.3776 101.912 68.1946 102.366 68.1104C102.811 68.0073 103.257 67.9469 103.671 67.819C104.076 67.7076 104.448 67.4965 104.754 67.2041C105.03 66.9008 105.198 66.5114 105.231 66.0987C105.268 65.6872 105.332 65.2788 105.422 64.876C105.605 64.1187 105.991 63.4283 106.536 62.882C107.015 62.4126 107.622 62.1028 108.277 61.9934C108.752 61.911 109.241 61.9674 109.686 62.156C110.131 62.3447 110.515 62.6579 110.794 63.0597C110.941 63.275 111.05 63.5158 111.114 63.7706C111.14 63.8583 111.153 63.9492 111.156 64.0407C111.077 63.7017 110.934 63.3817 110.734 63.0988C110.496 62.7734 110.184 62.5113 109.826 62.3346C109.349 62.1029 108.814 62.0296 108.294 62.1249C107.665 62.2353 107.084 62.5377 106.627 62.9922C106.114 63.5254 105.753 64.1914 105.582 64.9186C105.494 65.3204 105.431 65.7277 105.394 66.1378C105.357 66.588 105.175 67.0129 104.876 67.3462C104.545 67.6603 104.143 67.8862 103.706 68.0038C103.274 68.1388 102.825 68.1993 102.39 68.3023C101.96 68.382 101.551 68.5527 101.189 68.8035C100.851 69.0619 100.582 69.4029 100.406 69.7952C100.237 70.1664 100.145 70.5691 100.136 70.9781C100.126 71.3872 100.199 71.794 100.35 72.173C100.506 72.5347 100.622 72.9124 100.698 73.2997C100.732 73.4922 100.727 73.6896 100.683 73.8798C100.638 74.07 100.556 74.2488 100.441 74.4051C99.9881 75.0094 99.3337 75.2439 98.8602 75.5816C98.414 75.8686 98.0822 76.3083 97.9238 76.8221C97.7985 77.2078 97.7665 77.6187 97.8298 78.0199C97.8953 78.3638 98.0241 78.6919 98.2093 78.9866Z" fill="#455A64"/>
<path d="M98.4843 67.2286C98.4537 67.168 98.4356 67.1013 98.4321 67.0331C98.4178 66.8366 98.4669 66.6407 98.5714 66.4751C98.7339 66.2074 98.9786 66.0024 99.2676 65.8922C99.6509 65.7675 100.061 65.7539 100.451 65.8531C100.883 65.9384 101.332 66.1125 101.823 66.2085C102.074 66.2801 102.337 66.2959 102.595 66.2548C102.852 66.2137 103.098 66.1167 103.316 65.9704C103.755 65.6149 103.974 65.0391 104.197 64.4562C104.423 63.8303 104.745 63.2449 105.151 62.7217C105.94 61.696 107.043 60.9701 108.284 60.6602C108.827 60.5293 109.394 60.5439 109.93 60.7029C110.395 60.854 110.807 61.1362 111.121 61.5168C111.385 61.8298 111.545 62.2208 111.577 62.6329C111.605 62.9406 111.559 63.2508 111.441 63.5357C111.371 63.7155 111.266 63.8788 111.131 64.0155C111.088 64.0673 111.036 64.1107 110.978 64.1434C111.148 63.9598 111.283 63.7452 111.375 63.5108C111.475 63.2339 111.51 62.9367 111.476 62.6435C111.437 62.2561 111.279 61.8914 111.023 61.6021C110.714 61.252 110.315 60.9972 109.871 60.8664C109.358 60.7243 108.818 60.7157 108.301 60.8415C107.107 61.1554 106.047 61.8625 105.286 62.8532C104.89 63.355 104.574 63.9176 104.35 64.5202C104.12 65.1031 103.894 65.7251 103.403 66.1054C103.166 66.2867 102.884 66.3952 102.589 66.4182C102.318 66.4393 102.046 66.4201 101.781 66.3613C101.273 66.2512 100.831 66.0699 100.413 65.981C100.045 65.877 99.6564 65.877 99.2885 65.981C99.0176 66.0778 98.7847 66.261 98.6236 66.5035C98.5191 66.6555 98.4631 66.8367 98.4634 67.0224C98.4704 67.1611 98.4948 67.225 98.4843 67.2286Z" fill="#455A64"/>
</svg>
