<svg width="37" height="33" viewBox="0 0 37 33" fill="none" xmlns="http://www.w3.org/2000/svg">
<path d="M23.5949 12.8333C25.3829 12.8333 26.8324 14.2698 26.8324 16.0417V24.7482C26.8324 29.3055 23.1043 33 18.5056 33C13.9067 33 10.1786 29.3055 10.1786 24.7482V16.0417C10.1786 14.2698 11.628 12.8333 13.4161 12.8333H23.5949ZM9.49287 12.8316C8.84639 13.6066 8.42927 14.5765 8.34455 15.6391L8.32857 16.0417V24.7482C8.32857 26.3003 8.6824 27.7706 9.31451 29.084C8.70568 29.2472 8.06413 29.3333 7.40229 29.3333C3.31413 29.3333 0 26.0491 0 21.9978V16.0417C0 14.3583 1.30815 12.9778 2.97197 12.844L3.2375 12.8333L9.49287 12.8316ZM27.5182 12.8316L33.7625 12.8333C35.5505 12.8333 37 14.2698 37 16.0417V22C37 26.05 33.6868 29.3333 29.6 29.3333C28.9407 29.3333 28.3013 29.2479 27.6928 29.0875C28.2489 27.9363 28.5895 26.6662 28.6659 25.3264L28.6824 24.7482V16.0417C28.6824 14.8219 28.2454 13.7036 27.5182 12.8316ZM18.5 0C21.5653 0 24.05 2.46244 24.05 5.5C24.05 8.53756 21.5653 11 18.5 11C15.4347 11 12.95 8.53756 12.95 5.5C12.95 2.46244 15.4347 0 18.5 0ZM30.525 1.83333C33.0793 1.83333 35.15 3.88537 35.15 6.41667C35.15 8.94797 33.0793 11 30.525 11C27.9707 11 25.9 8.94797 25.9 6.41667C25.9 3.88537 27.9707 1.83333 30.525 1.83333ZM6.475 1.83333C9.02931 1.83333 11.1 3.88537 11.1 6.41667C11.1 8.94797 9.02931 11 6.475 11C3.92069 11 1.85 8.94797 1.85 6.41667C1.85 3.88537 3.92069 1.83333 6.475 1.83333Z" fill="#212121"/>
</svg>
