<svg width="141" height="154" viewBox="0 0 141 154" fill="none" xmlns="http://www.w3.org/2000/svg">
<path d="M40.0665 91.7609L20.3125 89.6681L11.9456 70.2324L5.44531 71.9653C5.44531 71.9653 10.2478 92.5049 15.6225 95.6874C20.9972 98.8699 39.3584 99.4411 39.3584 99.4411L40.0665 91.7609Z" fill="#FF7D1F"/>
<path d="M50.563 101.647C53.7773 97.9453 53.4512 92.2778 49.8347 88.988C46.2182 85.6983 40.6807 86.032 37.4665 89.7335C34.2522 93.4349 34.5782 99.1024 38.1948 102.392C41.8113 105.682 47.3487 105.348 50.563 101.647Z" fill="#131313"/>
<path d="M44.0249 104.664C41.9948 104.664 40.0275 103.944 38.4582 102.626C36.8889 101.307 35.8147 99.4731 35.4186 97.4352C35.0226 95.3973 35.3292 93.282 36.2862 91.4495C37.2432 89.6171 38.7913 88.1809 40.6669 87.3858C42.5425 86.5906 44.6295 86.4857 46.5722 87.0889C48.5149 87.692 50.1931 88.966 51.321 90.6936C52.4489 92.4212 52.9566 94.4957 52.7576 96.5635C52.5586 98.6313 51.6652 100.564 50.2297 102.034C49.4167 102.87 48.4497 103.533 47.3847 103.985C46.3196 104.436 45.1777 104.667 44.0249 104.664ZM44.0249 86.7309C42.0002 86.7288 40.0375 87.4453 38.471 88.7582C36.9046 90.0711 35.8314 91.8993 35.4344 93.9313C35.0373 95.9633 35.3409 98.0733 36.2934 99.9019C37.2459 101.73 38.7885 103.164 40.6582 103.959C42.5279 104.755 44.6091 104.861 46.5472 104.262C48.4854 103.663 50.1605 102.394 51.2871 100.672C52.4138 98.9506 52.9224 96.8822 52.7261 94.8198C52.5299 92.7573 51.641 90.8283 50.2109 89.3614C49.401 88.5261 48.4372 87.8635 47.3753 87.412C46.3135 86.9605 45.1747 86.729 44.0249 86.7309Z" fill="#131313"/>
<path d="M18.5389 97.2232C22.0675 96.3562 24.2412 92.7256 23.3941 89.1142C22.5469 85.5027 18.9997 83.2779 15.4711 84.1449C11.9425 85.012 9.76877 88.6425 10.6159 92.254C11.4631 95.8655 15.0103 98.0902 18.5389 97.2232Z" fill="#131313"/>
<path d="M12.0184 71.8043C14.1155 69.6579 14.1155 66.178 12.0184 64.0316C9.92132 61.8853 6.52123 61.8853 4.42411 64.0316C2.327 66.178 2.327 69.6579 4.42411 71.8043C6.52123 73.9507 9.92132 73.9507 12.0184 71.8043Z" fill="#131313"/>
<path d="M16.5948 64.9443L12.1733 68.7658L10.5787 66.8332L15.0002 63.0117C15.2331 62.8105 15.5344 62.7121 15.8381 62.7383C16.1417 62.7645 16.4228 62.9131 16.6194 63.1514L16.7283 63.2834C16.8264 63.4013 16.9008 63.5379 16.9471 63.6852C16.9935 63.8326 17.011 63.9879 16.9986 64.1422C16.9862 64.2965 16.9441 64.4468 16.8748 64.5845C16.8056 64.7221 16.7104 64.8444 16.5948 64.9443Z" fill="#131313"/>
<path d="M10.9746 57.9456V63.7057C10.9746 63.7502 10.9573 63.793 10.9265 63.8245C10.8957 63.856 10.854 63.8737 10.8105 63.8737H8.67185C8.62831 63.8737 8.58656 63.856 8.55577 63.8245C8.52499 63.793 8.5077 63.7502 8.5077 63.7057V57.9456C8.5077 57.6337 8.62876 57.3345 8.84424 57.114C9.05973 56.8934 9.35199 56.7695 9.65673 56.7695H9.82557C10.1303 56.7695 10.4226 56.8934 10.6381 57.114C10.8536 57.3345 10.9746 57.6337 10.9746 57.9456Z" fill="#131313"/>
<path d="M6.99304 57.966L8.22169 63.5872C8.2312 63.6307 8.22344 63.6763 8.20012 63.7139C8.1768 63.7515 8.13982 63.7781 8.09734 63.7878L6.01031 64.2657C5.96782 64.2754 5.92331 64.2675 5.88654 64.2436C5.84978 64.2197 5.82379 64.1819 5.81429 64.1384L4.58563 58.5172C4.5191 58.2128 4.57344 57.8939 4.73668 57.6305C4.89993 57.3671 5.15871 57.1809 5.4561 57.1128L5.62087 57.0751C5.91826 57.007 6.2299 57.0626 6.48723 57.2297C6.74456 57.3968 6.92651 57.6616 6.99304 57.966Z" fill="#131313"/>
<path d="M2.71124 59.3754L5.52521 64.3638C5.54698 64.4024 5.55287 64.4483 5.5416 64.4913C5.53034 64.5343 5.50283 64.571 5.46512 64.5933L3.61303 65.6877C3.57533 65.71 3.53052 65.7161 3.48847 65.7045C3.44642 65.693 3.41056 65.6648 3.3888 65.6262L0.574823 60.6378C0.422451 60.3677 0.381161 60.0467 0.460034 59.7454C0.538908 59.4442 0.731489 59.1873 0.995405 59.0313L1.14162 58.9449C1.40554 58.789 1.71917 58.7467 2.01353 58.8275C2.30789 58.9082 2.55887 59.1053 2.71124 59.3754Z" fill="#131313"/>
<path d="M125.919 142.111L131.832 139.537L114.771 98.4791L108.858 101.053L125.919 142.111Z" fill="#FF7D1F"/>
<path d="M115.62 102.402C118.747 98.6231 118.29 92.9651 114.598 89.7641C110.907 86.5631 105.378 87.0313 102.251 90.8098C99.1233 94.5883 99.5807 100.246 103.272 103.447C106.964 106.648 112.492 106.18 115.62 102.402Z" fill="#131313"/>
<path d="M108.956 105.606C107.581 105.607 106.226 105.277 104.999 104.644C103.771 104.011 102.707 103.091 101.89 101.96C101.073 100.828 100.527 99.5163 100.297 98.1296C100.066 96.7428 100.156 95.3199 100.561 93.9755C101.04 92.3898 101.94 90.9712 103.16 89.8775C104.38 88.7838 105.873 88.0578 107.472 87.7802C109.071 87.5026 110.714 87.6843 112.218 88.305C113.723 88.9257 115.029 89.9612 115.993 91.2964C116.957 92.6316 117.54 94.2141 117.677 95.8681C117.815 97.5221 117.502 99.1827 116.773 100.666C116.043 102.148 114.927 103.395 113.547 104.267C112.167 105.139 110.578 105.603 108.956 105.606ZM108.956 87.6634C107.337 87.6651 105.75 88.1265 104.372 88.9962C102.993 89.866 101.878 91.1101 101.149 92.59C100.421 94.0699 100.108 95.7277 100.245 97.3789C100.382 99.0301 100.964 100.61 101.926 101.943C102.888 103.276 104.193 104.309 105.695 104.929C107.196 105.548 108.837 105.728 110.433 105.45C112.029 105.172 113.519 104.447 114.736 103.354C115.953 102.261 116.85 100.844 117.327 99.2604C118.009 96.9912 117.782 94.538 116.698 92.4394C115.614 90.3407 113.761 88.768 111.545 88.0666C110.697 87.798 109.815 87.6621 108.928 87.6634H108.956Z" fill="#131313"/>
<path d="M126.671 123.416C127.642 119.837 125.596 116.13 122.099 115.136C118.603 114.141 114.981 116.236 114.009 119.815C113.038 123.393 115.084 127.1 118.581 128.095C122.077 129.089 125.699 126.994 126.671 123.416Z" fill="#131313"/>
<path d="M130.253 148.043C133.219 148.043 135.623 145.582 135.623 142.546C135.623 139.511 133.219 137.05 130.253 137.05C127.287 137.05 124.883 139.511 124.883 142.546C124.883 145.582 127.287 148.043 130.253 148.043Z" fill="#131313"/>
<path d="M123.229 148.083L126.236 143.033L128.346 144.349L125.339 149.399C125.181 149.665 124.925 149.856 124.629 149.93C124.333 150.004 124.02 149.954 123.76 149.791L123.616 149.701C123.487 149.621 123.374 149.516 123.284 149.391C123.195 149.266 123.13 149.125 123.094 148.974C123.058 148.824 123.051 148.668 123.075 148.515C123.098 148.362 123.15 148.215 123.229 148.083Z" fill="#131313"/>
<path d="M130.713 152.899L128.931 147.435C128.917 147.393 128.92 147.346 128.94 147.307C128.959 147.267 128.993 147.236 129.035 147.222L131.063 146.529C131.104 146.515 131.149 146.518 131.188 146.538C131.227 146.558 131.257 146.593 131.271 146.635L133.053 152.099C133.099 152.246 133.116 152.401 133.104 152.555C133.091 152.709 133.049 152.859 132.98 152.996C132.911 153.133 132.816 153.256 132.701 153.355C132.586 153.455 132.453 153.531 132.309 153.578L132.149 153.633C131.863 153.726 131.553 153.702 131.285 153.565C131.017 153.428 130.811 153.188 130.713 152.899Z" fill="#131313"/>
<path d="M134.489 151.589L131.585 146.655C131.573 146.636 131.566 146.615 131.563 146.593C131.56 146.572 131.561 146.549 131.566 146.528C131.571 146.507 131.58 146.486 131.593 146.469C131.606 146.451 131.622 146.436 131.64 146.425L133.472 145.295C133.491 145.284 133.511 145.276 133.532 145.273C133.554 145.269 133.576 145.27 133.596 145.276C133.617 145.281 133.637 145.291 133.654 145.304C133.672 145.317 133.686 145.333 133.698 145.352L136.602 150.286C136.759 150.553 136.806 150.873 136.733 151.176C136.66 151.479 136.472 151.739 136.211 151.9L136.066 151.989C135.805 152.15 135.492 152.198 135.197 152.123C134.901 152.048 134.646 151.856 134.489 151.589Z" fill="#131313"/>
<path d="M138.111 148.868L133.898 145.048C133.866 145.019 133.846 144.977 133.843 144.933C133.841 144.888 133.856 144.845 133.884 144.811L135.299 143.177C135.328 143.143 135.369 143.123 135.412 143.12C135.456 143.118 135.499 143.133 135.531 143.162L139.743 146.982C139.971 147.189 140.11 147.48 140.128 147.791C140.147 148.103 140.044 148.409 139.841 148.642L139.73 148.771C139.527 149.003 139.243 149.144 138.94 149.162C138.636 149.18 138.338 149.074 138.111 148.868Z" fill="#131313"/>
<path d="M41.4199 86.3579C41.4199 86.3579 42.0531 149.306 76.5664 150.535C111.08 151.764 112.529 86.8091 112.529 86.3579C112.529 86.3579 108.453 76.9737 76.9745 77.3385C45.4955 77.7033 41.4199 86.3579 41.4199 86.3579Z" fill="#FF7D1F"/>
<path d="M60.7954 75.2778H89.967C91.8707 75.2778 93.4141 73.6983 93.4141 71.7498V71.2362C93.4141 69.2876 91.8707 67.7081 89.967 67.7081H60.7954C58.8917 67.7081 57.3483 69.2876 57.3483 71.2362V71.7498C57.3483 73.6983 58.8917 75.2778 60.7954 75.2778Z" fill="#131313"/>
<path d="M74.1241 19.3047H76.6426V6.2724H74.1241V19.3047Z" fill="#131313"/>
<path d="M113.888 58.1022C117.865 57.1349 120.322 53.0514 119.377 48.9814C118.432 44.9115 114.442 42.3964 110.466 43.3637C106.489 44.331 104.032 48.4146 104.977 52.4845C105.922 56.5544 109.912 59.0696 113.888 58.1022Z" fill="#FF7D1F"/>
<path d="M39.1108 57.6095C43.0968 56.6841 45.5952 52.6267 44.691 48.547C43.7869 44.4674 39.8226 41.9103 35.8365 42.8357C31.8505 43.7611 29.3521 47.8185 30.2562 51.8982C31.1604 55.9778 35.1247 58.5349 39.1108 57.6095Z" fill="#FF7D1F"/>
<path d="M73.9186 16.4764C73.9186 16.4764 43.8279 16.1068 39.0723 42.8001C34.3167 69.4935 59.755 69.9735 67.076 70.4776C70.3918 70.708 77.4924 70.732 83.7582 70.6168C97.631 70.372 107.433 67.6263 110.768 54.4548C111.165 52.9104 111.414 51.3301 111.513 49.7363C112.39 35.2784 102.856 15.766 73.9186 16.4764Z" fill="#FF7D1F"/>
<path d="M95.7422 57.105L52.0271 57.801C50.9364 57.8207 49.8526 57.6201 48.8377 57.2106C47.8228 56.8011 46.8968 56.1907 46.1127 55.4145C45.3286 54.6383 44.7017 53.7114 44.268 52.6869C43.8343 51.6624 43.6023 50.5604 43.5852 49.4441C43.5666 48.3275 43.7632 47.2181 44.1638 46.1794C44.5645 45.1406 45.1612 44.1929 45.92 43.3905C46.6788 42.588 47.5848 41.9465 48.586 41.5027C49.5872 41.0588 50.6641 40.8214 51.7551 40.8039L95.4701 40.1079C96.561 40.0875 97.6451 40.2877 98.6603 40.697C99.6754 41.1063 100.602 41.7166 101.386 42.493C102.17 43.2693 102.797 44.1965 103.23 45.2212C103.664 46.246 103.896 47.3483 103.912 48.4648C103.931 49.5816 103.735 50.6912 103.335 51.7302C102.934 52.7693 102.338 53.7172 101.579 54.5198C100.82 55.3224 99.9135 55.9639 98.912 56.4075C97.9105 56.8511 96.8333 57.0882 95.7422 57.105Z" fill="#131313"/>
<path d="M61.1136 48.5173C61.012 49.0463 60.7593 49.5327 60.3876 49.9147C60.016 50.2968 59.5419 50.5576 59.0255 50.664C58.509 50.7703 57.9733 50.7176 57.4862 50.5125C56.999 50.3073 56.5822 49.9589 56.2885 49.5113C55.9947 49.0637 55.8372 48.537 55.8359 47.9978C55.8346 47.4587 55.9896 46.9312 56.2811 46.4821C56.5727 46.0331 56.9878 45.6825 57.474 45.4749C57.9602 45.2673 58.4956 45.2119 59.0125 45.3156C59.356 45.3846 59.6827 45.5221 59.9742 45.7203C60.2656 45.9185 60.5161 46.1736 60.7112 46.4709C60.9063 46.7682 61.0423 47.102 61.1114 47.4531C61.1804 47.8043 61.1812 48.1659 61.1136 48.5173Z" fill="white"/>
<path d="M91.6399 48.018C91.5391 48.5475 91.2871 49.0345 90.9158 49.4173C90.5445 49.8001 90.0706 50.0616 89.554 50.1687C89.0375 50.2758 88.5015 50.2236 88.0139 50.0188C87.5263 49.814 87.109 49.4658 86.8149 49.0182C86.5207 48.5707 86.3629 48.0438 86.3613 47.5044C86.3598 46.965 86.5146 46.4372 86.8063 45.9879C87.0979 45.5386 87.5132 45.1879 87.9996 44.9802C88.486 44.7725 89.0217 44.7172 89.5388 44.8212C90.2314 44.9604 90.8416 45.3753 91.2356 45.9747C91.6295 46.5741 91.7749 47.309 91.6399 48.018Z" fill="white"/>
<path d="M87.2496 111.356C87.0783 113.758 86.2149 116.054 84.7686 117.954C83.3223 119.854 81.358 121.272 79.1242 122.03C76.8904 122.787 74.4873 122.849 72.2188 122.209C69.9504 121.568 67.9184 120.254 66.3798 118.431C64.8413 116.609 63.8652 114.361 63.5751 111.971C63.285 109.58 63.6939 107.156 64.7501 105.004C65.8062 102.852 67.4622 101.068 69.5086 99.8791C71.5551 98.69 73.9 98.1487 76.247 98.3237C79.3942 98.5595 82.3211 100.065 84.3843 102.509C86.4475 104.952 87.4781 108.135 87.2496 111.356Z" fill="#131313"/>
<path d="M84.1055 111.114C83.9803 112.865 83.3507 114.539 82.2963 115.923C81.2419 117.308 79.81 118.341 78.1817 118.893C76.5535 119.444 74.802 119.489 73.1487 119.022C71.4954 118.555 70.0147 117.596 68.8937 116.268C67.7727 114.939 67.0618 113.3 66.851 111.558C66.6401 109.816 66.9387 108.049 67.709 106.48C68.4793 104.912 69.6868 103.613 71.1786 102.747C72.6705 101.881 74.3798 101.487 76.0904 101.615C77.2263 101.7 78.3348 102.012 79.3525 102.536C80.3702 103.059 81.2772 103.782 82.0215 104.665C82.7659 105.547 83.3331 106.571 83.6907 107.677C84.0483 108.784 84.1892 109.952 84.1055 111.114Z" fill="white"/>
<path d="M78.3223 9.01167C79.9433 7.35269 79.9433 4.66294 78.3223 3.00396C76.7014 1.34497 74.0734 1.34498 72.4525 3.00396C70.8316 4.66294 70.8316 7.35268 72.4525 9.01167C74.0734 10.6707 76.7014 10.6707 78.3223 9.01167Z" fill="#FF7D1F"/>
<path d="M68.754 47.2595C68.951 47.2835 68.8525 48.2195 69.434 49.5011C69.7635 50.2367 70.2433 50.8914 70.841 51.4211C71.5416 52.052 72.4138 52.4489 73.3408 52.5588C74.2727 52.6203 75.201 52.3928 76.0047 51.906C76.6848 51.5011 77.2731 50.953 77.7306 50.2979C78.5278 49.1603 78.5982 48.2051 78.7952 48.2195C78.8749 48.2195 78.9546 48.4595 78.9546 48.9107C78.9368 49.5535 78.7764 50.1838 78.4856 50.7539C78.0487 51.6156 77.4027 52.3478 76.6097 52.8804C75.6292 53.5875 74.435 53.9144 73.2406 53.8027C72.0462 53.691 70.9296 53.148 70.0906 52.2708C69.4058 51.6005 68.9018 50.7605 68.6274 49.8323C68.4318 49.213 68.3804 48.5555 68.4773 47.9123C68.557 47.4659 68.6789 47.2451 68.754 47.2595Z" fill="white"/>
<path d="M108.817 59.6976C108.77 59.6976 109.31 58.8336 109.83 57.3215C110.478 55.3413 110.887 53.2877 111.05 51.2062C111.238 49.132 111.285 47.0469 111.19 44.9661C111.158 44.1645 111.12 43.526 111.083 43.046C111.051 42.8139 111.043 42.579 111.059 42.3452C111.119 42.5714 111.158 42.8028 111.176 43.0364C111.242 43.4828 111.308 44.1309 111.364 44.9565C111.511 47.0541 111.488 49.1606 111.294 51.2542C111.129 53.3553 110.692 55.4246 109.994 57.4079C109.774 58.0062 109.507 58.5856 109.197 59.1408C109.086 59.3372 108.959 59.5235 108.817 59.6976Z" fill="#131313"/>
<path d="M39.1273 41.9077C39.1008 42.1408 39.0521 42.3707 38.9819 42.5941C38.921 42.8101 38.8553 43.0741 38.7943 43.3909C38.7334 43.7078 38.6396 44.0534 38.5833 44.4518C38.4189 45.377 38.3092 46.3115 38.255 47.2502C38.1919 48.3988 38.2076 49.5504 38.3019 50.6967C38.4067 51.841 38.5884 52.9765 38.8459 54.0952C39.0612 55.0103 39.3306 55.9111 39.6526 56.7928C39.7792 57.172 39.9246 57.5033 40.0419 57.8009C40.1591 58.0985 40.2717 58.3481 40.3655 58.5497C40.4724 58.7569 40.5603 58.9738 40.6281 59.1977C40.4946 59.0073 40.3785 58.8049 40.281 58.5929C40.1485 58.3529 40.0279 58.1062 39.9199 57.8537C39.7886 57.5657 39.6291 57.2344 39.4931 56.8552C39.1449 55.9759 38.8566 55.0729 38.6302 54.1528C38.3557 53.0234 38.1645 51.8746 38.058 50.7159C37.9624 49.5583 37.953 48.3949 38.0299 47.2358C38.0953 46.2888 38.2238 45.3473 38.4144 44.4182C38.4848 44.0198 38.5833 43.6694 38.663 43.3573C38.7427 43.0453 38.8178 42.7813 38.8881 42.5653C38.9503 42.3398 39.0303 42.1199 39.1273 41.9077Z" fill="#131313"/>
<path d="M41.2578 86.3037L41.436 86.3565L41.9613 86.5389L43.9592 87.2589L45.4037 87.7869C45.9337 87.9693 46.5199 88.1421 47.1437 88.339C48.3959 88.7182 49.8076 89.2126 51.4116 89.5966L53.9113 90.2542C54.7836 90.4798 55.7029 90.6478 56.6502 90.859C58.5262 91.3006 60.5851 91.603 62.7472 91.9582C67.4228 92.6148 72.1352 92.9595 76.8545 92.9903C81.574 92.9619 86.2865 92.6171 90.9619 91.9582C93.1099 91.603 95.1547 91.3054 97.0589 90.859C97.9969 90.6526 98.9348 90.4846 99.7978 90.259L102.302 89.6014C103.902 89.2174 105.313 88.723 106.565 88.3438C107.189 88.147 107.775 87.9742 108.305 87.7917L109.75 87.2637L111.748 86.5437L112.273 86.3613C112.332 86.3374 112.393 86.3197 112.456 86.3085L112.282 86.3853L111.767 86.5917L109.783 87.3549L108.305 87.9213C107.78 88.1085 107.194 88.2862 106.57 88.4926C105.318 88.8862 103.911 89.3902 102.307 89.7886L99.8025 90.4606C98.9348 90.691 98.0109 90.8638 97.0636 91.0798C95.1876 91.531 93.124 91.8382 90.9666 92.203C86.2814 92.8759 81.5574 93.227 76.8264 93.2543C72.0969 93.2235 67.3746 92.8708 62.6909 92.1982C60.5382 91.8382 58.4699 91.5262 56.594 91.075C55.656 90.859 54.718 90.6862 53.855 90.4558L51.3506 89.7838C49.7466 89.3854 48.3396 88.8814 47.0874 88.4878C46.4637 88.2813 45.8821 88.1037 45.3521 87.9165L43.9123 87.3645L41.9285 86.6013L41.4126 86.3949C41.3583 86.3696 41.3065 86.3391 41.2578 86.3037Z" fill="#131313"/>
<g opacity="0.3">
<path d="M41.4199 86.3572C41.4199 86.3572 45.4955 77.717 76.9745 77.3378C108.453 76.9586 112.529 86.3572 112.529 86.3572C112.529 86.3572 80.7592 102.385 41.4199 86.3572Z" fill="#131313"/>
</g>
<path d="M70.1025 18.4738C70.0666 18.4773 70.0305 18.4773 69.9946 18.4738L69.6804 18.5074C69.399 18.5362 68.9863 18.5458 68.4563 18.6082C66.961 18.7567 65.4771 19.0085 64.0149 19.3618C56.4522 21.1345 49.7816 25.6712 45.2551 32.1205C43.0683 35.2197 41.4125 38.6771 40.3588 42.3447C40.1947 42.8631 40.1056 43.2759 40.0258 43.5495L39.9367 43.8663C39.9283 43.9029 39.9157 43.9384 39.8992 43.972C39.893 43.9354 39.893 43.8981 39.8992 43.8615C39.8992 43.7751 39.9367 43.6695 39.9649 43.5399C40.0305 43.2615 40.1009 42.8439 40.2509 42.3159C40.6424 40.8246 41.1441 39.366 41.7517 37.9526C43.7564 33.2557 46.8082 29.1047 50.6626 25.8323C54.5335 22.5847 59.0934 20.3095 63.9774 19.189C65.4482 18.847 66.9424 18.6207 68.4469 18.5122C68.9816 18.4642 69.3849 18.469 69.6757 18.4546H69.9946C70.0697 18.4642 70.1025 18.469 70.1025 18.4738Z" fill="white"/>
<path d="M40.671 55.4242C40.4831 55.1269 40.3378 54.8036 40.2395 54.4642C39.6832 52.86 39.424 51.1638 39.4751 49.4624C39.4617 49.1092 39.5028 48.7561 39.597 48.416C39.672 48.416 39.5689 50.0193 39.869 51.9585C40.1692 53.8977 40.7414 55.3954 40.671 55.4242Z" fill="white"/>
<path d="M32.779 52.9436C32.779 52.9436 32.6711 52.8668 32.5257 52.6844C32.3185 52.4259 32.1407 52.1441 31.9958 51.8444C31.4949 50.8521 31.3033 49.7266 31.4467 48.6194C31.5901 47.5123 32.0616 46.4767 32.7977 45.6523C33.0133 45.3997 33.2574 45.1742 33.5247 44.9803C33.6165 44.9012 33.7213 44.8394 33.8342 44.7979C33.8624 44.8363 33.4403 45.1291 32.9291 45.7579C32.2581 46.5803 31.8288 47.5805 31.691 48.6426C31.5532 49.7046 31.7126 50.7849 32.1505 51.758C32.4788 52.5212 32.8118 52.9148 32.779 52.9436Z" fill="white"/>
<path d="M75.6539 3.04773C75.288 3.00651 74.9191 2.99847 74.5518 3.02373C74.1144 3.06301 73.6915 3.20433 73.3158 3.43683C72.94 3.66933 72.6212 3.98684 72.384 4.365C72.1467 4.74316 71.9972 5.17192 71.947 5.61839C71.8968 6.06486 71.9472 6.51717 72.0943 6.94062C72.2209 7.29182 72.3778 7.63077 72.5632 7.95344C72.5632 7.95344 72.4694 7.89584 72.3381 7.74223C72.1579 7.52003 72.0153 7.26856 71.916 6.99822C71.7371 6.54998 71.6663 6.06423 71.7096 5.58206C71.753 5.0999 71.9091 4.6355 72.1649 4.22819C72.4207 3.82087 72.7687 3.48262 73.1792 3.24205C73.5898 3.00148 74.0509 2.86568 74.5236 2.84613C74.8044 2.82619 75.0865 2.85376 75.3585 2.92773C75.5695 2.96133 75.6539 3.03333 75.6539 3.04773Z" fill="white"/>
<path d="M116.528 47.1211C116.476 47.1787 115.749 46.4635 114.652 45.926C113.554 45.3884 112.555 45.23 112.565 45.1532C113.329 45.1337 114.085 45.3226 114.755 45.7004C115.46 46.0022 116.072 46.493 116.528 47.1211Z" fill="white"/>
<path d="M52.2053 131.158C52.1839 131.129 52.1651 131.098 52.149 131.066L51.9943 130.783C51.8536 130.51 51.666 130.145 51.4221 129.679C51.3001 129.439 51.1688 129.17 51.0187 128.882L50.5779 127.922C50.259 127.226 49.9025 126.434 49.5508 125.522C49.3726 125.076 49.185 124.605 48.988 124.121C48.791 123.636 48.6222 123.108 48.4299 122.575C48.0266 121.514 47.6842 120.348 47.2855 119.138C46.5492 116.69 45.827 113.978 45.1938 111.098C44.5607 108.218 44.1011 105.439 43.7259 102.909C43.3507 100.379 43.1068 98.1088 42.9567 96.16C42.8676 95.2 42.8113 94.3263 42.7644 93.5583C42.7175 92.7903 42.6753 92.1183 42.6612 91.5903C42.6472 91.0623 42.6331 90.6543 42.619 90.347V90.0254C42.614 89.9888 42.614 89.9517 42.619 89.915C42.6244 89.9516 42.6244 89.9889 42.619 90.0254L42.6472 90.347C42.6472 90.6495 42.6988 91.0671 42.7316 91.5855C42.7644 92.1039 42.8113 92.7855 42.877 93.5487C42.9426 94.3119 43.0036 95.1856 43.1068 96.1456C43.2756 98.0656 43.5758 100.35 43.9275 102.866C44.2793 105.381 44.7905 108.146 45.4096 111.026C46.0286 113.906 46.7556 116.613 47.4731 119.056C47.8718 120.266 48.2048 121.428 48.5987 122.489C48.7863 123.026 48.9645 123.54 49.1428 124.034L49.6868 125.445C50.0245 126.343 50.3715 127.14 50.6811 127.845L51.1032 128.805C51.2392 129.098 51.3705 129.367 51.4877 129.612L52.013 130.735L52.1443 131.028C52.1727 131.067 52.1935 131.111 52.2053 131.158Z" fill="white"/>
<path d="M33.8536 92.0203C32.7093 92.0646 31.5635 92.0229 30.4252 91.8955C29.2816 91.8545 28.1423 91.731 27.0156 91.5259C28.1599 91.4816 29.3057 91.5233 30.444 91.6507C31.5876 91.6913 32.727 91.8148 33.8536 92.0203Z" fill="white"/>
<path d="M16.2127 81.7737C15.5475 80.7821 14.9505 79.7444 14.4258 78.6681C13.8312 77.6313 13.3078 76.5535 12.8594 75.4424C13.5225 76.4361 14.118 77.4754 14.6416 78.5529C15.2392 79.587 15.7642 80.6633 16.2127 81.7737Z" fill="white"/>
<path d="M68.8531 146.29C68.6684 146.287 68.4846 146.264 68.3044 146.223C67.8081 146.133 67.3179 146.011 66.8364 145.858C66.1212 145.636 65.4222 145.361 64.7447 145.038C63.9194 144.63 63.126 144.158 62.3716 143.626C61.6256 143.081 60.923 142.476 60.2705 141.817C59.742 141.275 59.2529 140.694 58.8072 140.079C58.5018 139.669 58.2245 139.237 57.9771 138.788C57.8758 138.63 57.7924 138.461 57.7285 138.284C57.766 138.26 58.16 138.956 58.9432 139.973C59.4036 140.565 59.9002 141.126 60.4299 141.653C61.7281 142.944 63.2176 144.017 64.8432 144.831C65.5072 145.159 66.1901 145.446 66.888 145.69C68.0886 146.103 68.8625 146.242 68.8531 146.29Z" fill="white"/>
<path d="M76.0513 124.086C75.9428 124.105 75.8331 124.116 75.723 124.119C75.4111 124.146 75.098 124.156 74.7851 124.148C73.6188 124.122 72.4618 123.93 71.3473 123.577C70.5772 123.332 69.8276 123.023 69.1055 122.655C68.2776 122.22 67.4923 121.704 66.7605 121.115C65.0653 119.782 63.729 118.029 62.8775 116.023C62.0259 114.016 61.6869 111.82 61.8924 109.642C61.9688 108.697 62.1337 107.762 62.3848 106.849C62.6096 106.057 62.8998 105.286 63.2525 104.545C63.7612 103.469 64.4147 102.472 65.1941 101.583C65.4031 101.34 65.6255 101.109 65.8601 100.892C65.9377 100.812 66.0208 100.738 66.1086 100.671C66.1086 100.671 65.7991 101.012 65.2644 101.631C64.5139 102.534 63.8832 103.535 63.3885 104.607C62.6509 106.187 62.2117 107.895 62.094 109.642C61.9039 111.781 62.2424 113.935 63.0783 115.906C63.9142 117.876 65.2208 119.599 66.8778 120.918C67.5881 121.503 68.3513 122.017 69.1571 122.454C69.8633 122.835 70.599 123.156 71.3567 123.414C72.4546 123.778 73.5947 123.993 74.7475 124.052C75.5964 124.086 76.0513 124.057 76.0513 124.086Z" fill="white"/>
<path d="M19.2618 86.2854C19.2618 86.3238 18.9007 86.1462 18.3238 86.007C17.5519 85.8341 16.7517 85.8423 15.9833 86.031C15.215 86.2197 14.4983 86.5839 13.8871 87.0965C13.4181 87.4949 13.193 87.8117 13.1602 87.7877C13.2888 87.4701 13.4879 87.1874 13.7417 86.9621C14.3504 86.3906 15.0916 85.9874 15.895 85.7909C16.6985 85.5943 17.5377 85.6109 18.3332 85.839C18.6722 85.9127 18.9899 86.0654 19.2618 86.2854Z" fill="white"/>
<path d="M88.5271 38.5579C88.5271 38.6251 82.7679 38.6827 75.6673 38.6827C68.5667 38.6827 62.8027 38.6251 62.8027 38.5579C62.8027 38.4907 68.562 38.4331 75.6673 38.4331C82.7726 38.4331 88.5271 38.4811 88.5271 38.5579Z" fill="white"/>
<path d="M66.5768 68.5719C66.5066 68.5922 66.4341 68.6034 66.3611 68.6055L65.7326 68.6631C65.4606 68.6871 65.1276 68.7063 64.7384 68.7159C64.3491 68.7255 63.9083 68.7447 63.4205 68.7159C62.4403 68.7159 61.2772 68.6439 59.9875 68.5047C58.5917 68.3385 57.2061 68.0933 55.8368 67.7702C54.4708 67.4349 53.1243 67.0215 51.8035 66.5318C50.7274 66.1285 49.6723 65.6687 48.6425 65.1542C48.1735 64.943 47.8123 64.7222 47.47 64.535C47.1276 64.3478 46.8368 64.1798 46.6023 64.055L46.063 63.719C45.999 63.6827 45.9393 63.6392 45.8848 63.5894C45.8848 63.5894 45.9598 63.5894 46.0864 63.6758L46.6492 63.9686C46.8884 64.103 47.1839 64.2614 47.5309 64.4486C47.878 64.6358 48.272 64.8278 48.7175 65.0294C49.5992 65.4518 50.6732 65.903 51.8832 66.3494C54.5131 67.3144 57.2412 67.9714 60.0156 68.3079C61.2913 68.4615 62.4497 68.5479 63.4205 68.5719C63.8895 68.6007 64.3585 68.5719 64.7384 68.5719C65.1183 68.5719 65.4559 68.5719 65.728 68.5719H66.3564C66.4294 68.5594 66.5039 68.5594 66.5768 68.5719Z" fill="white"/>
<path d="M104.021 90.2012C103.986 90.2246 103.948 90.2424 103.908 90.254L103.57 90.3836L102.267 90.8636C101.699 91.0748 101.005 91.3196 100.184 91.5644C99.3634 91.8092 98.4395 92.126 97.3937 92.3948L95.7616 92.8364C95.1941 92.9852 94.5938 93.11 93.9794 93.2588C92.7506 93.5612 91.4187 93.8013 90.0211 94.0749C83.9335 95.16 77.7469 95.548 71.5755 95.2317C70.1685 95.1405 68.8037 95.0685 67.5468 94.9197C66.9184 94.8525 66.3087 94.8045 65.7271 94.7229L64.0528 94.4877C62.9835 94.3581 62.0267 94.1613 61.1872 94.0077C60.3477 93.854 59.6208 93.71 59.0345 93.5708L57.6838 93.2636L57.3321 93.1772C57.2914 93.1704 57.2519 93.1574 57.2148 93.1388C57.257 93.1352 57.2993 93.1352 57.3415 93.1388L57.6932 93.2012L59.0533 93.4652C59.6442 93.5852 60.3665 93.7244 61.2107 93.854C62.0549 93.9836 63.0069 94.1709 64.0762 94.2909L65.7459 94.5069C66.3274 94.5837 66.9371 94.6269 67.5656 94.6893C68.8178 94.8285 70.1685 94.8909 71.5849 94.9773C74.4223 95.0973 77.5411 95.1021 80.8147 94.9053C84.0883 94.7085 87.179 94.2909 89.9789 93.8205C91.3858 93.5564 92.7084 93.3404 93.9372 93.0332C94.5516 92.8892 95.1519 92.7692 95.7194 92.6252L97.3515 92.198C98.3973 91.9436 99.3212 91.646 100.142 91.406C100.963 91.166 101.666 90.926 102.234 90.7484L103.552 90.3164L103.899 90.2108L104.021 90.2012Z" fill="white"/>
<g clip-path="url(#clip0_1403_11025)">
<path d="M75.5386 107.597L75.2325 107.93L74.9263 107.597C74.0808 106.678 72.71 106.678 71.8646 107.597C71.0191 108.517 71.0191 110.007 71.8646 110.927L72.1707 111.26L75.2325 114.588L78.2942 111.259L78.6004 110.926C79.4458 110.007 79.4458 108.517 78.6004 107.597C77.7549 106.678 76.3841 106.678 75.5386 107.597Z" fill="#FF7D1F"/>
</g>
<defs>
<clipPath id="clip0_1403_11025">
<rect width="8.00449" height="8.1925" fill="white" transform="translate(71.2305 106.396)"/>
</clipPath>
</defs>
</svg>
