<svg width="90" height="90" viewBox="0 0 90 90" fill="none" xmlns="http://www.w3.org/2000/svg">
<circle cx="45" cy="45" r="44.5" fill="#EEEEEE" stroke="#ff3300"/>
<path d="M35.2253 69.6567H54.4683C55.7241 69.6567 56.7422 68.6148 56.7422 67.3294V66.9906C56.7422 65.7053 55.7241 64.6633 54.4683 64.6633H35.2253C33.9695 64.6633 32.9514 65.7053 32.9514 66.9906V67.3294C32.9514 68.6148 33.9695 69.6567 35.2253 69.6567Z" fill="#131313"/>
<path d="M44.0184 32.7344H45.6797V24.1376H44.0184V32.7344Z" fill="#131313"/>
<path d="M70.2495 58.3271C72.8727 57.689 74.4937 54.9953 73.8702 52.3106C73.2468 49.6259 70.6149 47.9667 67.9918 48.6049C65.3686 49.243 63.7476 51.9367 64.3711 54.6214C64.9945 57.3061 67.6264 58.9652 70.2495 58.3271Z" fill="#ff3300"/>
<path d="M20.9208 58.0021C23.5502 57.3917 25.1982 54.7152 24.6018 52.024C24.0054 49.3329 21.3904 47.6461 18.761 48.2565C16.1316 48.867 14.4835 51.5434 15.0799 54.2346C15.6763 56.9258 18.2914 58.6125 20.9208 58.0021Z" fill="#ff3300"/>
<path d="M43.882 30.8689C43.882 30.8689 24.0327 30.6251 20.8956 48.2334C17.7586 65.8416 34.539 66.1583 39.3683 66.4907C41.5555 66.6427 46.2394 66.6586 50.3727 66.5826C59.5239 66.4211 65.9898 64.6099 68.1894 55.9213C68.4514 54.9026 68.6161 53.8601 68.6813 52.8088C69.2598 43.2716 62.9703 30.4003 43.882 30.8689Z" fill="#ff3300"/>
<path d="M58.2792 57.6692L29.4426 58.1283C28.7231 58.1413 28.0081 58.0089 27.3387 57.7388C26.6692 57.4687 26.0584 57.066 25.5411 56.554C25.0239 56.042 24.6104 55.4305 24.3243 54.7547C24.0382 54.0789 23.8851 53.352 23.8738 52.6156C23.8616 51.8791 23.9913 51.1473 24.2555 50.4621C24.5198 49.7769 24.9135 49.1517 25.414 48.6224C25.9146 48.093 26.5122 47.6698 27.1726 47.3771C27.8331 47.0843 28.5435 46.9277 29.2631 46.9161L58.0997 46.457C58.8193 46.4436 59.5344 46.5756 60.2041 46.8456C60.8737 47.1156 61.4847 47.5182 62.002 48.0303C62.5194 48.5424 62.9329 49.154 63.2188 49.83C63.5048 50.506 63.6576 51.2331 63.6684 51.9697C63.6811 52.7063 63.5517 53.4383 63.2876 54.1237C63.0235 54.8091 62.6298 55.4344 62.1292 55.9638C61.6286 56.4933 61.0308 56.9164 60.3702 57.209C59.7095 57.5017 58.9989 57.658 58.2792 57.6692Z" fill="#131313"/>
<path d="M35.4326 52.0045C35.3655 52.3535 35.1989 52.6743 34.9537 52.9263C34.7085 53.1784 34.3958 53.3504 34.0551 53.4205C33.7145 53.4907 33.3611 53.4559 33.0397 53.3206C32.7184 53.1853 32.4434 52.9554 32.2497 52.6602C32.0559 52.3649 31.952 52.0175 31.9512 51.6618C31.9503 51.3062 32.0525 50.9582 32.2448 50.662C32.4372 50.3658 32.711 50.1346 33.0317 49.9976C33.3524 49.8606 33.7056 49.8241 34.0466 49.8925C34.2731 49.938 34.4887 50.0287 34.681 50.1595C34.8732 50.2902 35.0384 50.4585 35.1671 50.6546C35.2959 50.8507 35.3855 51.0709 35.4311 51.3025C35.4766 51.5341 35.4772 51.7727 35.4326 52.0045Z" fill="white"/>
<path d="M55.5719 51.6753C55.5054 52.0245 55.3391 52.3457 55.0942 52.5983C54.8493 52.8508 54.5366 53.0233 54.1959 53.0939C53.8552 53.1646 53.5016 53.1302 53.18 52.9951C52.8583 52.86 52.5831 52.6303 52.389 52.3351C52.195 52.0398 52.0909 51.6923 52.0899 51.3365C52.0888 50.9806 52.191 50.6325 52.3833 50.3361C52.5757 50.0397 52.8497 49.8084 53.1705 49.6714C53.4914 49.5344 53.8447 49.4979 54.1859 49.5665C54.6427 49.6583 55.0453 49.932 55.3051 50.3274C55.565 50.7228 55.6609 51.2076 55.5719 51.6753Z" fill="white"/>
<path d="M46.7866 25.9444C47.8558 24.85 47.8558 23.0757 46.7866 21.9814C45.7173 20.8871 43.9838 20.8871 42.9145 21.9814C41.8453 23.0757 41.8453 24.85 42.9145 25.9444C43.9838 27.0387 45.7173 27.0387 46.7866 25.9444Z" fill="#ff3300"/>
<path d="M40.4756 51.1748C40.6056 51.1906 40.5406 51.808 40.9242 52.6535C41.1416 53.1387 41.4581 53.5706 41.8524 53.92C42.3145 54.3362 42.8898 54.598 43.5013 54.6704C44.116 54.711 44.7284 54.561 45.2585 54.2398C45.7072 53.9728 46.0952 53.6112 46.397 53.1791C46.923 52.4286 46.9694 51.7985 47.0993 51.808C47.1519 51.808 47.2045 51.9664 47.2045 52.264C47.1927 52.688 47.0869 53.1038 46.8951 53.4799C46.6069 54.0483 46.1808 54.5313 45.6576 54.8826C45.0109 55.349 44.2231 55.5647 43.4352 55.491C42.6474 55.4173 41.9108 55.0591 41.3574 54.4805C40.9056 54.0383 40.5731 53.4842 40.3921 52.8719C40.2631 52.4634 40.2292 52.0297 40.2931 51.6054C40.3457 51.3109 40.4261 51.1653 40.4756 51.1748Z" fill="white"/>
<path d="M66.9042 59.3796C66.8733 59.3796 67.2291 58.8096 67.5725 57.8122C67.9995 56.506 68.2697 55.1513 68.3768 53.7783C68.5007 52.41 68.5317 51.0346 68.4697 49.662C68.448 49.1332 68.4232 48.712 68.3985 48.3954C68.3776 48.2423 68.3724 48.0873 68.383 47.9331C68.4227 48.0823 68.4486 48.2349 68.4604 48.3891C68.5037 48.6835 68.547 49.111 68.5841 49.6556C68.6812 51.0393 68.6656 52.4289 68.5377 53.8099C68.4288 55.1959 68.1407 56.5609 67.6807 57.8692C67.5351 58.2638 67.3593 58.646 67.1548 59.0123C67.0817 59.1418 66.9979 59.2647 66.9042 59.3796Z" fill="#131313"/>
<path d="M20.9316 47.6445C20.9141 47.7983 20.882 47.9499 20.8357 48.0973C20.7955 48.2398 20.7522 48.414 20.712 48.6229C20.6718 48.8319 20.6099 49.0599 20.5728 49.3227C20.4643 49.933 20.392 50.5495 20.3562 51.1687C20.3146 51.9264 20.3249 52.686 20.3871 53.4422C20.4563 54.197 20.5762 54.9461 20.746 55.684C20.8881 56.2876 21.0658 56.8819 21.2781 57.4635C21.3617 57.7136 21.4576 57.9321 21.5349 58.1284C21.6123 58.3248 21.6865 58.4894 21.7484 58.6224C21.8189 58.7591 21.8769 58.9022 21.9216 59.0499C21.8336 58.9243 21.757 58.7907 21.6927 58.6509C21.6052 58.4926 21.5257 58.3299 21.4545 58.1633C21.3678 57.9733 21.2627 57.7548 21.1729 57.5047C20.9433 56.9246 20.753 56.3289 20.6037 55.722C20.4227 54.977 20.2965 54.2192 20.2263 53.4549C20.1632 52.6912 20.157 51.9238 20.2077 51.1592C20.2509 50.5345 20.3356 49.9135 20.4614 49.3006C20.5078 49.0377 20.5728 48.8066 20.6254 48.6008C20.6779 48.395 20.7274 48.2208 20.7739 48.0783C20.8149 47.9296 20.8676 47.7845 20.9316 47.6445Z" fill="#131313"/>
<path d="M41.3642 32.186C41.3405 32.1883 41.3167 32.1883 41.293 32.186L41.0857 32.2082C40.9001 32.2272 40.6279 32.2335 40.2783 32.2747C39.2919 32.3726 38.313 32.5387 37.3485 32.7718C32.3598 33.9412 27.9595 36.9338 24.9736 41.188C23.531 43.2324 22.4388 45.5131 21.7438 47.9325C21.6355 48.2744 21.5767 48.5467 21.5241 48.7272L21.4653 48.9362C21.4598 48.9603 21.4515 48.9837 21.4406 49.0059C21.4365 48.9818 21.4365 48.9571 21.4406 48.933C21.4406 48.876 21.4653 48.8064 21.4839 48.7209C21.5272 48.5372 21.5736 48.2618 21.6726 47.9135C21.9308 46.9297 22.2618 45.9675 22.6626 45.0352C23.985 41.9369 25.9981 39.1987 28.5407 37.0401C31.0941 34.8977 34.102 33.3969 37.3238 32.6578C38.294 32.4322 39.2796 32.2829 40.2721 32.2113C40.6248 32.1797 40.8908 32.1828 41.0826 32.1733H41.293C41.3425 32.1797 41.3642 32.1828 41.3642 32.186Z" fill="white"/>
<path d="M21.9474 56.5604C21.8234 56.3644 21.7275 56.1511 21.6627 55.9272C21.2958 54.869 21.1248 53.7501 21.1585 52.6278C21.1496 52.3948 21.1768 52.1618 21.2389 51.9375C21.2884 51.9375 21.2203 52.9951 21.4183 54.2743C21.6163 55.5535 21.9938 56.5414 21.9474 56.5604Z" fill="white"/>
<path d="M16.7434 54.9241C16.7434 54.9241 16.6722 54.8735 16.5763 54.7532C16.4396 54.5826 16.3223 54.3967 16.2267 54.199C15.8963 53.5445 15.7699 52.802 15.8645 52.0717C15.9591 51.3414 16.2702 50.6582 16.7557 50.1144C16.898 49.9478 17.0589 49.799 17.2353 49.6711C17.2958 49.6189 17.365 49.5782 17.4395 49.5508C17.458 49.5761 17.1796 49.7693 16.8424 50.1841C16.3998 50.7265 16.1166 51.3864 16.0257 52.0869C15.9348 52.7875 16.0399 53.5001 16.3288 54.142C16.5454 54.6455 16.765 54.9051 16.7434 54.9241Z" fill="white"/>
<path d="M45.028 22.0102C44.7866 21.983 44.5433 21.9777 44.301 21.9943C44.0124 22.0203 43.7335 22.1135 43.4856 22.2668C43.2377 22.4202 43.0275 22.6297 42.871 22.8791C42.7144 23.1286 42.6158 23.4114 42.5827 23.7059C42.5496 24.0004 42.5828 24.2988 42.6798 24.5781C42.7634 24.8098 42.8669 25.0334 42.9892 25.2462C42.9892 25.2462 42.9273 25.2082 42.8407 25.1069C42.7218 24.9603 42.6277 24.7944 42.5623 24.6161C42.4443 24.3204 42.3976 24 42.4261 23.682C42.4547 23.3639 42.5577 23.0576 42.7265 22.7889C42.8952 22.5202 43.1247 22.2971 43.3955 22.1384C43.6664 21.9797 43.9706 21.8901 44.2824 21.8772C44.4676 21.864 44.6536 21.8822 44.8331 21.931C44.9723 21.9532 45.028 22.0007 45.028 22.0102Z" fill="white"/>
<path d="M71.9912 51.0832C71.9572 51.1212 71.4776 50.6494 70.7537 50.2948C70.0298 49.9402 69.3708 49.8357 69.377 49.7851C69.8813 49.7722 70.3799 49.8968 70.8218 50.146C71.2868 50.3451 71.6908 50.6688 71.9912 51.0832Z" fill="white"/>
<path d="M53.516 45.4344C53.516 45.4787 49.7169 45.5167 45.033 45.5167C40.3491 45.5167 36.5469 45.4787 36.5469 45.4344C36.5469 45.39 40.346 45.3521 45.033 45.3521C49.72 45.3521 53.516 45.3837 53.516 45.4344Z" fill="white"/>
<path d="M39.0362 65.2335C38.9899 65.2469 38.9421 65.2543 38.8939 65.2557L38.4794 65.2937C38.2999 65.3095 38.0803 65.3221 37.8235 65.3285C37.5667 65.3348 37.2759 65.3475 36.9542 65.3285C36.3076 65.3285 35.5403 65.281 34.6896 65.1892C33.7689 65.0795 32.8548 64.9178 31.9516 64.7047C31.0505 64.4835 30.1623 64.2108 29.291 63.8878C28.5812 63.6217 27.8852 63.3184 27.2058 62.979C26.8965 62.8397 26.6582 62.694 26.4324 62.5706C26.2066 62.4471 26.0147 62.3362 25.8601 62.2539L25.5043 62.0323C25.4621 62.0083 25.4227 61.9797 25.3867 61.9468C25.3867 61.9468 25.4362 61.9468 25.5197 62.0038L25.891 62.1969C26.0488 62.2856 26.2437 62.3901 26.4726 62.5136C26.7016 62.6371 26.9614 62.7637 27.2553 62.8967C27.8369 63.1753 28.5454 63.473 29.3436 63.7674C31.0784 64.404 32.878 64.8374 34.7081 65.0593C35.5496 65.1607 36.3138 65.2177 36.9542 65.2335C37.2635 65.2525 37.5729 65.2335 37.8235 65.2335C38.0741 65.2335 38.2968 65.2335 38.4763 65.2335H38.8908C38.939 65.2253 38.9881 65.2253 39.0362 65.2335Z" fill="white"/>
</svg>
